<?xml version="1.0" encoding="utf-8"?>
<!-- Generator: Adobe Illustrator 22.1.0, SVG Export Plug-In . SVG Version: 6.00 Build 0)  -->
<svg version="1.1" id="Layer_1" xmlns="http://www.w3.org/2000/svg" xmlns:xlink="http://www.w3.org/1999/xlink" x="0px" y="0px"
	 viewBox="0 0 500 500" style="enable-background:new 0 0 500 500;" xml:space="preserve">
<style type="text/css">
	.st0{fill:#626262;}
	.st1{fill:#FFFFFF;}
	.st2{clip-path:url(#XMLID_2_);fill:#626262;}
	.st3{clip-path:url(#XMLID_3_);fill:#626262;}
	.st4{clip-path:url(#XMLID_4_);fill:#626262;}
</style>
<g>
	<path class="st0" d="M409,328.2c0,4,0,7.8,0,12c-0.8,0-1.6,0-2.3,0c-38.9,0-77.7,0-116.6,0c-2.6,0-2.6,0-2.6,2.7
		c0,25.7,0,51.5,0,77.2c0,0.7,0,1.4,0,2.5c-0.9-0.6-1.5-0.9-2.1-1.3c-36.3-26.6-72.6-53.2-108.8-79.8c-1.2-0.9-2.4-1.3-4-1.3
		c-26.4,0-52.7,0-79.1,0c-0.7,0-1.3,0-2.2,0c0-4,0-7.9,0-12c0.6,0,1.2-0.1,1.8-0.1c28.1,0,56.2,0,84.3,0c1,0,2.1,0.4,2.9,1
		c31.1,22.7,62.1,45.5,93.2,68.3c0.5,0.4,1,0.7,1.8,1.3c0-23.7,0-47.1,0-70.5C320,328.2,364.4,328.2,409,328.2z M93.1,141.1
		c104.7,0,209.3,0,314,0c0.6,0,1.2,0,1.9,0c0-4,0-7.8,0-11.9c-0.9,0-1.7,0-2.5,0c-104.2,0-208.4,0-312.7,0c-0.5,0-0.9,0-1.4,0
		c-1.1-0.1-1.5,0.4-1.5,1.5c0,2.8,0.1,5.5,0,8.3C90.9,140.6,91.4,141.1,93.1,141.1z M122,194.5c1.1,0.2,2.2,0.4,3.3,0.7
		c6.2,1.8,9.5,6.9,9.2,14.2c-0.4,9.8-6.6,16.7-16.4,17.2c-8.8,0.5-17.7,0.1-26.7,0.1c0-21,0-42.1,0-63.4c1.9,0,3.7,0,5.5,0
		c6.3,0.1,12.6,0.1,18.9,0.3c3.6,0.1,6.9,1.3,10,3.2c6.6,3.9,9.6,12.3,7.1,19.5c-1.5,4.3-4.5,6.9-9,7.6c-0.5,0.1-1,0.2-1.5,0.3
		C122.2,194.2,122.1,194.4,122,194.5z M108.3,184.4c0,4.1,0.8,4.6,4.8,3.1c0.1,0,0.2-0.1,0.3-0.1c2.3-1,3.3-2.8,3.2-5.6
		c-0.1-2.3-1.4-4-3.7-4.6c-1.4-0.3-2.8-0.3-4.3-0.5c-0.1,0.6-0.2,0.7-0.2,0.9C108.3,179.9,108.3,182.2,108.3,184.4z M116,203.3
		c-1.6-2-5.1-2.9-7.7-2c0,3.9,0,7.8,0,11.8c3.7,0.6,6.8-0.6,8.1-2.9C117.7,208,117.5,205.1,116,203.3z M278.9,305.3
		c-5.6,0-11.2,0-16.9,0c0-21.1,0-42.3,0-63.9c8.5,0.3,16.8,0.5,25.1,1c2.2,0.1,4.4,0.9,6.5,1.8c6.4,2.6,9.6,7.6,10.3,14.3
		c0.3,3.1,0.2,6.4-0.3,9.5c-0.8,4.7-3.7,8.1-8,10.3c-0.3,0.2-0.7,0.4-1.2,0.7c2.1,4.4,4.3,8.8,6.4,13.2c2.1,4.3,4.2,8.7,6.4,13.3
		c-3,0-5.8,0-8.5,0c-2.8,0-5.5-0.1-8.3,0c-1.3,0-1.8-0.3-2.3-1.6c-2.7-7.7-5.5-15.3-8.3-23c-0.2-0.5-0.4-1.1-1-1.5
		C278.9,287.9,278.9,296.5,278.9,305.3z M279,269.8c0,1.2,0.5,1.6,1.6,1.5c2.2-0.2,4-1.1,5.2-3c1.3-2,1.6-4.1,1.5-6.4
		c-0.3-4-3-6.6-7-6.7c-1,0-1.3,0.3-1.3,1.3c0,2.2,0,4.5,0,6.7C279,265.4,279.1,267.6,279,269.8z M315.1,226.6c0-20.9,0-42,0-63.4
		c0.9,0,1.7,0,2.5,0c5.2,0.1,10.4,0,15.5,0.3c12.8,0.8,22,8.7,24.8,21.3c2,9,1.6,17.9-1.6,26.6c-3.6,9.4-10.9,14.2-20.6,15.1
		C328.9,227.1,322.1,226.6,315.1,226.6z M332.2,211.5c3.4,0.3,6.2-1.7,7.7-5.5c1.8-4.5,2.2-9.2,1.5-13.9c-0.4-2.9-1.1-5.9-2.2-8.6
		c-1.3-3.1-4.2-4.6-7-4.3C332.2,189.9,332.2,200.7,332.2,211.5z M213.9,294.1c-4-7.5-5.1-15.6-4.6-24c0.4-6,1.7-11.8,4.5-17.1
		c3.1-5.8,7.6-10.1,14.2-11.6c10.6-2.5,20,1.8,25.2,11.6c3.4,6.5,4.6,13.5,4.8,20.7c-0.2,7.2-1.3,14.1-4.7,20.5
		c-4.2,7.8-10.6,12.2-19.5,12.3C224.7,306.4,218.1,302.1,213.9,294.1z M227.1,280.5c0.3,2.3,1.1,4.6,2,6.7c0.8,1.9,2.3,3.2,4.6,3.1
		c2.3,0,3.6-1.4,4.6-3.2c0.4-0.8,0.9-1.7,1-2.7c0.6-3.6,1.1-7.3,1.7-11c-0.1,0-0.2,0-0.3-0.1c-0.2-2.2-0.1-4.4-0.5-6.6
		c-0.5-2.5-1.1-4.9-2-7.3c-0.8-1.9-2.3-3.2-4.6-3.1c-2.3,0-3.7,1.3-4.6,3.2c-0.6,1.2-1.1,2.5-1.4,3.8
		C226.3,269.2,226.3,274.9,227.1,280.5z M375.9,305.3c-5.8,0-11.5,0-17.5,0c0.5-2.3,1-4.6,1.6-6.8c4.4-18.3,8.8-36.7,13.2-55
		c0.3-1.3,0.8-1.8,2.2-1.8c5.8,0.1,11.6,0,17.4,0c0.6,0,1.1,0,1.8,0c4.5,21.3,9,42.4,13.5,63.6c-5.9,0-11.7,0-17.6,0
		c-0.4-2.3-0.8-4.5-1.1-6.7c-0.1-1-0.5-1.3-1.5-1.3c-3.1,0-6.2,0.1-9.3,0c-1,0-1.4,0.4-1.5,1.3C376.7,300.8,376.3,303,375.9,305.3z
		 M379.7,283.8c2.5,0,4.9,0,7.4,0c-1.1-9-2.1-17.8-3.1-26.6c-0.1,0-0.2,0.1-0.3,0.1C382.3,266.1,381,274.8,379.7,283.8z
		 M135.9,305.2c-5.8,0-11.5,0-17.5,0c0.8-3.4,1.6-6.7,2.4-10c4.1-17.2,8.3-34.4,12.4-51.6c0.4-1.5,0.9-2.1,2.5-2
		c6.2,0.1,12.5,0,18.9,0c4.5,21.2,9,42.3,13.5,63.6c-6,0-11.7,0-17.6,0c-0.4-2.3-0.8-4.6-1.1-6.8c-0.1-0.9-0.5-1.2-1.4-1.2
		c-3.2,0-6.3,0.1-9.5,0c-1.1,0-1.3,0.5-1.5,1.4C136.7,300.8,136.3,302.9,135.9,305.2z M139.7,283.8c2.6,0,4.9,0,7.4,0
		c-1.1-9-2.1-17.8-3.1-26.6c-0.1,0-0.2,0-0.2,0C142.3,266,141,274.8,139.7,283.8z M132.6,226.8c0.7-2.9,1.4-5.8,2-8.7
		c4.2-17.6,8.5-35.3,12.7-52.9c0.4-1.5,0.9-2.1,2.5-2c6.2,0.1,12.5,0,18.9,0c4.5,21.3,9,42.3,13.5,63.6c-5.9,0-11.7,0-17.6,0
		c-0.4-2.2-0.8-4.5-1.1-6.8c-0.1-0.9-0.5-1.3-1.4-1.2c-3.2,0-6.3,0.1-9.5,0c-1.1,0-1.3,0.5-1.5,1.4c-0.3,2.2-0.7,4.3-1.1,6.6
		C144.3,226.8,138.5,226.8,132.6,226.8z M153.9,205.3c2.6,0,4.9,0,7.4,0c-1.1-9-2.1-17.8-3.2-26.6c-0.1,0-0.2,0-0.2,0
		C156.5,187.6,155.2,196.4,153.9,205.3z M375.5,226.9c-5.8,0-11.6,0-17.5,0c0.7-2.9,1.3-5.6,2-8.4c4.3-17.8,8.6-35.6,12.8-53.4
		c0.3-1.3,0.8-1.9,2.3-1.9c6.3,0.1,12.6,0,19.1,0c4.5,21.2,9,42.3,13.5,63.6c-6,0-11.7,0-17.6,0c-0.4-2.3-0.8-4.5-1.1-6.8
		c-0.1-0.9-0.4-1.3-1.4-1.3c-3.2,0-6.3,0.1-9.5,0c-1.1,0-1.3,0.5-1.5,1.4C376.4,222.4,375.9,224.6,375.5,226.9z M379.3,205.4
		c2.5,0,4.8,0,7.4,0c-1.1-9-2.1-17.8-3.2-26.6c-0.1,0-0.2,0-0.2,0C382,187.6,380.7,196.4,379.3,205.4z M177.5,305.4
		c4.7-0.1,9.5-0.1,14.2,0c1.3,0,1.7-0.4,2-1.6c5.5-20.2,10.9-40.3,16.4-60.5c0.1-0.5,0.2-1,0.3-1.7c-5.9,0-11.6,0-17.3,0
		c-1,0-1.2,0.5-1.3,1.3c-0.6,3.4-1.3,6.9-1.8,10.3c-1.2,7.4-2.4,14.7-3.6,22.1c-0.4,2.5-0.6,5.1-1,7.6c-0.1,0-0.2,0-0.2,0
		c-2-13.7-4-27.4-6-41.2c-6.1,0-11.9,0-17.9,0c0.1,0.6,0.1,1.1,0.3,1.7c0.7,3.2,1.5,6.5,2.2,9.7c3.9,16.9,7.8,33.7,11.6,50.6
		C175.7,304.9,176.2,305.4,177.5,305.4z M270.2,213.2c0-1.1-0.6-1.1-1.4-1.1c-3.2,0-6.4,0-9.6,0c-1.2,0-2.4,0-3.7,0
		c0-3.4,0-6.6,0-9.8c0.7,0,1.4-0.1,2.1-0.1c2.9,0,5.7,0,8.6,0c2.5,0,2.5,0,2.5-2.6c0-3.1,0-6.2,0-9.3c0-0.9,0-1.9,0-3
		c-4.6,0-8.9,0-13.3,0c0-2.3,0-4.5,0-6.6c0-2.5,0-2.5,2.4-2.5c3.7,0,7.3,0,11,0c1.1,0,1.5-0.3,1.5-1.4c-0.1-1.4,0-2.8,0-4.2
		c0-3,0-6,0-9.1c-10.8,0-21.3,0-31.9,0c0,21.2,0,42.3,0,63.5c10.6,0,21.2,0,31.9,0C270.2,222.2,270.2,217.7,270.2,213.2z M108.3,281
		c0.9,0,1.5-0.1,2.2-0.1c2.9,0,5.7,0,8.6,0c1.2,0,1.7-0.3,1.7-1.6c-0.1-2.5,0-5,0-7.4c0-1.9,0-3.8,0-5.9c-4.2,0-8.3,0-12.4,0
		c0-2.8,0.1-5.4,0-7.9c0-1.2,0.5-1.5,1.6-1.5c2.4,0,4.8,0,7.3,0c4.4,0,4.4,0,4.4-4.4c0-3.4,0-6.8,0-10.3c-10.3,0-20.2,0-30.2,0
		c0,21.2,0,42.4,0,63.5c5.7,0,11.2,0,17,0C108.3,297.2,108.3,289.2,108.3,281z M354.8,305.2c0-16.1,0-32.1,0-48.3c3.4,0,6.5,0,9.7,0
		c0-5.2,0-10.1,0-15.2c-12.2,0-24.2,0-36.2,0c0,5.1,0,10.1,0,15.3c2.5,0,4.9,0.1,7.2,0c1.7-0.1,2.2,0.3,2.2,2.1
		c-0.1,14.7,0,29.4,0,44.1c0,0.7,0,1.4,0,2C343.5,305.2,349,305.2,354.8,305.2z M205.9,163.4c0,21.2,0,42.3,0,63.5
		c10,0,19.8,0,29.9,0c0-4.7,0-9.3-0.1-13.9c0-0.3-0.8-0.8-1.3-0.8c-2.2-0.1-4.5,0-6.8,0c-1.6,0-3.1,0-4.9,0c0-16.4,0-32.6,0-48.7
		C217.1,163.4,211.5,163.4,205.9,163.4z M308.7,305.3c5.7,0,11.2,0,16.9,0c0-21.3,0-42.4,0-63.5c-5.7,0-11.3,0-16.9,0
		C308.7,263,308.7,284.1,308.7,305.3z M200.5,163.4c-5.7,0-11.3,0-16.9,0c0,21.2,0,42.3,0,63.5c5.7,0,11.2,0,16.9,0
		C200.5,205.6,200.5,184.5,200.5,163.4z M301.3,195.8c1.8-1.3,3.7-2.6,5.5-4c-2.7-0.3-5.2-0.4-7.7-0.3c-1.7,0.1-2.5-0.4-3-2.1
		c-0.8-2.9-1.9-5.7-3-9c-1.2,3.4-2.3,6.3-3.3,9.3c-0.4,1.1-0.9,1.6-2.2,1.5c-2.8-0.1-5.7,0-9,0c2.8,2,5.1,3.8,7.5,5.5
		c1,0.7,1.2,1.4,0.8,2.5c-0.7,2.1-1.3,4.3-1.9,6.5c-0.2,0.7-0.4,1.4-0.6,2.1c2.2-1.2,4-2.6,5.9-3.9c2.8-2.1,2.8-2.1,5.5,0
		c1.9,1.4,3.8,2.8,6.1,4.5c-0.9-2.9-1.6-5.2-2.3-7.6C298.7,197.7,298.7,197.7,301.3,195.8z"/>
</g>
</svg>
