<svg id="Layer_1" data-name="Layer 1" xmlns="http://www.w3.org/2000/svg" viewBox="0 0 500 500"><defs><style>.cls-1{fill:#626262;}</style></defs><title>Untitled-1</title><path class="cls-1" d="M400.19,298c-2.4.71-4.78,1.51-7.21,2.13C370,306,349.3,302,331.74,285.32c-7.86-7.47-13.93-16.31-19.12-25.78-2.26-4.13-4.36-8.35-6.54-12.52l-.93.08c.59,12.59,1.18,25.18,1.79,38-2-.85-4.22-1.61-6.27-2.68-2.69-1.41-5-1-7.49.6a80.6,80.6,0,0,1-12.59,6.37c8.56-13.37,12.5-27.92,13-43.49A76.72,76.72,0,0,0,282,201.83l27.63,0C307.08,225.2,319,244,331.52,262.6c0-20.64,1.22-41.31-3.91-61.6h25.53c-.88,3.2-1.64,6.41-2.66,9.54-3.69,11.37-4.84,23.12-4.9,35s.27,23.85.6,35.78a5.75,5.75,0,0,0,2,3.66c8.71,7.57,19.25,10.81,30.46,11.7,7.1.56,14.29.11,21.44.11Z"/><path class="cls-1" d="M56.08,280.86c6.56-5.25,6.68-12.2,6.71-19.1.05-10.75-.07-21.49-.14-32.24-.06-9.59-.13-19.18-6.73-27.94a56.84,56.84,0,0,0,27.46-2.43,14,14,0,0,1,11.42.62,43.27,43.27,0,0,0,24.39,3.39c-4.76,10.65-4.85,21.22-1.17,32.34l-16.88,6.06,18,3.21c-.74,13.32-1.93,26.61,1.57,40-3.69.64-7.4,1-11,2-6.11,1.6-12.12,3.6-18.21,5.3-1.1.31-2.67.46-3.5-.1C78.54,285.6,68,282.65,56.08,280.86ZM79,248.43c0,7.73,0,15.33.07,22.94,0,.71,1,1.66,1.8,2.08a75.59,75.59,0,0,0,7.84,3.68,4.77,4.77,0,0,0,3.39,0c2.8-1.35,5.46-3,8.12-4.59.66-.39,1.55-1.13,1.56-1.73.12-6.61.08-13.23.08-19.61Zm1.29-37.27v25.62a44.16,44.16,0,0,0,19.32-6.28,2.57,2.57,0,0,0,1.07-1.8c.09-4.58,0-9.16,0-13.25Z"/><path class="cls-1" d="M188.17,294.5c-3.18-3.82-6.33-7.46-9.27-11.25a6,6,0,0,1-1-3.5c.08-6.54.14-13.1.57-19.63.23-3.4-1.06-5.4-3.63-7.5-2.92-2.39-5.21-2.86-8.35-.58s-8.19,3.56-10,6.65-.73,7.94-.65,12c.11,5,.5,10.05.75,14.65-3.85,0-7.75-.13-11.65,0s-7.67.64-12.1,1c6.32-6.16,6.83-13.74,7-21.57.17-11.16.83-22.32,1-33.48a70.58,70.58,0,0,0-.82-13.48c-.79-4.54-2.47-8.94-3.62-13,6.92-1.61,14.73-2.75,22-5.36a17.27,17.27,0,0,1,13.32.24c7.86,3.09,16,5.41,23.41,7.85-.05,8.77-.06,17.63-.24,26.48a3.78,3.78,0,0,1-1.81,2.48c-2.46,1.48-5.07,2.71-8.1,4.28,3.44,1.76,6.45,3.15,9.27,4.84a4.23,4.23,0,0,1,1.87,2.86c.68,10.7,1.22,21.4,1.71,32.1a5.11,5.11,0,0,1-.82,3.16C194.18,287.48,191.15,291,188.17,294.5Zm-32.51-82.58,0,29.58c7-3.61,13.7-7,20.32-10.5a2.36,2.36,0,0,0,1.09-1.7c.09-4.37,0-8.73,0-12.7Z"/><path class="cls-1" d="M444.08,285.25c-5.3-1.29-10.53-2.35-15.62-3.87-3-.91-5.61-1.19-8.54.41-2.49,1.36-5.38,2-8.59,3.08,0-11.39-3.33-21.43-8.26-32-2.47,5.83-4.65,10.92-6.79,16-2,4.65-3.84,9.34-5.89,13.95a3.21,3.21,0,0,1-2.16,1.75c-8.76.12-17.52.08-27,.07,3.89-4.6,7.53-8.51,10.7-12.77,6.35-8.51,12.44-17.21,18.62-25.84,1.46-2,1.42-3.93,0-6.19-6.5-10.49-12.75-21.13-19.27-31.61-1.62-2.61-3.9-4.8-6.1-7.45a37.23,37.23,0,0,1,16.68,2,8.6,8.6,0,0,0,4.35-.13c3.39-.68,6.75-1.56,10.65-2.48-2.55,12.26,2.45,21.9,7.53,31.82,2.62-6.06,5.29-12.11,7.84-18.2,1.54-3.66,2.84-7.42,4.4-11.07.36-.82,1.35-1.94,2.06-2,8.23-.13,16.46-.08,24.87-.08-.18.59-.18.94-.36,1.14-10.68,11.78-18.59,25.48-26.92,38.88A3.76,3.76,0,0,0,416,244c4.35,7.9,8.46,16,13.47,23.44C433.6,273.57,438.85,279,444.08,285.25Z"/><path class="cls-1" d="M271.2,205.51c-3.52,25.85-3.12,51.62-1.25,77.85-3,.83-6.4,1.73-9.75,2.71-5.57,1.61-11.11,4.52-16.67,4.55s-11.06-2.9-16.62-4.41c-4.95-1.36-9.95-2.56-14.95-3.84a369.22,369.22,0,0,0,.73-77.75c8.52-2.27,17.79-4.76,27.07-7.21a4,4,0,0,1,1.9.05C251.58,200.15,261.5,202.86,271.2,205.51Zm-15.79,38.78h-.51c.38-8.79.66-17.59,1.21-26.38.16-2.49-.56-3.75-2.91-4.43-3.71-1.07-7.35-2.38-11.06-3.44a5.53,5.53,0,0,0-3.07.11,91,91,0,0,0-9.06,3.34,3.7,3.7,0,0,0-2,2.6c-.25,17.93-.33,35.87-.52,53.8,0,2,.76,2.91,2.61,3.78,7.56,3.54,15,5.39,22.88.78,1.7-1,2.49-1.63,2.46-3.74C255.3,261.9,255.4,253.09,255.41,244.29Z"/></svg>