<?xml version="1.0" encoding="utf-8"?>
<!-- Generator: Adobe Illustrator 22.1.0, SVG Export Plug-In . SVG Version: 6.00 Build 0)  -->
<svg version="1.1" id="Layer_1" xmlns="http://www.w3.org/2000/svg" xmlns:xlink="http://www.w3.org/1999/xlink" x="0px" y="0px"
	 viewBox="0 0 500 500" style="enable-background:new 0 0 500 500;" xml:space="preserve">
<style type="text/css">
	.st0{fill:#626262;}
	.st1{fill:#FFFFFF;}
	.st2{clip-path:url(#XMLID_2_);fill:#626262;}
	.st3{clip-path:url(#XMLID_3_);fill:#626262;}
	.st4{clip-path:url(#XMLID_4_);fill:#626262;}
</style>
<path class="st0" d="M444.9,244.5c-3.9-2-7.9-3.6-11.9-5.5c-2.7-1.3-5.5-2.5-7.8-4.4c-1.8-1.5-2.6-3.5-2.1-5.8
	c0.5-2.2,2.2-3.3,4.2-3.9c2.3-0.7,4.7-0.4,7-0.4c1.3,0,1.8-0.4,1.8-1.7c0-5.8-0.1-11.6,0-17.3c0-1.5-0.7-1.8-2-1.8
	c-2.6,0.1-5.2,0-7.8,0.2c-8.1,0.7-15.7,2.9-21.3,9.3c-0.9,1-1.4,0.6-2.2-0.1c-5-4.6-10.9-7-17.6-7.9c-9.2-1.2-18.4-0.5-27.6-0.7
	c-3.3-0.1-3.3,0-3.3,3.2c0,17.6,0,35.2,0,52.8c0,8.1-2.3,15.4-7.2,21.8c-0.5,0.7-0.9,1.6-2.1,1.9c-0.5-1-0.3-2-0.3-2.9
	c0-16.2,0-32.4,0-48.5c0-8.6,0-17.3,0-25.9c0-1.6-0.3-2.4-2.2-2.4c-6.4,0.1-12.7,0.1-19.1,0c-1.5,0-2.1,0.5-2,2
	c0.1,5.7,0.1,11.4,0,17.1c0,1.4,0.5,1.9,1.9,1.9c3.3-0.1,6.5,0,9.8,0c1.3,0,2,0.3,2,1.8c-0.1,11.6,0.1,23.3-0.2,34.9
	c-0.2,9-8.8,15.9-17.8,14.7c-8.2-1-14-7.6-14-16c-0.1-17.9,0-35.9,0-53.8c0-2-0.5-2.6-2.6-2.6c-4.9,0.1-9.7,0.1-14.6,0
	c-1.7,0-2.4,0.4-2.3,2.3c0.1,3.1,0.1,6.2,0,9.3c0,0.6,0.6,2-1.1,1.4c-0.4-0.4-0.7-0.9-1.2-1.3c-13.6-12.7-34.8-15.5-51.7-6.8
	c-17.1,8.7-27.2,27.5-24.9,46.1c0.9,7.5,3.6,14.4,7.5,20.8c-2.2,0-4.4,0.1-6.5,0.1c-4,0-3.6,0.5-3.6-3.6c0-21.5,0-43.1,0-64.6
	c0-1.7,0-2.8-2.3-2.8c-6,0.2-12.1,0.1-18.1,0c-1.4,0-1.9,0.5-1.9,1.9c0.1,3.2,0,6.4,0,9.6c0,0.8,0.4,1.9-0.8,2.4
	c-0.3-0.4-0.6-0.8-1-1.2c-15.8-16.2-41.5-18.3-60-4.8c-1.6,1.2-2.5,1.4-4.2,0.1c-20.8-15.5-50.6-10.4-65.2,11.1
	c-14.8,21.7-8.7,51.1,13.4,65c16,10.1,36.7,9.4,52-2c1.5-1.1,2.4-1.1,3.8,0c2.7,2.2,5.9,3.9,9.1,5.3c18,7.7,40.2,3,52-11.1
	c1.3,0.4,0.8,1.5,0.8,2.3c0.1,3,0.1,6,0,9c-0.1,1.8,0.4,2.4,2.4,2.4c17.8-0.1,35.6,0,53.5-0.1c0.8,0,1.7,0.4,2.2-0.7
	c-9.5-2.9-17.4-8.2-23.6-16c-0.5-0.7-1.4-1.3-1.1-2.4c7.4,0.1,14.7,0.2,22.1,0.1c2.1,0,2.7,0.6,2.6,2.7c-0.1,5.2-0.1,10.4-0.1,15.5
	c4.9,1.4,9.8,2.1,14.9,1.7c11.5-0.7,21.7-4.7,29.9-13c1.2-0.8,2.1-1.8,2.9-3c0.1,0,0.2-0.1,0.2-0.2c0.3-0.4,0.7-0.8,1-1.3
	c0.5-0.3,1-0.7,1.4-1c4.5,8.5,11.5,14.2,20.6,16.9c13.4,3.9,25.2,0.6,35.9-9.2c0,2.6,0.1,4.6,0,6.5c-0.1,1.9,0.6,2.4,2.5,2.4
	c5.8-0.1,11.6-0.1,17.3,0c2,0,2.6-0.6,2.6-2.6c-0.1-6.9-0.1-13.7,0-20.6c0-0.8-0.4-1.8,0.7-2.6c0.6,0.8,1.2,1.5,1.8,2.2
	c5.5,7.3,11.1,14.5,16.6,21.8c0.8,1.1,1.6,1.7,3.1,1.7c7.9-0.1,15.8-0.1,23.6,0c1.5,0,2.7-0.8,4.3-0.4c9.3,2.4,18.3,1.4,27-2.3
	c7.7-3.3,12.5-9.5,14.6-17.5C461.6,262.6,455.7,250.1,444.9,244.5z M104,229.7c2.7-4.9,5.9-9.3,9.9-13.2c1.5-1.5,2.5-1.6,4.1,0
	c2.3,2.4,2.4,2.3,0.1,4.4c-4.6,4.2-7.9,9.2-10.2,15c-0.2,0.6-0.2,1.4-1.1,1.6c-0.7-0.8-1.2-1.8-2-2.5
	C102.7,233.5,102.8,231.9,104,229.7z M118.9,283.3c-3.6,3.2-2.6,3-5.8,0c-4.1-3.8-7.3-8.3-9.6-13.4c-0.8-1.7-1.3-1.8-2.8-0.7
	c-8,6-18.3,6.4-26.7,1.2c-8.3-5.1-12.5-14.6-10.8-24.2c1.7-9.6,9-17.1,18.7-19c6.6-1.3,12.8,0.1,18.4,4c1.6,1.1,1.9,2.1,1.3,3.9
	c-3.5,10.1-3.5,20.2-0.1,30.3c0.8,2.4,1.1,2.5,2.8,0.5c0.4-0.5,0.8-1.1,1.3-1.6c0.4-0.4,0.5-1.1,1.3-1.2c1,2.1,1.9,4.2,2.9,6.3
	c2.2,4.2,5.1,7.9,8.7,10.9C120.1,281.5,120.2,282.1,118.9,283.3z M145.3,274c-13,0.1-23.7-10.6-23.7-23.6
	c0-13.1,10.5-23.6,23.6-23.7c13.1,0,23.7,10.5,23.7,23.6C169,263.4,158.4,274,145.3,274z M181.1,279.3c-0.3,0.4-0.7,0.6-1.1,1
	c0-20,0-39.9,0-59.9c5.5,5.7,8.7,12.6,10.3,20.3C193.3,254.9,190,267.8,181.1,279.3z M251.1,274c-12.9,0.3-23.8-10.2-24.1-23.3
	c-0.3-13,10.1-23.8,23.3-24c13.1-0.3,23.8,10.1,24,23.2C274.5,263,264.2,273.7,251.1,274z M288.2,277c-2.6-3.1-3.2-6.9-4-10.7
	c-0.2-1.2-0.4-2.4-0.5-3.7c0-13.6,0.1-27.1,0.1-40.7c0-0.9,0-1.8,0-2.8c4.2,2.2,9.8,12.1,11.7,20.8C298.5,253.4,296,265.8,288.2,277
	z M379.4,248.3c-2.1,0.4-4.2,0.2-5.8,0.3c-6.6,0-6.6,0-6.6-6.2c0-5.3,0.1-10.6,0-15.8c0-1.8,0.4-2.6,2.4-2.5
	c3.1,0.2,6.2-0.1,9.3,0.3c6.8,0.9,10.4,4.9,10.6,11.8C389.4,243.1,386.3,247,379.4,248.3z M398,273.1c5,6.3,10.1,12.7,15.4,19.3
	C405.5,290.3,398.6,281.7,398,273.1z M435.5,272.6c-1.4,2.9-4.6,4.6-8.2,4.2c-3.1-0.4-5.5-2.4-6.3-6c-0.4-1.9-1.2-2.4-3.1-2.3
	c-5.9,0.1-11.7,0-17.6,0c-1.8,0-4.1-0.6-3.7,2.8c-1.4-1.7-2.8-3.5-4.2-5.2c-1.1-1.3,0.1-1.5,0.9-1.9c4-2,7.7-4.5,10.8-7.7
	c0.8-0.8,1.5-1.6,2.2-2.5c2.7-3.4,2.7-3.5-0.5-6.4c-10.2-9.1-8.2-23.5-2.6-32c0.9-1.3,1.5-0.9,2.2,0c2.7,3.2,4.7,6.7,5.7,10.8
	c1.9,7.5,1.6,14.8-1.6,21.9c-0.7,1.6-0.4,2.2,0.9,2.9c5.6,3.3,11.5,5.8,17.4,8.4c2.2,0.9,4.3,1.8,6,3.6
	C436.3,265.8,436.9,269.5,435.5,272.6z"/>
</svg>
