<svg id="Layer_1" data-name="Layer 1" xmlns="http://www.w3.org/2000/svg" viewBox="0 0 500 500"><defs><style>.cls-1{fill:#626262;}</style></defs><title>Untitled-1</title><path class="cls-1" d="M432.08,285.66a12.09,12.09,0,0,1-1.59,1.92,10.51,10.51,0,0,1-3.86,2.42,18.6,18.6,0,0,1-5.56,1.5l-.6.08c-2.58.22-4.41.19-4.41.19-7.22-.42-9.89-2.55-10.74-4.64,1.49,0,3.44,0,4.83,0a34.36,34.36,0,0,0,6.09-.94,42.64,42.64,0,0,0,6.62-2.23,32.1,32.1,0,0,0,6.72-4,14,14,0,0,0,3.2-3.34,17.58,17.58,0,0,0,1.63-2.73c4.11-7.9-7.87-9.33-7.87-9.33C404.17,262.28,396,277.91,396,277.91a13.11,13.11,0,0,0-1.8,4c-11.61,10.32-16.82,9.28-16.82,9.28-3.16-.36-3.05-2.72-2.85-3.72.18-.47.4-1,.66-1.49.18-.31.38-.62.61-.95,0,0,3.87-6.78,13.1-15.39l.53-.57s4.8-4.73-4.56-5.15H384l-.67,0-.93,0c-1,.06-2.47.08-3.91.15s-2.16-.07-2.55-.1a23.33,23.33,0,0,0,2.62-6.34s2.37-6.79-7.63-9.55c0,0-6.23-2.32-11.11,1.35A7.07,7.07,0,0,0,357.1,257a10.83,10.83,0,0,0,2.5,5.52s-.1-.17-.25-.48c0,.09.12.17.17.26a14.38,14.38,0,0,0,4.75,4.7L360.64,272S353,281.56,350,284.54c0,0-4.63,4.9-7.83,4l-.06,0a1.56,1.56,0,0,1-.5-1.57L349,272.1l1.11-2.53h0s.87-2.05-4-1.78c0,0-6.42-.21-7.36,1.26l-5.22,9.53-.08-.07s-3.5,7.24-8.92,11.15c0,0-4.87,4.3-7.82,2.75a2.13,2.13,0,0,1-1.36-2.58c.11-.38.24-.77.4-1.21a2.72,2.72,0,0,1,.11-.25L325,271.65l.51-1a.59.59,0,0,0,.09-.4c.07-.28.27-1.91-5.05-1.6,0,0-6.35-.15-7.4,1.85l-1.48,2.65-1.51,2.49q-1.23,2.06-2.35,4.16c-.48.9-.95,1.73-1.41,2.52l.14-.33s-.11.22-.32.58l0,0a9.88,9.88,0,0,0-1.23,2c-2.43,3.8-7.28,10.36-11.85,10.36,0,0-4.63.36-5.67-2.55V292l0-.4.14-.64.22-.73.53-1.09,11.92-21.38h0l.07-.18.29-.5c.54-.83,1.17-2.69,4.76-2.89h0l43.45-1.29a4.07,4.07,0,0,0,.95-.22l0,0s3-.72,3.26-3.56c0,0,.42-2.09-3.16-2.06l-43.93.81.09-.21a2.57,2.57,0,0,0,.41-3.6l0,0c-1.21-1.6-4-2.41-4-2.41a7.83,7.83,0,0,0-8.72,3.28l-1.91,2.87-10.76.65c1.42-2.42,2.85-5,4.32-7.72,0,0,3.16-5.39,8.51-16.74a97.67,97.67,0,0,0,5.32-13.35,55.11,55.11,0,0,0,1.41-6.84c.75-5.55-1.11-8.09-1.67-8.94a10,10,0,0,0-5.18-3.76s-17-7.58-37.29,40.42l-2.26,5.92L252,254s-7,21.24-4.6,35.27a27.72,27.72,0,0,1-17.86,1.38,11.41,11.41,0,0,1-3.09-1.06,59.93,59.93,0,0,0,9.17-11.13l-.09.11c.84-1.32,1.32-2.21,1.32-2.21a30,30,0,0,0,1.91-4.78,25.66,25.66,0,0,1-3.14,6.88,25.69,25.69,0,0,0,5.69-11.55c2.14-15-11.49-15.64-11.49-15.64l-.12,0c-14.41-1.4-29.35,10.4-29.35,10.4-14.86,11.93-16.57,25.68-16.57,25.68a19.83,19.83,0,0,0-.27,2.43,16,16,0,0,1-9.54,1,11.38,11.38,0,0,1-3.91-1.34A65.27,65.27,0,0,0,179.55,277l-.08.09.22-.38-.14.29a27.8,27.8,0,0,0,5.63-12.62c1-15.52-12.81-16.27-12.81-16.27l-.26,0c-15.36-.82-30.74,12.37-30.74,12.37a51,51,0,0,0-15.22,22.06c-21.48,14.77-42.9,13.74-42.9,13.74-17.72.22-11.73-17.53-9.4-23.71s9.62-16.44,9.62-16.44A131.89,131.89,0,0,1,108,232.41c23.56-16.72,39.79-16.74,39.79-16.74,10.16.28,4.43,5.22,4.43,5.22l-17.89,12c-9.68,6.74-6,16.38-6,16.38,22.81-21.26,80.45-13.46,80.45-13.46,6.83.43,13,.91,13,.91,20.61,1.7,24.5-9.51,24.5-9.51,5.22-9.23,0-17.23-4.32-19.74a13.8,13.8,0,0,0-1.72-.9,16.12,16.12,0,0,0-3.39-1l.18.07a5.38,5.38,0,0,0-2.46.06h0c-.62.27-.63.41-.63.41,5.11,5.74.32,13.68.32,13.68-4.13,7.44-26.5,5.69-26.5,5.69-32-1.14-49.14,2.7-55.84,3.91,5-3,21.62-13.68,18.23-26.15,0,0-3.74-15.65-27-11.38,0,0-26.26,5.22-58.28,34.5s-32.29,55.88-32.29,55.88-4.66,23.64,22,26.48c0,0,28.28,3.63,49.93-16.4.45,11.52,11.42,14.36,11.42,14.36C147.45,309,158,299.94,158,299.94a82,82,0,0,0,7.71-6.22,10.8,10.8,0,0,0,1.27.59,22.66,22.66,0,0,0,16.82-.39c1.78,8.17,9.9,10.59,9.9,10.59,10.74,2.59,20.93-5.43,20.93-5.43,2-1.29,3.82-2.63,5.52-4a19.83,19.83,0,0,0,3.49,2.06c11.83,5.19,20.82,1.56,25.74-1.71a11.72,11.72,0,0,0,2.32,3s9.46,9.7,23.53-.06a10.26,10.26,0,0,0,3.47,2.13c14.6,5.35,23.43-3.7,24.39-4.74a4.17,4.17,0,0,0,.6,1.1s4.31,7,19.89,2.51c0,0,4-1.53,5.41-2.89,0,0,6.13,4.12,12.23,2.56,0,0,5.6-1,11.66-6.3l-.27.16.73-.61.65-.47s4.52-4.17,5-4.92h0l.18-.21c.46-.5.88-1,1.27-1.46.72-.88,1.31-1.56,1.74-2h0c.48-.59,1.28-1.6,2.39-3A123.8,123.8,0,0,0,372.24,270c2.49.51,4.48,1.12,4.74,1.15h.1l1.36.61a1.9,1.9,0,0,0,.31.09h0c-3.69,3.49-8.19,8.13-10.57,12-4.12,6.79-4,11.18,1.32,14.11,0,0,11.06,5.2,26.07-7.31a12.55,12.55,0,0,0,1.71,2.35c4.41,4.05,11.44,5.13,17.3,5.21-.3-.15,0,0,0,0,15.66-.16,21.83-9.05,22.38-13.58l0,.05a.76.76,0,0,0,0-.11C436.65,284.87,432.31,285.3,432.08,285.66Zm-11.52-8.42a20,20,0,0,1-7.1,3.4,29.51,29.51,0,0,1-7.21,1A32.5,32.5,0,0,1,415.5,272a16,16,0,0,1,1.7-.86,9.78,9.78,0,0,1,3.71-.9q3.39-.06,3.24,2.16C424.06,273.88,422.86,275.49,420.56,277.24ZM367.19,260l0,0a8.2,8.2,0,0,1-.85-1.26c-.1-.19-.19-.38-.27-.56l-.09-.22c0-.1-.08-.2-.11-.3s-.08-.23-.11-.35a2.5,2.5,0,0,1-.07-.26c-.1-.6-.38-3.31,2.3-3.41a2.24,2.24,0,0,1,2,2.4,18.32,18.32,0,0,1-1.67,5.1,7.57,7.57,0,0,1-.81-.74C367.4,260.23,367.29,260.12,367.19,260Zm-42,9.7a2.5,2.5,0,0,0-.34-.23l.13.07A1.16,1.16,0,0,1,325.18,269.69ZM261.37,295.6a5.49,5.49,0,0,1-5.61-5.14c5.15-4.18,12.53-11.8,21.15-25.33,1.18.06,2.65.08,4.49,0l6.18-.25-.38.68-12.47,23.1c-.14.24-.27.48-.39.71C269.42,296.16,261.37,295.6,261.37,295.6Zm-7.05-17.77c.62-2.76,1.59-6.19,2.69-9.7,2.23-6.73,4.43-12.62,6.53-17.75,1.81-4.2,5.16-11.7,9.2-19.35a68,68,0,0,1,6.78-10.41c7.48-10.19,11.37-6.21,11.37-6.21,3.21,2.1-1.36,12.42-1.36,12.42-4.14,9.88-8.8,18.43-8.8,18.43-2.91,5.3-5.6,10-8.13,14.19-2.51.72-2.54,1.93-1.85,3-6.63,10.64-12.1,17.54-17.32,22.14l-.68.6C253.13,282.65,253.83,280.17,254.32,277.83Zm-56.81,14.52s-1.06-4.67,8.6-13.6a34.66,34.66,0,0,1,5.51-4.06c-.2,1.82-.2,3-.2,3a19.29,19.29,0,0,0,3.87,12.71c-3.25,1.65-9.18,4.3-13.74,4.35C201.55,294.73,197.88,295.14,197.51,292.35Zm34.31-16.52a31.31,31.31,0,0,1-9.2,9.82,7.7,7.7,0,0,1-.72-2.74c0-7.73,7.63-12.65,7.63-12.65,2.71-1.3,3.68-.25,3.87.77a4.63,4.63,0,0,1-.17,1.59c-.15.46-.41,1.18-.59,1.62A10.84,10.84,0,0,1,231.82,275.83Zm-92.3,17.61s-1.31-5,8.65-14.94a34.37,34.37,0,0,1,6.84-5.21c-.08,1.5,0,2.41,0,2.41a21,21,0,0,0,5.33,13.78c-2.22,1.34-10.35,6-16.38,6.34C143.91,295.82,140,296.41,139.52,293.44Zm26.54-8.26a9.87,9.87,0,0,1-.92-2.87c-.24-8.28,7.67-13.87,7.67-13.87,2.83-1.51,3.9-.43,4.14.66a5,5,0,0,1-.12,1.71c-.14.5-.4,1.28-.57,1.77a10.9,10.9,0,0,1-.81,1.73A33.8,33.8,0,0,1,166.06,285.18Z"/></svg>