<svg id="Layer_1" data-name="Layer 1" xmlns="http://www.w3.org/2000/svg" viewBox="0 0 500 500"><defs><style>.cls-1{fill:#626262;}</style></defs><title>Untitled-1</title><path class="cls-1" d="M117.91,276.15v-7.56a1.44,1.44,0,0,0-1.62-1.63H81.34a19.71,19.71,0,0,1-4.86-.49,6.18,6.18,0,0,1-3-1.62,6.41,6.41,0,0,1-1.53-3,21.08,21.08,0,0,1-.45-4.77v-8a21.25,21.25,0,0,1,.45-4.73,6.41,6.41,0,0,1,1.53-3.06,6.18,6.18,0,0,1,3-1.62,19.65,19.65,0,0,1,4.86-.5h35a1.43,1.43,0,0,0,1.62-1.62V230a1.44,1.44,0,0,0-1.62-1.63H80.08a42.52,42.52,0,0,0-10.22,1,15.36,15.36,0,0,0-6.57,3.24,12.28,12.28,0,0,0-3.56,5.68,28.22,28.22,0,0,0-1.08,8.33v13a28.22,28.22,0,0,0,1.08,8.33,12.25,12.25,0,0,0,3.56,5.67,14.88,14.88,0,0,0,6.57,3.2,44.41,44.41,0,0,0,10.22,1h36.21A1.43,1.43,0,0,0,117.91,276.15Z"/><path class="cls-1" d="M182.63,232.6a15.45,15.45,0,0,0-6.62-3.24,42.75,42.75,0,0,0-10.18-1H140.34a42.47,42.47,0,0,0-10.22,1,15.34,15.34,0,0,0-6.58,3.24,12.36,12.36,0,0,0-3.56,5.68,28.22,28.22,0,0,0-1.08,8.33v13a28.22,28.22,0,0,0,1.08,8.33,12.33,12.33,0,0,0,3.56,5.67,14.87,14.87,0,0,0,6.58,3.2,44.35,44.35,0,0,0,10.22,1h25.49a44.64,44.64,0,0,0,10.18-1,15,15,0,0,0,6.62-3.2,12.31,12.31,0,0,0,3.55-5.67,27.87,27.87,0,0,0,1.09-8.33v-13a27.87,27.87,0,0,0-1.09-8.33A12.34,12.34,0,0,0,182.63,232.6Zm-8.15,24.73a21.67,21.67,0,0,1-.45,4.77,6.28,6.28,0,0,1-1.58,3,6.5,6.5,0,0,1-3,1.62,19.71,19.71,0,0,1-4.86.49h-23a19.26,19.26,0,0,1-4.77-.49,6.5,6.5,0,0,1-3-1.62,6.2,6.2,0,0,1-1.58-3,21.08,21.08,0,0,1-.45-4.77v-8.56a20.59,20.59,0,0,1,.45-4.68,6.51,6.51,0,0,1,1.58-3.07,6,6,0,0,1,3-1.62,21.08,21.08,0,0,1,4.77-.45h23a21.58,21.58,0,0,1,4.86.45,6,6,0,0,1,3,1.62,6.6,6.6,0,0,1,1.58,3.07,21.18,21.18,0,0,1,.45,4.68Z"/><path class="cls-1" d="M238.29,266.33a6,6,0,0,1-3.92,1H191.68a1.43,1.43,0,0,0-1.62,1.62v7.21a1.43,1.43,0,0,0,1.62,1.62h46.11a22.36,22.36,0,0,0,6.67-.85,10.85,10.85,0,0,0,4.37-2.48,9.18,9.18,0,0,0,2.38-4,18.1,18.1,0,0,0,.73-5.32v-5q0-5.76-3.25-8.92t-10.81-3.15H207.53c-1.86,0-3.15-.35-3.87-1a3.73,3.73,0,0,1-1.08-2.83v-1.35a4,4,0,0,1,1.08-3c.72-.69,2-1,3.87-1h40.62a1.43,1.43,0,0,0,1.62-1.62V230a1.44,1.44,0,0,0-1.62-1.63h-44a22.38,22.38,0,0,0-6.67.86,10.85,10.85,0,0,0-4.37,2.48,9.19,9.19,0,0,0-2.38,3.91,17,17,0,0,0-.72,5.09v4q0,5.94,3.24,9.05t10.81,3.11h30.26a6,6,0,0,1,3.92,1,3.52,3.52,0,0,1,1.13,2.79V263A4.25,4.25,0,0,1,238.29,266.33Z"/><path class="cls-1" d="M332.64,277.77h8.82a1.76,1.76,0,0,0,2-2V246.61a29.35,29.35,0,0,0-1-8.33,11.89,11.89,0,0,0-3.56-5.68,15.74,15.74,0,0,0-6.62-3.24,42.07,42.07,0,0,0-10.13-1h-46a42.52,42.52,0,0,0-10.22,1,15.46,15.46,0,0,0-6.58,3.24,12.34,12.34,0,0,0-3.55,5.68,28.22,28.22,0,0,0-1.08,8.33v29.18q0,2,2.07,2h8.82a1.76,1.76,0,0,0,2-2V249.67a21.25,21.25,0,0,1,.45-4.73,6.2,6.2,0,0,1,1.57-3.06,6.5,6.5,0,0,1,3-1.62,19.21,19.21,0,0,1,4.77-.5h15.32v36a1.75,1.75,0,0,0,2,2h8.82c1.38,0,2.08-.66,2.08-2v-36h15.85a18.55,18.55,0,0,1,4.77.5,5.57,5.57,0,0,1,2.79,1.62,6.37,6.37,0,0,1,1.36,3.06,27.47,27.47,0,0,1,.35,4.73v26.12A1.76,1.76,0,0,0,332.64,277.77Z"/><path class="cls-1" d="M360.74,212a1.75,1.75,0,0,0-2-2h-8.83q-2.07,0-2.07,2v8.56a1.83,1.83,0,0,0,2.07,2.07h8.83q2,0,2-2.07Z"/><path class="cls-1" d="M358.76,228.32h-8.83c-1.32,0-2,.69-2,2.08v45.39a1.75,1.75,0,0,0,2,2h8.83a1.75,1.75,0,0,0,2-2V230.4C360.74,229,360.08,228.32,358.76,228.32Z"/><path class="cls-1" d="M420.9,228.32H384.7a42.55,42.55,0,0,0-10.23,1,15.36,15.36,0,0,0-6.57,3.24,12.36,12.36,0,0,0-3.56,5.68,28.22,28.22,0,0,0-1.08,8.33v13a28.22,28.22,0,0,0,1.08,8.33,12.33,12.33,0,0,0,3.56,5.67,14.88,14.88,0,0,0,6.57,3.2,44.44,44.44,0,0,0,10.23,1h36.2a1.43,1.43,0,0,0,1.62-1.62v-7.56A1.44,1.44,0,0,0,420.9,267H386a19.8,19.8,0,0,1-4.87-.49,6.18,6.18,0,0,1-3-1.62,6.41,6.41,0,0,1-1.53-3,21.08,21.08,0,0,1-.45-4.77v-8a21.25,21.25,0,0,1,.45-4.73,6.41,6.41,0,0,1,1.53-3.06,6.18,6.18,0,0,1,3-1.62,19.74,19.74,0,0,1,4.87-.5H420.9a1.43,1.43,0,0,0,1.62-1.62V230A1.44,1.44,0,0,0,420.9,228.32Z"/><path class="cls-1" d="M439.37,265.16h-8.82c-1.39,0-2.08.66-2.08,2v8.65c0,1.32.69,2,2.08,2h8.82a1.75,1.75,0,0,0,2-2v-8.65A1.75,1.75,0,0,0,439.37,265.16Z"/><path class="cls-1" d="M386.83,298.92a147.31,147.31,0,0,1-277.89,0H98.6c1.35,4.13,2.88,8.22,4.57,12.21a157.15,157.15,0,0,0,289.42,0c1.69-4,3.22-8.08,4.58-12.21Z"/><path class="cls-1" d="M108.93,201.08a147.32,147.32,0,0,1,277.9,0h10.34c-1.36-4.13-2.89-8.21-4.58-12.21a156.44,156.44,0,0,0-14.48-26.68A157.41,157.41,0,0,0,309,105.29a157.23,157.23,0,0,0-205.85,83.58c-1.69,4-3.22,8.08-4.57,12.21Z"/></svg>