<?xml version="1.0" encoding="utf-8"?>
<!-- Generator: Adobe Illustrator 22.1.0, SVG Export Plug-In . SVG Version: 6.00 Build 0)  -->
<svg version="1.1" id="Layer_1" xmlns="http://www.w3.org/2000/svg" xmlns:xlink="http://www.w3.org/1999/xlink" x="0px" y="0px"
	 viewBox="0 0 500 500" style="enable-background:new 0 0 500 500;" xml:space="preserve">
<style type="text/css">
	.st0{fill:#626262;}
	.st1{fill:#FFFFFF;}
	.st2{clip-path:url(#XMLID_2_);fill:#626262;}
	.st3{clip-path:url(#XMLID_3_);fill:#626262;}
	.st4{clip-path:url(#XMLID_4_);fill:#626262;}
</style>
<g>
	<rect x="58.4" y="213.2" class="st0" width="74.3" height="74.3"/>
	<rect x="244.7" y="212.5" class="st0" width="25.9" height="75"/>
	<rect x="284.9" y="212.5" class="st0" width="25.9" height="75"/>
	<rect x="324.2" y="212.5" class="st0" width="25.9" height="75"/>
	<polygon class="st0" points="441.6,215.9 441.6,287.5 369,287.5 	"/>
	<path class="st0" d="M189.2,212.6c-20.7,0-37.4,16.8-37.4,37.4s16.8,37.4,37.4,37.4c20.7,0,37.4-16.8,37.4-37.4
		S209.9,212.6,189.2,212.6z M189.2,266c-8.8,0-16-7.1-16-16c0-8.8,7.1-16,16-16c8.8,0,16,7.1,16,16C205.2,258.9,198,266,189.2,266z"
		/>
</g>
</svg>
