<svg id="Layer_1" data-name="Layer 1" xmlns="http://www.w3.org/2000/svg" viewBox="0 0 500 500"><defs><style>.cls-1{fill:#626262;}</style></defs><title>Untitled-1</title><path class="cls-1" d="M56.44,285.11a.38.38,0,0,1,.37-.39h4.81a7.11,7.11,0,1,1,0,14.21H56.81a.38.38,0,0,1-.37-.39Zm4.93,11.34a4.64,4.64,0,0,0,0-9.27H59.06v9.27Z"/><path class="cls-1" d="M95.78,285.11a.4.4,0,0,1,.39-.39h1.89a.4.4,0,0,1,.38.39v13.43a.4.4,0,0,1-.38.39H96.17a.4.4,0,0,1-.39-.39Z"/><path class="cls-1" d="M126.5,284.88a.38.38,0,0,1,.38-.36h.51l8.44,9h0v-8.38a.39.39,0,0,1,.39-.39h1.87a.4.4,0,0,1,.38.39v13.66a.38.38,0,0,1-.38.36h-.49l-8.49-9.31h0v8.72a.38.38,0,0,1-.38.39h-1.85a.4.4,0,0,1-.38-.39Z"/><path class="cls-1" d="M166.55,284.88a.38.38,0,0,1,.38-.36h.51l8.44,9h0v-8.38a.38.38,0,0,1,.38-.39h1.87a.4.4,0,0,1,.38.39v13.66a.38.38,0,0,1-.38.36h-.49l-8.48-9.31h0v8.72a.39.39,0,0,1-.39.39h-1.85a.4.4,0,0,1-.38-.39Z"/><path class="cls-1" d="M206.6,285.11a.38.38,0,0,1,.38-.39h8.27a.38.38,0,0,1,.38.39v1.66a.38.38,0,0,1-.38.39h-6v3.33h5a.4.4,0,0,1,.39.38v1.69a.39.39,0,0,1-.39.38h-5v3.55h6a.39.39,0,0,1,.38.39v1.66a.38.38,0,0,1-.38.39H207a.38.38,0,0,1-.38-.39Z"/><path class="cls-1" d="M242.9,285.11a.38.38,0,0,1,.38-.39h5.81a4.4,4.4,0,0,1,4.42,4.37,4.5,4.5,0,0,1-3,4.1l2.78,5.15a.39.39,0,0,1-.35.59h-2.13a.37.37,0,0,1-.33-.18l-2.69-5.38h-2.26v5.17a.4.4,0,0,1-.38.39h-1.87a.38.38,0,0,1-.38-.39Zm6,6.09a2.07,2.07,0,0,0,2-2.07,2,2,0,0,0-2-2h-3.31v4Z"/><path class="cls-1" d="M309.62,285.11a.38.38,0,0,1,.39-.39h5.8a4.4,4.4,0,0,1,4.43,4.37,4.5,4.5,0,0,1-3,4.1l2.78,5.15a.38.38,0,0,1-.34.59h-2.13a.36.36,0,0,1-.33-.18l-2.7-5.38h-2.25v5.17a.4.4,0,0,1-.39.39H310a.38.38,0,0,1-.39-.39Zm6,6.09a2.08,2.08,0,0,0,2-2.07,2,2,0,0,0-2-2h-3.31v4Z"/><path class="cls-1" d="M353.77,284.52a7.31,7.31,0,1,1-7.28,7.33A7.3,7.3,0,0,1,353.77,284.52Zm0,12a4.67,4.67,0,1,0-4.64-4.64A4.68,4.68,0,0,0,353.77,296.49Z"/><path class="cls-1" d="M394.37,284.52a7.31,7.31,0,1,1-7.29,7.33A7.3,7.3,0,0,1,394.37,284.52Zm0,12a4.67,4.67,0,1,0-4.64-4.64A4.68,4.68,0,0,0,394.37,296.49Z"/><path class="cls-1" d="M430.18,284.82a.34.34,0,0,1,.37-.3h.32a.38.38,0,0,1,.35.2l4.46,9.58h.06l4.47-9.58a.35.35,0,0,1,.35-.2h.32a.34.34,0,0,1,.36.3l2.4,13.64a.35.35,0,0,1-.36.47h-1.85a.43.43,0,0,1-.39-.31l-1.2-7.69h-.06l-3.55,8a.34.34,0,0,1-.34.22h-.37a.36.36,0,0,1-.34-.22l-3.6-8h-.06l-1.18,7.69a.39.39,0,0,1-.36.31h-1.83a.37.37,0,0,1-.38-.47Z"/><path class="cls-1" d="M56.35,262.94V200.87H76.72v7.52H64.54v18.75H75.29v7.62H64.54v20.85H76.72v7.33Z"/><path class="cls-1" d="M130.13,262.94V200.87h8.19v54.74h12.19v7.33Z"/><path class="cls-1" d="M203,262.94V200.87h20.38v7.52H211.15v18.75h10.76v7.62H211.15v20.85h12.19v7.33Z"/><polygon class="cls-1" points="283.29 200.87 283.29 246.28 271.38 224.08 264.44 227.78 283.25 262.94 283.29 262.92 283.29 262.94 291.16 262.94 291.16 200.87 283.29 200.87"/><path class="cls-1" d="M340.4,262.94V200.87h20.37v7.52H348.58v18.75h10.76v7.62H348.58v20.85h12.19v7.33Z"/><path class="cls-1" d="M433.41,262.94l-12.57-46.65h-.19a112.36,112.36,0,0,1,1.05,13.33v33.32h-7.52V200.87h9.14l12.56,46.65h.2a130.42,130.42,0,0,1-1-13.33V200.87h7.53v62.07Z"/></svg>