<svg id="Layer_1" data-name="Layer 1" xmlns="http://www.w3.org/2000/svg" viewBox="0 0 500 500"><defs><style>.cls-1{fill:#626262;}</style></defs><title>Untitled-1</title><path class="cls-1" d="M234.28,203.9H163.66a10.79,10.79,0,0,0-10.79,10.79v70.62a10.79,10.79,0,0,0,10.79,10.79h70.62a10.79,10.79,0,0,0,10.79-10.79V214.69A10.79,10.79,0,0,0,234.28,203.9Zm-31.13,57.22a4.19,4.19,0,0,1-8.37,0V238.77a4.19,4.19,0,1,1,8.37,0Z"/><path class="cls-1" d="M435.2,256.27c-1.38-3-1.8-4.59-1.77-6.27s.39-3.31,1.77-6.27l12.37-26.37c1.53-3.82-.83-13.41-10.45-13.41H405.5v26.12a4.19,4.19,0,1,1-8.37,0V204H365.51c-9.62,0-12,9.59-10.44,13.41l12.37,26.37c1.37,3,1.8,4.59,1.77,6.27s-.4,3.31-1.77,6.27l-12.37,26.37c-1.54,3.82.82,13.41,10.44,13.41h31.62V269.79a4.19,4.19,0,0,1,8.37,0v26.26h31.62c9.62,0,12-9.59,10.45-13.41Z"/><path class="cls-1" d="M343.85,245.54l-17-36.54A9.66,9.66,0,0,0,318.7,204H281a9.66,9.66,0,0,0-8.18,5.05l-17,36.54a30.73,30.73,0,0,0-2.42,10.89v28.5a11.08,11.08,0,0,0,10.8,11.12h31.43v-26.5a4.19,4.19,0,0,1,8.37,0v26.5h31.43a11.08,11.08,0,0,0,10.8-11.12v-28.5A30.73,30.73,0,0,0,343.85,245.54Z"/><path class="cls-1" d="M133.7,203.75H102.43v26.7a4.19,4.19,0,0,1-8.37,0v-26.7H62.79A10.8,10.8,0,0,0,52,214.55v70.91a10.79,10.79,0,0,0,10.79,10.79H94.06v-26.7a4.19,4.19,0,0,1,8.37,0v26.7H133.7a10.8,10.8,0,0,0,10.8-10.79V214.55A10.81,10.81,0,0,0,133.7,203.75Z"/></svg>