<?xml version="1.0" encoding="utf-8"?>
<!-- Generator: Adobe Illustrator 22.1.0, SVG Export Plug-In . SVG Version: 6.00 Build 0)  -->
<svg version="1.1" id="Layer_1" xmlns="http://www.w3.org/2000/svg" xmlns:xlink="http://www.w3.org/1999/xlink" x="0px" y="0px"
	 viewBox="0 0 500 500" style="enable-background:new 0 0 500 500;" xml:space="preserve">
<style type="text/css">
	.st0{fill:#626262;}
</style>
<title>Untitled-1</title>
<g>
	<path class="st0" d="M323.5,228.6c-18.9,0-37.5,0-56.2,0c-18.1,0-18.1,0-22.5,17.4c-3.5,13.9-6.9,27.7-10.7,41.5
		c-4.3,15.6-22.8,22.1-35.5,12c-3.9-3.1-7-8.2-8.4-13c-4.6-15.5-8.2-31.2-12.2-46.8c-2.2-8.6-5.2-11.1-14-11.1
		c-19.2-0.1-38.3,0-57.5,0c-1.8,0-3.6,0-5.1,0c-0.4-0.9-0.7-1.1-0.7-1.4c-0.6-9-0.6-9,8.3-9c18.5,0,37,0,55.5,0
		c13.4,0,21,5.9,24.4,19c4,15.5,8,30.9,12,46.4c1.8,6.8,5.3,9.9,11.3,9.9c6,0,9.5-3,11.3-9.9c4.2-15.9,8.2-31.9,12.4-47.8
		c3.1-11.5,11-17.5,22.9-17.5c18.8,0,37.6,0,56.5,0C324.7,218.2,324.7,218.2,323.5,228.6z"/>
	<path class="st0" d="M403.4,304c-1.1-10.6-1.1-10.6,8.7-10.6c11.5,0,23,0,34.5,0c7.8,0,10.7-2.8,10.6-10.5c0-11.9,1.4-9.4-9.3-12.9
		c-12.2-4-24.4-7.9-36.5-11.8c-6.2-2-8.3-4.9-8.4-11.3c0-3.2,0-6.3,0-9.5c0-11.2,6.3-18.6,17.4-19c14.8-0.6,29.6-0.1,44.6-0.1
		c0.2,1.1,0.5,2,0.5,3c0.2,7.3,0.2,7.3-7.3,7.3c-10.8,0-21.7-0.1-32.5,0c-9.3,0.1-11.7,2.6-11.7,12c0,8.6,0,8.6,8.3,11.2
		c12.2,3.9,24.4,7.7,36.6,11.6c7.1,2.3,9,4.9,9,12.4c0,3,0,6,0,9c-0.2,10.5-7.4,18.8-17.9,19.2C434.7,304.4,419.2,304,403.4,304z"/>
	<path class="st0" d="M32,218.5c10.9-0.9,10.9-0.9,10.9,9.3c0,17.8,0,35.6,0,53.4c0,8.4,3.8,12.1,12.2,12.2c9.5,0.1,19,0,28.5,0
		c7.6,0,7.6,0,7.3,7.7c0,0.8-0.2,1.6-0.3,2.6c-13.7,0-27.2,0.8-40.5-0.2C39,302.7,32,293.5,32,282.1C32,261,32,239.9,32,218.5z"/>
	<path class="st0" d="M393.6,303.9c-13.7,0-27,0.7-40.2-0.2c-10.5-0.7-18.2-9.3-18.3-19.2c-0.3-21.8-0.1-43.6-0.1-66.3
		c2,0,4,0.2,5.8,0c4-0.5,5.1,1.1,5.1,5.1c-0.2,18.8-0.1,37.7-0.1,56.5c0,10.5,3.3,13.8,13.7,13.8c9.2,0,18.3,0,27.5,0
		c6.9,0,6.9,0,6.8,6.8C393.8,301.2,393.7,302.2,393.6,303.9z"/>
	<path class="st0" d="M160,303.9c-19.8,0-39.4,0-58.9,0c-0.3-0.4-0.6-0.7-0.7-1c-0.9-9.5-0.9-9.5,8.4-9.5c14.5,0,28.9,0,43.4,0
		C161.5,293.5,161.8,293.8,160,303.9z"/>
	<path class="st0" d="M323.7,303.9c-20.2,0-39.8,0-59.5,0c-0.2-0.8-0.4-1.4-0.4-2.1c-0.5-8.3-0.5-8.3,7.7-8.3c15.2,0,30.3,0,45.5,0
		c7.1,0,7.1,0,6.9,7.1C323.9,301.6,323.8,302.5,323.7,303.9z"/>
	<path class="st0" d="M100.8,265.9c-0.2-0.5-0.5-0.8-0.5-1.1c-0.7-8.9-0.7-8.9,8-8.9c14.6,0,29.3,0,43.9,0c9.2,0,9.2,0,7.9,10
		C140.4,265.9,120.6,265.9,100.8,265.9z"/>
	<path class="st0" d="M323.8,266c-20,0-39.7,0-59.7,0c0-3.2,0-6.3,0-9.8c2-0.1,3.7-0.2,5.5-0.2c15.8,0,31.6,0,47.4,0
		c7.1,0,7.1,0,7,6.9C323.9,263.8,323.9,264.8,323.8,266z"/>
</g>
</svg>
