<?xml version="1.0" encoding="utf-8"?>
<!-- Generator: Adobe Illustrator 22.1.0, SVG Export Plug-In . SVG Version: 6.00 Build 0)  -->
<svg version="1.1" id="Layer_1" xmlns="http://www.w3.org/2000/svg" xmlns:xlink="http://www.w3.org/1999/xlink" x="0px" y="0px"
	 viewBox="0 0 500 500" style="enable-background:new 0 0 500 500;" xml:space="preserve">
<style type="text/css">
	.st0{fill:#626262;}
	.st1{fill:#FFFFFF;}
	.st2{clip-path:url(#XMLID_2_);fill:#626262;}
	.st3{clip-path:url(#XMLID_3_);fill:#626262;}
	.st4{clip-path:url(#XMLID_4_);fill:#626262;}
</style>
<g>
	<g id="XMLID_565_">
		<g id="XMLID_605_">
			<defs>
				<path id="XMLID_606_" d="M60.9,185.8c4.6,0,8.3,1.3,10.9,3.8c2.6,2.5,4,6.1,4,10.5c0,1.7-0.3,3.4-0.9,5
					c-0.6,1.6-1.4,3.1-2.3,4.4c-1,1.3-2.2,2.4-3.5,3.3c-1.4,0.9-2.8,1.5-4.4,1.7c0.7,0.5,1.4,1.2,2.1,2c0.7,0.8,1.3,1.5,1.9,2.2
					c1.1,1.7,2.3,3.3,3.4,4.9c0.9,1.3,1.9,2.6,3,4c1,1.3,1.9,2.4,2.6,3.1c1.4,1.6,2.9,2.9,4.4,3.8c1.5,1,3.4,1.5,5.7,1.5v1.9H83
					c-1.7,0-3.3-0.2-4.7-0.6c-1.4-0.4-2.6-1-3.7-1.6c-1.1-0.6-2-1.4-2.8-2.1c-0.8-0.8-1.5-1.5-2.1-2.3c-0.1-0.1-0.3-0.5-0.7-0.9
					c-0.3-0.5-0.8-1.1-1.2-1.8c-0.5-0.7-1-1.5-1.6-2.3c-0.6-0.8-1.2-1.7-1.8-2.5c-1.1-1.5-2.2-3.1-3.4-4.7c-1.1-1.6-1.9-2.7-2.4-3.3
					c-0.4-0.6-0.9-1.1-1.3-1.5c-0.5-0.4-1-0.8-1.6-1.1c-0.6-0.3-1.9-0.4-3.8-0.4v19.1c0.1,1.1,0.5,2,1.3,2.8
					c0.7,0.8,1.7,1.2,2.8,1.2h1.6v1.9H40.6V236h1.6c1.1,0,2.1-0.4,2.8-1.2c0.7-0.8,1.2-1.7,1.3-2.8v-40.5c-0.1-1.1-0.5-2-1.3-2.8
					c-0.7-0.8-1.7-1.2-2.8-1.2h-1.6v-1.9L60.9,185.8z M56.3,211.1c0.4,0,0.9,0,1.5-0.1c0.9,0,1.9-0.1,2.9-0.3c1-0.2,2.1-0.5,3.1-1
					c1-0.5,2-1.2,2.8-2.1c0.8-0.9,1.5-2.2,2-3.7c0.2-0.9,0.4-2.1,0.4-3.5v-0.7c-0.1-3.1-0.9-5.6-2.4-7.5c-1.5-1.8-3.5-2.8-6-3
					c-0.8,0-1.7-0.1-2.5-0.1c-0.8,0-1.6,0-2.4,0c-0.7,0-1.3,0-1.9,0c-0.5,0-1,0-1.4,0h-0.4v21.9H56.3z M120.4,238.3H89.8v-1.9h1.6
					c1,0,1.8-0.3,2.5-1c0.6-0.6,1-1.4,1-2.4v-34.5c0-0.9-0.3-1.7-1-2.3c-0.7-0.6-1.5-0.9-2.5-0.9h-1.6v-1.9h21.9
					c0.7,0,1.5,0,2.3-0.1c0.8-0.1,1.7-0.2,2.5-0.4c0.8-0.1,1.6-0.3,2.2-0.5c0.7-0.2,1.2-0.3,1.6-0.5v9.8h-2v-1.7
					c0-0.8-0.3-1.6-0.9-2.2c-0.6-0.6-1.3-0.9-2.2-1h-14.4v17.2h11.8c0.8,0,1.4-0.3,1.8-0.8c0.4-0.5,0.6-1,0.6-1.7v-1.6h2v11.4h-2
					v-1.6c0-0.6-0.2-1.2-0.6-1.6s-0.9-0.7-1.7-0.8h-11.9v17.2h10.7c1.6,0,3.1-0.3,4.2-0.7c1.2-0.4,2.2-1,3-1.7
					c0.8-0.7,1.6-1.5,2.2-2.5c0.6-1,1.2-2.1,1.7-3.2h2.1L120.4,238.3z M152,193.1c3.6,0,6.9,0.6,9.8,1.7c3,1.1,5.5,2.6,7.6,4.5
					c2.1,1.9,3.7,4.2,4.9,7c1.1,2.7,1.7,5.8,1.7,9.3c0,3.5-0.6,6.6-1.7,9.4c-1.1,2.8-2.7,5.1-4.8,7.1c-2.1,1.9-4.6,3.4-7.5,4.4
					c-3,1-6.3,1.5-10,1.5h-24.9V236h1.6c1,0,1.8-0.3,2.5-1c0.6-0.7,1-1.5,1-2.4v-34.2c0-0.9-0.4-1.7-1.1-2.4
					c-0.7-0.6-1.5-0.9-2.4-0.9h-1.5v-2L152,193.1z M138.2,234.5H152c5.4,0,9.7-1.7,12.8-5c3.1-3.3,4.7-8,4.7-13.9
					c0-2.9-0.4-5.6-1.2-8c-0.8-2.4-2-4.4-3.5-6c-1.5-1.6-3.4-2.9-5.5-3.8c-2.2-0.9-4.6-1.3-7.3-1.3h-13.8V234.5z"/>
			</defs>
			<use xlink:href="#XMLID_606_"  style="overflow:visible;fill:#626262;"/>
			<clipPath id="XMLID_2_">
				<use xlink:href="#XMLID_606_"  style="overflow:visible;"/>
			</clipPath>
			<path id="XMLID_614_" class="st2" d="M-6.9,155.7v122.5h503.1V155.7H-6.9z"/>
		</g>
		<g id="XMLID_591_">
			<defs>
				<path id="XMLID_592_" d="M237.7,214.4l-1,12.3c-1,1.6-2.2,3.2-3.5,4.5c-1.3,1.4-2.9,2.6-4.6,3.6c-1.7,1-3.7,1.8-5.8,2.4
					c-2.1,0.6-4.5,0.9-7.1,0.9c-3.9,0-7.5-0.6-10.8-1.9c-3.3-1.3-6.1-3.1-8.5-5.5c-2.4-2.4-4.2-5.3-5.5-8.6c-1.3-3.3-2-7.1-2-11.2
					c0-4,0.6-7.7,1.9-11.1c1.3-3.3,3.1-6.2,5.5-8.6c2.3-2.4,5.2-4.2,8.5-5.5c3.3-1.3,7.1-1.9,11.2-1.9c3.7,0,7,0.5,10,1.5
					c3,1,5.6,2.2,7.9,3.7l1.6,11.3h-1.8c-1.1-4.3-3.2-7.6-6.4-9.8c-3.2-2.2-6.9-3.3-11.2-3.3c-3.1,0-6,0.6-8.5,1.7
					c-2.5,1.1-4.7,2.7-6.4,4.8c-1.8,2.1-3.1,4.6-4.1,7.5c-0.9,2.9-1.4,6.1-1.4,9.7c0,3.5,0.5,6.8,1.5,9.6c1,2.9,2.4,5.4,4.1,7.4
					c1.8,2.1,3.9,3.7,6.3,4.9c2.4,1.2,5.1,1.8,8.1,2c2.5,0,4.9-0.3,7.1-1c2.3-0.7,4.3-1.8,6.1-3.4c1.8-1.6,3.3-3.6,4.5-6.2
					c1.2-2.6,2.1-5.8,2.5-9.5H237.7z M282.7,231.2c0.6,1.4,1.4,2.4,2.4,3c0.9,0.6,1.8,0.9,2.7,0.9h1.2v1.9h-16.1V235h1.2
					c0.5,0,1.1-0.2,1.5-0.6c0.5-0.4,0.7-1,0.7-1.7c0-0.3-0.1-0.7-0.2-1.2l-3.8-9.3h-17.6l-3.8,9c-0.2,0.4-0.3,0.9-0.3,1.4
					c0,0.7,0.2,1.3,0.7,1.7c0.4,0.4,0.9,0.6,1.5,0.6h1.2v1.9h-15.1V235h1.2c0.8,0,1.7-0.3,2.7-0.9c0.9-0.6,1.8-1.6,2.5-3l15.1-32.2
					c0.5-1,0.9-2,1.3-3c0.3-0.8,0.7-1.7,0.9-2.6c0.3-0.9,0.4-1.6,0.5-2.2h1.6L282.7,231.2z M270.7,218.8l-7.2-17.6l-7.5,17.6H270.7z
					 M308.7,192.2c4.7,0.1,8.4,1.2,11.2,3.4c2.8,2.2,4.2,5.2,4.2,9c0,1.5-0.3,2.9-0.7,4.3c-0.5,1.3-1.2,2.6-2.1,3.7
					c-0.9,1.1-2,2-3.3,2.8c-1.2,0.8-2.6,1.3-4.1,1.7c0.7,0.6,1.5,1.4,2.3,2.3c0.8,0.9,1.5,1.8,2.1,2.7v-0.1c0.6,0.9,1.3,1.9,2,2.8
					c0.6,0.8,1.3,1.6,2,2.5c0.7,0.9,1.5,1.8,2.2,2.6c0.7,0.8,1.4,1.5,2,2.2c0.6,0.6,1.3,1.2,2,1.7c0.7,0.5,1.5,0.8,2.3,1.1
					c0.8,0.2,1.8,0.4,2.8,0.4v1.9h-2.8c-2.1,0-3.9-0.2-5.4-0.6c-1.5-0.4-2.8-1-3.9-1.6c-1.1-0.6-2-1.4-2.7-2.1
					c-0.7-0.8-1.4-1.5-2-2.2c-0.3-0.2-0.7-0.9-1.5-2.1c-0.7-1.1-1.5-2.3-2.4-3.4l-3.3-4.6c-0.9-1.1-1.9-2.2-3.1-3.1
					c-1.1-0.9-3.1-1.4-5.8-1.4v15.8c0,0.9,0.4,1.7,1,2.3c0.6,0.6,1.5,1,2.5,1h1.6v1.9h-16.1V235h1.6c1,0,1.8-0.3,2.5-0.9
					c0.6-0.6,1-1.4,1-2.3v-34.5c0-0.9-0.4-1.6-1-2.2c-0.6-0.6-1.5-0.9-2.5-0.9h-1.6v-2L308.7,192.2z M305.2,213.9c0.5,0,1.2,0,2,0
					c0.8,0,1.7-0.1,2.7-0.1c1-0.1,1.9-0.3,2.8-0.7c0.9-0.4,1.7-0.9,2.5-1.7c0.7-0.8,1.4-1.9,1.9-3.3c0.3-0.9,0.5-2,0.5-3.3
					c0-0.3,0-0.5-0.1-0.6c0-2.5-0.9-4.5-2.5-6c-1.6-1.4-3.8-2.2-6.5-2.4c-1,0-2-0.1-2.9-0.1h-4.8v18.2H305.2z M355.5,192.2
					c2.5,0,4.9,0.4,7,1c2.1,0.6,3.9,1.5,5.5,2.6s2.7,2.5,3.5,4.1c0.8,1.6,1.2,3.4,1.2,5.4c0,2.1-0.4,4.1-1.1,5.8
					c-0.7,1.7-1.8,3.1-3,4.1c-1.3,1-2.7,1.8-4.4,2.5c-1.7,0.6-3.5,0.9-5.3,0.9c-1.3,0-2.6-0.2-4-0.7c-1.4-0.4-2.8-1-4.3-1.7V215
					c0.4,0.1,0.9,0.2,1.4,0.3c0.4,0.1,0.9,0.2,1.4,0.2c0.5,0.1,1.1,0.1,1.6,0.1c0.9,0,1.9-0.1,2.9-0.3c1-0.2,2-0.5,3-1
					c1-0.5,1.9-1.3,2.8-2.2c0.9-1,1.6-2.2,2.1-3.8c0.1-0.5,0.3-1.1,0.3-1.8c0.1-0.7,0.1-1.3,0.1-1.9c0-2.7-1-4.9-2.9-6.5
					c-1.9-1.6-4.6-2.4-8-2.4H349v36.1c0,0.9,0.4,1.7,1.1,2.4c0.7,0.6,1.5,1,2.5,1h1.6v1.9h-16.4v-1.9h1.6c1,0,1.8-0.3,2.5-1
					c0.6-0.6,1-1.4,1-2.4v-34.4c-0.1-0.9-0.4-1.7-1.1-2.3c-0.7-0.6-1.5-0.9-2.5-0.9h-1.6v-2L355.5,192.2z M408.5,237.4H378v-1.9h1.6
					c1,0,1.8-0.3,2.5-1c0.6-0.6,1-1.4,1-2.4v-34.5c0-0.9-0.3-1.7-1-2.3c-0.7-0.6-1.5-0.9-2.5-0.9H378v-1.9h21.9c0.7,0,1.5,0,2.3-0.1
					c0.8-0.1,1.7-0.2,2.5-0.4c0.8-0.1,1.6-0.3,2.2-0.5c0.7-0.2,1.2-0.3,1.6-0.5v9.8h-2v-1.7c0-0.8-0.3-1.6-0.9-2.2
					c-0.6-0.6-1.3-0.9-2.2-1H389V213h11.8c0.8,0,1.4-0.3,1.8-0.8c0.4-0.5,0.6-1,0.6-1.7V209h2v11.4h-2v-1.6c0-0.6-0.2-1.2-0.6-1.6
					c-0.4-0.4-0.9-0.7-1.7-0.8h-11.9v17.2h10.7c1.6,0,3.1-0.3,4.2-0.7c1.2-0.4,2.2-1,3-1.7c0.8-0.7,1.6-1.5,2.2-2.5
					c0.6-1,1.2-2.1,1.7-3.2h2.1L408.5,237.4z M449,192.1c0.7,0,1.5,0,2.3-0.1c0.8-0.1,1.7-0.2,2.5-0.4c0.8-0.1,1.6-0.3,2.3-0.5
					c0.7-0.2,1.2-0.3,1.6-0.5v9.8h-2v-1.7c0-0.8-0.3-1.6-0.9-2.2s-1.3-0.9-2.2-1h-12.5v36.3c0,0.9,0.4,1.7,1.1,2.3
					c0.7,0.6,1.5,1,2.5,1h1.5v1.9h-16.2V235h1.5c1,0,1.8-0.3,2.5-1c0.7-0.6,1.1-1.4,1.2-2.4v-36.2h-12.6c-0.9,0.1-1.6,0.4-2.2,1
					c-0.5,0.6-0.8,1.3-0.8,2.2v1.7h-2.1v-9.8c0.4,0.1,0.9,0.3,1.6,0.5c0.7,0.2,1.5,0.3,2.3,0.5c0.8,0.1,1.7,0.3,2.5,0.4
					c0.8,0.1,1.6,0.1,2.3,0.1H449z"/>
			</defs>
			<use xlink:href="#XMLID_592_"  style="overflow:visible;fill:#626262;"/>
			<clipPath id="XMLID_3_">
				<use xlink:href="#XMLID_592_"  style="overflow:visible;"/>
			</clipPath>
			<path id="XMLID_603_" class="st3" d="M-6.9,155.7v122.5h503.1V155.7H-6.9z"/>
		</g>
		<g id="XMLID_566_">
			<defs>
				<path id="XMLID_567_" d="M232.8,269.2c-5.1,0-8.8-3.7-8.8-8.2c0-5.7,6.1-7.7,6.1-7.7l0.1,0.4c0,0-5.7,2-5.7,7.3
					c0,3.9,2.8,7.7,8.3,7.7c5,0,9.8-5.7,9.8-11.3c0-5.3-3.8-8.8-9.1-8.8c-8.3,0-12,4.6-16.7,11.8c-2.4,3.7-12.7,17.3-14.3,17.3
					c-0.3,0-0.4-0.1-0.4-0.3c0-0.4,0.1-0.8,1.4-3.4c1.4-3,1.2-7.9,1.2-15.3c-0.9,1.3-3.7,6-6.4,9.4c-3.3,4.1-8.5,9.6-9.4,9.6
					c-0.2,0-0.5-0.3-0.5-0.5c0,0,2-3.6,2.3-5.5c0.1-0.8,0.6-7,0.6-12c0-4.8,3.3-8.1,4.9-10.1c0,0-4.9-2.7-9-2.7
					c-5.9,0-8.9,3.7-8.9,7.9c0,1.9,0.5,3,2.8,4.6c-0.1-0.1,0.1,0.3,0,0.3c0,0-4.1-1.3-4.1-5.3c0-4.7,4.1-7.8,10.2-7.8
					c4.1,0,9.1,2.7,9.2,2.6c0,0,1.1-1.1,1.9-1.1c0.5,0,1.1,0.2,1.1,0.6c0,0.8-1.9,1.2-2.7,1c0,0-2.2,2.2-2.2,3.5
					c0,4.6,1.1,7,1.1,10.9c0,2.7-2.8,7.6-5.2,11.4c1.7-1.6,5.2-4.8,7.8-8.3c3-3.9,5.8-8.7,8.6-14.2c0.8-1.5,2.9-3.3,2.9-3.3
					c-1.4,2.3-1.7,3.4-1.7,5.3c0,3.2,1,6,1,9.1c0,2.9-1,5-4.5,10.8c0,0,3.9-4.3,6.1-7.2c1.7-2.1,5-6.6,8.2-12.2c2.1-3.5,8-8,13.6-8
					c6.1,0,10.6,4.1,10.6,9.9C243.1,263.7,238.1,269.2,232.8,269.2z M198.3,248.6c-0.4,0-1,0.4-1.3,0.8c0.6,0.1,1.8,0,1.8-0.5
					C198.8,248.6,198.6,248.6,198.3,248.6z M218.3,277.3c-2.5,0-3.9-1.9-3.9-4c0-6.1,6.8-9.9,10.1-9.9c1.4,0,2.5,1.1,2.5,2.4
					c0,4.3-7.6,6.1-9.1,6.1c-0.5,1.1-0.8,1.6-0.8,3.1c0,0.9,0.3,1.6,1.2,1.6c4.4,0,11.1-7.2,12.7-9.9l0.4,0.3
					C230,269.2,223.3,277.3,218.3,277.3z M223.9,263.9c-1.3,0-3.3,2.4-5.6,6.8c2.5,0,6.5-4.2,6.5-5.8
					C224.9,264.3,224.5,263.9,223.9,263.9z M232.1,277.3c-2.5,0-3.9-1.9-3.9-4c0-6.1,6.8-9.9,10.1-9.9c1.4,0,2.5,1.1,2.5,2.4
					c0,4.3-7.6,6.1-9.1,6.1c-0.5,1.1-0.8,1.6-0.8,3.1c0,0.9,0.3,1.6,1.2,1.6c4.4,0,11.1-7.2,12.7-9.9l0.4,0.3
					C243.8,269.2,237.1,277.3,232.1,277.3z M237.7,263.9c-1.3,0-3.3,2.4-5.6,6.8c2.5,0,6.5-4.2,6.5-5.8
					C238.7,264.3,238.4,263.9,237.7,263.9z M249.9,264.3c-0.4,0.5-1.4,2.2-1.4,2.2c2.1-1.8,4.4-3.1,5.8-3.1c1.1,0,1.8,0.7,1.8,1.7
					c0,1.6-1.5,3.2-4.6,4.9c0.5,0.8,0.8,1.1,0.8,1.7c0,1.1-1.9,3.5-1.9,4.2c0,0.3,0.2,0.4,0.5,0.4c1.7,0,9.2-9.5,9.2-9.5l0.4,0.3
					c-2.1,2.7-7.6,10.3-10.7,10.3c-1,0-1.9-0.7-1.9-1.7c0-1.1,1.7-3.8,1.7-4.8c0-0.5-1.4-0.3-3-0.4c-2.8,4.5-2.9,6.5-4.4,6.5
					c-0.5,0-1-0.4-1.4-0.4s-1,1-1.7,1.2l5.5-10.3c1-2,11.8-19,16.3-19c0.8,0,1.8,0.6,1.8,1.4C262.6,254.5,253.5,262.7,249.9,264.3z
					 M252.2,264.9c-1.3,0-4.6,3-5.4,4.8c0.8,0,1.9,0.1,2.9-0.3c1.4-0.5,3.4-1.9,3.4-3.7C253.2,265.1,252.7,264.9,252.2,264.9z
					 M260,249.3c-1.4,0-8.4,10.6-9.5,13.9c4.8-2.7,9.9-10.2,9.9-13C260.5,249.7,260.4,249.3,260,249.3z M261.2,277.3
					c-2.5,0-3.9-1.9-3.9-4c0-6.1,6.8-9.9,10.1-9.9c1.4,0,2.5,1.1,2.5,2.4c0,4.3-7.6,6.1-9.1,6.1c-0.5,1.1-0.8,1.6-0.8,3.1
					c0,0.9,0.3,1.6,1.2,1.6c4.4,0,11.1-7.2,12.7-9.9l0.4,0.3C272.9,269.2,266.2,277.3,261.2,277.3z M266.8,263.9
					c-1.3,0-3.3,2.4-5.6,6.8c2.5,0,6.5-4.2,6.5-5.8C267.7,264.3,267.4,263.9,266.8,263.9z M284.7,274.6c-1.3,1.5-2.6,2.7-4.5,2.7
					c-1.7,0-2.4-1.2-2.6-2.7c0-0.7,0-1.2,0.9-2.7l3.7-5.6c0.4-0.6,0.6-1.1,0.6-1.3c0-0.3-0.2-0.4-0.7-0.4c-1.2,0-4.5,2.2-7.7,7.6
					c-1.4,2.3-2.2,4.6-3.2,4.6c-0.6,0-1.1-0.4-1.6-0.4c-0.4,0-1.6,1.3-1.6,1.3l6.8-13c0.4-0.7,0.6-1.1,1.3-1.1
					c0.8,0,0.9,0.4,1.5,0.4c0.4,0,0.9-1,1.6-1.3l-2.3,4.2c2.9-2.6,4.7-3.7,6.6-3.7c1.2,0,2,0.8,2,2c0,0.8-0.2,1.4-0.8,2.4l-4.1,6.4
					c-0.4,0.7-0.8,1.2-0.8,1.5c0,0.5,0.3,0.8,0.9,0.8c0.8,0,2.2-1.1,3.7-2.7l6.5-7.2l0.4,0.3C290.5,268.1,284.7,274.6,284.7,274.6z
					 M303.6,265.3c0,0-5,9.1-5,10.2c0,0.7,0.4,1.1,0.9,1.1c1.9,0,5.6-3.9,11-10l0.4,0.3c-6,6.7-9.2,10.4-11.5,10.4
					c-1.9,0-2.7-0.9-3.5-3c-1.9,2.3-2.3,2.9-4,2.9c-1.9,0-3.3-2.1-3.3-4.1c0-5.7,5.2-9.9,10.4-9.9c1,0,1.5,0.4,2.3,1.2
					c4.8-8.1,10.6-15.7,14.2-15.7c0.7,0,1.3,0.6,1.3,1.5C316.7,255.1,307.8,263.4,303.6,265.3z M298.9,263.9c-2.6,0-8,8.2-8,11.2
					c0,0.7,0.3,1.5,1,1.5c1.8,0,2.9-2.3,4.6-4.8c2.4-3.3,3.7-5.7,3.7-6.8C300.3,264.6,299.5,263.9,298.9,263.9z M314,249.7
					c-1.8,0-8,11.2-9.7,14.3c6.3-3.8,10.5-10.6,10.5-13.3C314.8,250.1,314.5,249.7,314,249.7z"/>
			</defs>
			<use xlink:href="#XMLID_567_"  style="overflow:visible;fill:#626262;"/>
			<clipPath id="XMLID_4_">
				<use xlink:href="#XMLID_567_"  style="overflow:visible;"/>
			</clipPath>
			<path id="XMLID_589_" class="st4" d="M-6.9,174.6v122.5h503.1V174.6H-6.9z"/>
		</g>
	</g>
</g>
</svg>
