<?xml version="1.0" encoding="utf-8"?>
<!-- Generator: Adobe Illustrator 22.1.0, SVG Export Plug-In . SVG Version: 6.00 Build 0)  -->
<svg version="1.1" id="Layer_1" xmlns="http://www.w3.org/2000/svg" xmlns:xlink="http://www.w3.org/1999/xlink" x="0px" y="0px"
	 viewBox="0 0 500 500" style="enable-background:new 0 0 500 500;" xml:space="preserve">
<style type="text/css">
	.st0{fill:#626262;}
	.st1{fill:#FFFFFF;}
	.st2{clip-path:url(#XMLID_2_);fill:#626262;}
	.st3{clip-path:url(#XMLID_3_);fill:#626262;}
	.st4{clip-path:url(#XMLID_4_);fill:#626262;}
</style>
<g>
	<path class="st0" d="M200.7,194c-2.7,0.5-5.2,1.2-7.7,1.4c-6.2,0.7-11.5-1.1-15.8-5.8c-3.2-3.5-3.8-8-4.7-12.3
		c-1.5-6.8-3.2-13.6-3.9-20.6c-0.6-5.7,1.6-11,6.2-15c4.3-3.8,9.9-4.1,15.1-5.1c26-5.3,52.1-10.4,78.2-15.5
		c4.3-0.8,8.4-1.7,12.9-0.4c6.2,1.9,10,5.6,11.8,11.8c1.7,5.6,0.2,10.7-2.3,15.5c-6.6,13.2-13.5,26.4-20.3,39.7
		c0.6,0.3,1,0.6,1.5,0.9c23,10.4,40.5,26.7,50.6,49.9c7.4,16.8,11.1,34.6,8.3,53.2c-4,27-16.6,49.2-37.8,66.4
		c-11.6,9.4-24.9,15.3-39.5,18.1c-6.2,1.2-12.3,3.1-18.5,3.6c-5.6,0.5-10.8-1.6-14.8-6.1c-3.9-4.4-3.9-10.1-5.1-15.3
		c-1.3-5.5-2.5-11-3.2-16.6c-0.8-6.2,1.2-11.5,5.9-15.8c4.1-3.7,9.4-3.9,14.3-5c6.2-1.4,12.7-2.2,18.3-5.5
		c14.3-8.5,22.6-20.7,22.2-37.8c-0.4-18.4-13.9-33.9-31-37.7c-5-1.1-10.4-0.6-15.6-0.3c-6.2,0.3-12.4,1.5-18.6,1.6
		c-7.9,0.1-15.8-3.7-18.2-12.9c-1.5-5.5-0.2-10.3,2.1-15c2.9-6,6.1-11.8,9.1-17.8C200.3,195.3,200.4,194.9,200.7,194z M205.7,223.8
		c6.1-0.5,11.6-0.9,17.1-1.5c8.8-1,17.5-1.1,26,1.6c36.7,11.2,50.6,52.4,35.1,81.3c-8.4,15.6-20.5,26.5-37.9,30.8
		c-5.6,1.4-11.3,2.3-17.1,3.5c1.6,7.7,3.1,15.3,4.6,23c6.8-1.4,13.3-2.6,19.8-4.2c3.3-0.8,6.4-1.9,9.6-3.1
		c31.1-12,56.6-49.9,49.7-88.6c-5.7-32.2-29-58-60.7-65.9c-2.4-0.6-4.8-1.1-7.5-1.7c10.6-20.6,21-40.9,31.7-61.7
		c-30.4,6-60.2,11.9-90,17.9c1.6,7.9,3.1,15.3,4.6,23c14.3-2.8,28.3-5.6,42.7-8.4C224,188,215,205.6,205.7,223.8z"/>
	<path class="st1" d="M205.7,223.8c9.3-18.2,18.3-35.8,27.6-54c-14.5,2.9-28.5,5.6-42.7,8.4c-1.5-7.6-3-15.1-4.6-23
		c29.9-5.9,59.7-11.8,90-17.9c-10.7,20.8-21.1,41.1-31.7,61.7c2.7,0.6,5.1,1.1,7.5,1.7c31.7,7.9,55,33.6,60.7,65.9
		c6.8,38.7-18.6,76.6-49.7,88.6c-3.1,1.2-6.3,2.4-9.6,3.1c-6.4,1.5-13,2.7-19.8,4.2c-1.6-7.7-3.1-15.3-4.6-23
		c5.8-1.2,11.5-2.1,17.1-3.5c17.5-4.3,29.6-15.2,37.9-30.8c15.5-28.9,1.6-70.1-35.1-81.3c-8.5-2.6-17.2-2.5-26-1.6
		C217.3,222.9,211.8,223.3,205.7,223.8z"/>
</g>
</svg>
