<svg id="Layer_1" data-name="Layer 1" xmlns="http://www.w3.org/2000/svg" viewBox="0 0 500 500"><defs><style>.cls-1,.cls-2{fill:#626262;}.cls-1{fill-rule:evenodd;}</style></defs><title>Untitled-1</title><path class="cls-1" d="M190.92,177.27l-.32,0h-.48c-1.29,0-2.22-.08-2.84-.13l-.68,0a1.27,1.27,0,0,0-1.27,1.43c0,1.21,1.16,1.4,1.65,1.48.74.12.79.17.79.66s-.39,3.26-7.68,23.79c-2.37-12.6-2.91-19.66-2.91-21.4a8.92,8.92,0,0,1,.54-3.45,2.58,2.58,0,0,0,.22-.93,1.49,1.49,0,0,0-1.46-1.64h-.3l-2.72.05-.2,0-.48,0a1.13,1.13,0,0,0-1.15,1.16,2.21,2.21,0,0,0,.29,1,4.18,4.18,0,0,1,.47,2.1c0,1.4-2.44,9.43-7.76,23.85-2.37-12.45-3-21.5-3-24.7a12.57,12.57,0,0,1,.27-2.75l.07-.5a1.5,1.5,0,0,0-1.31-1.61,3,3,0,0,0-1.37.54,19.93,19.93,0,0,1-2.13,1.06l-1.51.56c-.95.34-1.77.63-1.77,1.72s.55,1.52,1.1,1.52l.58-.13a2.53,2.53,0,0,1,.82-.18h.06a3.72,3.72,0,0,1,.29,1.28l.59,4.75c.41,3.46.93,7.77,1.68,13.08s1.32,9,1.78,11.37c.68,3.52,1.07,4.38,2,4.38,1.35,0,1.86-1.3,2.44-2.8l.13-.31c2.63-6.76,5.32-14.17,8-22,.41,3,.89,6.65.89,6.65,2,15,2.47,18.22,4.47,18.22,1.07,0,1.33-.6,5.7-13l1.64-4.64c4.87-13.69,6.41-18.07,6.41-19.14,0-.21-.08-1.28-1.52-1.28M206,196.18c-1.22.1-2.54.18-4.14.23h-3.94c2.43-5.42,3.92-9.32,4.75-11.67,0-.11.08-.21.11-.32C204,189.22,205.06,193.22,206,196.18Zm11.68,11.64a1.41,1.41,0,0,0-.87.39,1,1,0,0,1-.53.28c-2,0-4.66-9.46-7.72-20.41-1.54-5.47-2.31-9.26-2.77-11.52-.55-2.71-.68-3.35-1.59-3.35s-2.88,1.64-2.9,1.66c-.45.4-.83.78-.83,1.3l.06.41.07.47c0,1.68-1.35,6.92-7.77,22.3-2.08,5-3.74,8.67-4.83,11.11-1.46,3.25-1.8,4-1.8,4.54a1.35,1.35,0,0,0,1.3,1.49c1,0,1.55-1.14,3.09-4.52.87-1.91,2-4.52,3.63-7.49s3.35-3.83,7.7-4.07c1.08-.06,2.29-.06,3.69-.06l.93,0,.74,0c4.61,14.91,5,14.94,6,14.94.62,0,1-.48,1.66-1.27.39-.46.87-1.05,1.51-1.71l1.55-1.43c.6-.52,1-.84,1-1.4S218.51,207.82,217.68,207.82Zm27,3.36a24.13,24.13,0,0,1-4.54-4.45,59.16,59.16,0,0,1-7.42-11.32,6,6,0,0,1,.48-.55l.62-.68a14.05,14.05,0,0,0,3.45-9.12c0-6-2.87-9.62-7.67-9.62a19,19,0,0,0-10.47,3.66c-1.21.84-2,1.39-2,2.23,0,1.24.38,1.86,1.12,1.86a3,3,0,0,0,1.63-.82,11.93,11.93,0,0,1,1.08-.71c.14,1.09.14,3.68.14,6v3.86c0,5.32,0,19.47-.42,21a2.84,2.84,0,0,1-1,1.36,1.88,1.88,0,0,0-.8,1.38c0,.62.39,1.79,1.31,1.79.49,0,.84-.31,1.69-1.08a32.75,32.75,0,0,1,3.18-2.59l2.52-1.68c1.56-1,2.21-1.41,2.21-2.19,0-.5-.31-1.86-1.28-1.86a1.78,1.78,0,0,0-1.08.51,2.83,2.83,0,0,1-1.5.73,17.89,17.89,0,0,1-.21-3.79V203c0-13.88.3-20.39.45-21.37s.6-2.36,2.16-2.36c2.14,0,3.76,3.22,3.76,7.49,0,3.39-1.53,6.41-3,7.53l-1,.65a1.65,1.65,0,0,0-1.08,1.49c0,1,1.06,2.64,5.15,8.15,5.28,6.95,7.92,10.28,10.47,10.28,1.27,0,3.23-.86,3.23-2C245.88,212.13,245.36,211.74,244.64,211.18ZM271,175.53c-.3,0-.49.12-1,.46s-1.33.83-2.46,1.41l-.68.25a1.48,1.48,0,0,0-1.28,1.45,1.65,1.65,0,0,0,.79,1.45l0,0c.39.73.39,4.18.39,6.47,0,7.91-.09,14.89-.26,19.77-2.91,2.13-5.47,3.14-8,3.14-2.9,0-5.09-1.06-6-2.92s-1-4.65-1-8.15v-3.55c0-11.77.71-14.67.93-15.28a3.18,3.18,0,0,1,1-1.43,2,2,0,0,0,.85-1.55c0-1-.57-1.73-1.31-1.73-.28,0-.48.1-1.13.44s-1.68.87-3.18,1.52l-.63.25c-.62.23-1.47.54-1.47,1.51l0,.37a44.28,44.28,0,0,1,.36,7l-.06,6.29-.07,6.86V201c0,4.66.15,7.93,2.18,10.79,1.55,2.17,4.2,3.36,7.45,3.36s6.17-1.77,9.49-3.81l.39-.24c0,.67-.06,1.42-.06,1.42l0,.55c0,1.46.71,1.77,1.31,1.77a2.34,2.34,0,0,0,1.07-.41,17.25,17.25,0,0,1,2.17-1c.48-.17,1.43-.51,1.43-1.5l-.14-.6c-.21-.56-.78-2-.78-7.23,0-10.29.15-17.51.46-22.73a15.9,15.9,0,0,1,.52-3.41l.09-.52C272.36,176.63,271.83,175.53,271,175.53Zm34.3,0a12.48,12.48,0,0,0-4.34,1.66l-.47.24c-.89.46-1.54.79-1.54,1.86,0,1.48.71,1.7,1.13,1.7a1.68,1.68,0,0,0,.88-.32,1.74,1.74,0,0,1,.86-.32c1.47,0,1.47,6.66,1.47,13.09,0,4.87-.14,9.5-.41,14.09-6.48-8.56-12.39-17.11-18-26.05.08-.59.18-1.09.26-1.48l.16-1c0-.49-.44-2-1.46-2l-.64.07-.77.08-.3,0c-1.13-2-1.42-2.38-2.08-2.38-1.14,0-2.87,2.92-2.87,3.57a3.22,3.22,0,0,0,.81,1.72,19.16,19.16,0,0,1,2.16,3.91c-2.19,17.55-4.28,28.11-5.17,32.62a20.29,20.29,0,0,0-.43,2.45,1.46,1.46,0,0,0,1.34,1.46c1.28,0,1.56-1.24,2.25-4.22l.22-1c1.06-4.71,3-13.28,5.2-26.31,14.79,21.63,18.52,26.76,20.37,26.76,1.55,0,1.62-1,1.71-2.41l.17-2.14a242.33,242.33,0,0,0,1.29-25.75C307.12,177.66,307.12,175.56,305.29,175.56Zm33.59,22.6c-.88,0-4.52,1.53-4.52,2.81a2,2,0,0,0,.53,1.17,4.92,4.92,0,0,1,1.09,3.38c0,3.83-2,5.54-6.45,5.54-8.75,0-13.56-5.72-13.56-16.12,0-9.62,4.71-15.6,12.3-15.6,4.34,0,7.35,1.57,8.07,3.12a4.54,4.54,0,0,1,.33,1.8c0,.53.06,1.78,1.29,1.78s1.36-1.13,1.61-2.7c.13-.85.31-2,.66-3.53a.84.84,0,0,0-.37-.9,22.35,22.35,0,0,0-12.05-3.47c-10.95,0-17.24,7.32-17.24,20.08,0,11.89,6.47,19.57,16.48,19.57a42,42,0,0,0,13-2.43.86.86,0,0,0,.59-.79l0-.83.07-3.62C340.71,198.84,339.92,198.16,338.88,198.16Z"/><polygon class="cls-2" points="250.45 191.34 250.41 191.33 250.42 191.34 250.45 191.34"/><polygon class="cls-2" points="250.71 191.37 250.54 191.34 250.51 191.34 250.48 191.34 250.45 191.34 250.45 191.34 250.6 191.37 250.71 191.37"/><path class="cls-2" d="M190,174.7h0Z"/><path class="cls-2" d="M274.67,179.09a14.76,14.76,0,0,0-.31,2.39c-.32,5.18-.46,12.35-.46,22.57,0,1.42,0,2.62.13,3.62,1-5.52,2.2-13.22,3.46-23.27a16.91,16.91,0,0,0-1.63-2.83A6.37,6.37,0,0,1,274.67,179.09Z"/><path class="cls-2" d="M156.15,174.77l.06,0Z"/><path class="cls-2" d="M398.45,220.66l-6.23-1.32-8.54-2.79-5.84-3.34s-6.41-2.88-8-2.66l-.45-.4a1.13,1.13,0,0,1,.57-1.17c1.08-.45.84-1.92,1-3l-.09-.09a6.45,6.45,0,0,1-2.31.66c-.91.12-.45-.91-1.09-1.23-.06-.49.3-.79.45-1.21a6.74,6.74,0,0,0,.1-1.47c.14-.42-.46-.78-.37-1.29a2.11,2.11,0,0,0-.18-2.41c-.24-.39-.84-.36-1.32-.36-.66,0-.15.57-.27.9,0,.54-.6.16-.84.4-.21,1-1.26,1-1.95,1.47-1,.42-2.38,0-3.58,0-.3-.12-.15-.42-.18-.63.15-.15.24-.37.45-.37-.42-.57-.3-1.38-.45-2,.36-.51,0-1.32.27-1.83a.72.72,0,0,1,1-.3c1-.45.81-1.72,1.23-2.59-.51-.36.21-.81-.12-1.2a1.61,1.61,0,0,0-1.11.84,2.93,2.93,0,0,1-1.44,0c-.78,0-.54-.81-.84-1.2-.43-.69.51-1.11.84-1.5-.3-.78.6-1.75-.48-2.11a1.07,1.07,0,0,1-.06-.75,2.73,2.73,0,0,0,1.14-2.22,2.81,2.81,0,0,0-2.14-2.74l-.45-12.38-.69,12.35a2.81,2.81,0,0,0-2.28,2.77,2.78,2.78,0,0,0,1.23,2.31,1,1,0,0,1-.09.75c-.66.24-.21,1.3-.36,2,.12.48.51.57.84.9.33.66-.15,1.17-.48,1.65a2.3,2.3,0,0,1-2.31.39c.06-.33.6-.51.87-.57a1.24,1.24,0,0,0-.76-.45c-.83.54-.66,1.5-.83,2.32.9.6.45,1.86,1.11,2.46.09-.09.24-.18.18-.36.12-.21.42-.66.72-.33a1.9,1.9,0,0,1,.45,1.56c-.09.84-1.05.48-1.35,1.08a1,1,0,0,1,.18.58,11.18,11.18,0,0,1-3.79.36,2.49,2.49,0,0,1-1.68-.64c0-.57-.37-1.11.3-1.5-.72-.54.15-1.17,0-1.83a1.64,1.64,0,0,1,.18-1.69c.72-.84-.6-1.41-.27-2.19.39-.39.63-1.59,1.47-1,.57.06.54-.6.84-.9.66.06.45-.87,1.11-.87a4.64,4.64,0,0,1,.82-2.2c-.3-.75-1.06-.12-1.57-.57.09-.63.93-.27,1.3-.63-.16-.78.27-1.42,0-2.14-.55.22,0,1.21-.85,1.48a7.35,7.35,0,0,1-4.81.66.11.11,0,0,0-.09,0,1.17,1.17,0,0,1-.3-.24c0-.45-.3-.9.24-1.2-.57-.45.12-1,0-1.51a1.36,1.36,0,0,1,.15-1.35c.6-.69-.48-1.14-.21-1.77.31-.33.51-1.3,1.18-.82.48,0,.45-.51.69-.75.54.06.36-.69.9-.69a3.85,3.85,0,0,1,.66-1.8c-.24-.6-.87-.09-1.26-.45.06-.51.75-.24,1-.51-.09-.63.24-1.14,0-1.75-.42.18,0,1-.66,1.21a6.19,6.19,0,0,1-3.76.57,1.17,1.17,0,0,1-.48-.3c0-.39-.24-.73.18-1-.45-.36.12-.78,0-1.2a1.17,1.17,0,0,1,.12-1.08c.48-.54-.39-.9-.15-1.44.24-.24.42-1.06,1-.67.36,0,.36-.39.54-.6.46.07.3-.54.73-.54a3.24,3.24,0,0,1,.54-1.47c-.21-.48-.7-.06-1-.36.06-.42.61-.18.85-.42-.09-.51.18-.93,0-1.38-.36.15,0,.78-.55,1a4.91,4.91,0,0,1-3.15.42h-.12a1.26,1.26,0,0,1-.36-.24c0-.3-.18-.6.15-.81-.36-.27.09-.6,0-1a1,1,0,0,1,.09-.91c.39-.45-.3-.75-.12-1.17.21-.21.33-.84.78-.54.3,0,.3-.3.45-.48.33,0,.24-.45.57-.45a2.34,2.34,0,0,1,.45-1.17c-.18-.39-.57-.06-.84-.3.06-.34.48-.15.69-.34-.09-.42.15-.75,0-1.14-.3.12,0,.63-.45.78a4.4,4.4,0,0,1-1.8.46.73.73,0,0,1-.42-.24c0-.25-.15-.48.12-.64-.31-.24.09-.51,0-.81a.77.77,0,0,1,.09-.72c.33-.36-.27-.6-.12-.93s.27-.69.63-.45c.27,0,.24-.24.36-.39.3,0,.21-.36.48-.36a2.29,2.29,0,0,1,.36-1c-.12-.29-.45,0-.69-.24.06-.27.42-.11.57-.27-.06-.33.12-.6,0-.9-.24.09,0,.51-.36.63a3.53,3.53,0,0,1-2,.31,2.26,2.26,0,0,0,.72-1.66,2.2,2.2,0,0,0-1.78-2.16l-.42-11.61-.63,11.64a2.2,2.2,0,0,0-1.62,2.13,2.14,2.14,0,0,0,.78,1.68c-.45.06-.75.1-.69.16-.18.33-.63,0-1,.15-.39,0-.18.47-.36.69-.24.39.48.6.3,1.08.12.15.39.36.36.57.48.27,0,.93.21,1.32,0,.09,0,.24-.15.27l0,0c-.18.69.21,1.65-.45,2.08a1.16,1.16,0,0,0-.64,0c-.48.06-.23.6-.44.84-.31.51.6.78.33,1.38.18.18.51.42.45.69.63.33.06,1.14.3,1.62,0,.13-.06.31-.18.33l-.06,0c-.21.87.3,2.1-.66,2.58,0,0,0,.06.08.09-.45.12-.18.72-.42,1-.39.6.73.93.42,1.69.22.21.61.54.55.84.75.42.06,1.41.36,2a.5.5,0,0,1-.24.39l-.06-.06c-.16.7,0,1.59-.11,2.29a23,23,0,0,1,4.11,2.09,3.47,3.47,0,0,1,1.48,3.67l-.63,3.36c-.25,1.59-.77,4.89-4.17,4.89-.63,0-3.77-.2-3.9-4.29a2.89,2.89,0,0,0-.09-.77c-.3-.45-2.16-1.63-5.71-1.63-6.07,0-9.69,4.85-9.69,13,0,9,3.68,13.51,10.94,13.51,3.67,0,3.86-1.11,3.86-2.93a2.46,2.46,0,0,0-.57-1.81,4.44,4.44,0,0,1-1.06-2.74c0-3.61,5.77-5.42,7.13-5.42,4.44,0,4.44,5.5,4.44,11.92,0,0-.07,3.62-.07,3.65l0,.83a3.5,3.5,0,0,1-2.38,3.19,44.49,44.49,0,0,1-13.8,2.56c-8.83,0-15.42-5.34-17.95-13.89q-.27,3.87-.67,7.64s-.17,2.14-.17,2.1c-.08,1.2-.31,4.85-4.31,4.85-2.93,0-4.77-2-18.9-22.62-1.75,9.62-3.26,16.28-4.13,20.14l-.22,1c-.73,3.21-1.43,6.25-4.79,6.25a4.07,4.07,0,0,1-4-4.07,16.13,16.13,0,0,1,.48-3c0-.21.09-.44.14-.68a6.67,6.67,0,0,1-.93.41l.07,0a16.49,16.49,0,0,0-1.88.89,4.47,4.47,0,0,1-2.3.72,3.74,3.74,0,0,1-3.38-2,15.87,15.87,0,0,1-7.72,2.33A11.75,11.75,0,0,1,248,214.6a6.47,6.47,0,0,1-5.38,2.85c-3.38,0-6.12-3-10.31-8.4,0,.17,0,.34,0,.51,0,2.2-1.58,3.21-3.38,4.37l-2.46,1.63a30.7,30.7,0,0,0-2.93,2.4c-1,.94-1.94,1.75-3.44,1.75a4,4,0,0,1-3.81-3.42,4.05,4.05,0,0,1-3.11,1.56c-3.05,0-3.67-1.34-7.88-14.89l-3.3,0c-3.86.22-4.59.92-5.55,2.69-1.53,2.9-2.7,5.46-3.56,7.35-1.77,3.9-2.75,6-5.46,6a4,4,0,0,1-3.91-4.1c0-1.08.35-1.86,2-5.6,1.09-2.44,2.74-6.11,4.81-11.05,6.68-16,7.49-20.17,7.55-21.17,0-.11-.09-.65-.09-.65a2.17,2.17,0,0,1,0-.36,4.33,4.33,0,0,1,1.7-3.26c1.19-1,3-2.31,4.63-2.31,3,0,3.55,2.52,4.15,5.44.45,2.22,1.2,5.94,2.73,11.34,1.89,6.78,4.19,15,5.69,18a3.73,3.73,0,0,1,.92-.12,4,4,0,0,1,.69.07c.05-3.08.08-7.48.08-13.73v-3.86c0-.59,0-1.26,0-1.92a1.81,1.81,0,0,1-.23,0c-1.73,0-3.74-1.17-3.74-4.47,0-2.21,1.66-3.36,3.16-4.4,4.06-2.72,8.07-4.1,11.92-4.1,6.24,0,10.28,4.8,10.28,12.23a16.74,16.74,0,0,1-4,10.75,66.27,66.27,0,0,0,6.32,9.27,25.74,25.74,0,0,0,2.51,2.71,38.81,38.81,0,0,1-.43-6.82v-1.41l.13-13.12a47.46,47.46,0,0,0-.33-6.6s0-.07,0-.1l0-.38a1.42,1.42,0,0,1,0-.29c0-1.85,1.07-3.19,3.12-3.94l.55-.21,3-1.45a4.69,4.69,0,0,1,2.32-.73,4.1,4.1,0,0,1,3.92,4.34,4.55,4.55,0,0,1-1.7,3.47c-.25.24-.25.24-.31.39s-.77,2.47-.77,14.4v3.54c0,2.36,0,5.58.71,7,.45.92,1.82,1.46,3.66,1.46a10.07,10.07,0,0,0,5.46-2c.15-4.76.22-11.19.22-18.34,0-1.13,0-3.91-.13-5.12a4.21,4.21,0,0,1-1.09-2.83,3.94,3.94,0,0,1,3.05-3.91h0a3.69,3.69,0,0,1,2.65-.14c-.09,0-.15-.12-.25-.15a2.48,2.48,0,0,0-2.06.18l2.27-1.3a3.92,3.92,0,0,1,6.36,3.13c.79-2,2.8-4.71,5.13-4.71,1.68,0,2.6.9,3.49,2.28h0l.29,0c2.65,0,4.07,2.68,4.07,4.62a2.83,2.83,0,0,1,0,.41l-.16,1s-.07.37-.09.52c4.07,6.49,8.34,12.8,12.93,19.12.06-2.18.09-4.37.09-6.61,0-3.13,0-7.48-.27-9.87-.11,0-.21,0-.33,0-1.8,0-3.74-1.35-3.74-4.32a4.5,4.5,0,0,1,3-4.17,4.07,4.07,0,0,1,1.81-.51,2.64,2.64,0,0,0-1.39.3,14.09,14.09,0,0,1,5.59-2c1.31,0,3.61.55,4.17,4.25a57.45,57.45,0,0,1,.26,7.6c2.89-7.64,9.21-12,18.08-12a25.52,25.52,0,0,1,3.81.29,90.8,90.8,0,0,0-28.52-38.26c-36.77-.7-62.62-5.51-84.56-1.05-.38-1.23,14.78-5.17,46.74-5.2,12,0,20.72-.11,28.17-.34a90.65,90.65,0,0,0-117.74,22.4c13.69.56,29.3.84,53.5.84,48.34,0,71.26,5.39,70.68,7.07-33.72-6.17-73.53.69-130.58,1.46a91.25,91.25,0,0,0-6.59,13.6,4.3,4.3,0,0,1,1.84,3.56,2.22,2.22,0,0,1,0,.37l-.07.5,0,.16a9.74,9.74,0,0,0-.21,2.22,121.14,121.14,0,0,0,1.34,14.4c3.2-9.13,4.14-12.84,4.22-13.58a1.72,1.72,0,0,0-.2-.92,4.64,4.64,0,0,1-.56-2.14,3.72,3.72,0,0,1,3.76-3.76H173l.54,0h0l2.53,0h.38a4.07,4.07,0,0,1,4.07,4.25,5.19,5.19,0,0,1-.38,1.84,6.27,6.27,0,0,0-.38,2.54A97.49,97.49,0,0,0,181,194c2.36-6.9,3.4-10.34,3.85-12a4,4,0,0,1,1.79-7.51h.17l.73,0,2.59.12.71,0h.11a3.88,3.88,0,0,1,4.13,3.89c0,1.47-.83,3.89-6.56,20l-1.64,4.64c-2.3,6.51-3.39,9.55-4.16,11.3-.56,1.28-1.5,3.41-4,3.41-3.5,0-4.36-3.71-4.77-5.49-.53-2.27-1-5.77-1.73-10.89-1.5,4.17-3,8.15-4.44,11.87l-.12.31c-.65,1.66-1.74,4.44-4.87,4.44-3.3,0-3.94-3.3-4.55-6.49-.47-2.43-1-6.08-1.81-11.5s-1.26-9.61-1.68-13.13c0,0-.26-2.1-.43-3.5a3.9,3.9,0,0,1-3-4.06c0-2.94,2.46-3.8,3.46-4.16l1.44-.54h0l1.86-.92.56-.3a4.78,4.78,0,0,0-.07-1.21l-.06.06a.5.5,0,0,1-.24-.39c.3-.6-.39-1.59.36-2-.06-.3.33-.63.58-.84-.34-.76.81-1.09.42-1.69-.25-.3,0-.9-.46-1,.07,0,.1-.06.1-.09-1-.48-.46-1.71-.64-2.58l-.06,0c-.12,0-.18-.2-.21-.33.27-.48-.3-1.29.3-1.62,0-.27.28-.51.45-.69-.24-.6.67-.87.34-1.38-.18-.24.06-.78-.42-.84a1.16,1.16,0,0,0-.64,0c-.69-.43-.3-1.39-.45-2.08l-.06,0c-.09,0-.12-.18-.15-.27.21-.39-.27-1.05.24-1.32,0-.21.21-.42.36-.57-.21-.48.51-.69.27-1.08-.18-.22,0-.67-.36-.69-.3-.18-.78.18-1-.15.06-.06-.24-.1-.69-.16a2.14,2.14,0,0,0,.78-1.68,2.2,2.2,0,0,0-1.62-2.13l-.63-11.64-.42,11.61a2.19,2.19,0,0,0-1.78,2.16,2.23,2.23,0,0,0,.73,1.66,3.55,3.55,0,0,1-2-.31c-.36-.12-.12-.54-.36-.63-.12.3.06.57,0,.9.18.16.51,0,.57.27-.24.22-.54-.05-.69.24a2,2,0,0,1,.36,1c.27,0,.18.39.48.36.12.15.12.42.36.39.36-.24.48.27.63.45s-.42.57-.12.93a.7.7,0,0,1,.09.72c-.06.3.3.57,0,.81.27.16.12.39.12.64a.73.73,0,0,1-.42.24,4.4,4.4,0,0,1-1.8-.46c-.42-.15-.15-.66-.42-.78-.15.39.06.72,0,1.14.18.19.63,0,.66.34-.27.24-.66-.09-.81.3a2.61,2.61,0,0,1,.42,1.17c.36,0,.24.48.6.45.15.18.12.51.45.48.42-.3.57.33.78.54.18.42-.54.72-.15,1.17a.9.9,0,0,1,.09.91c-.06.36.39.69,0,1,.36.21.18.51.15.81a.76.76,0,0,1-.36.24h-.12a4.94,4.94,0,0,1-3.15-.42c-.54-.18-.18-.81-.54-1-.19.45.08.87,0,1.38.23.24.78,0,.84.42-.34.3-.81-.12-1,.36a3.25,3.25,0,0,1,.55,1.47c.42,0,.3.61.72.54.18.21.18.64.57.6.54-.39.69.43,1,.67.21.54-.66.9-.18,1.44a1.09,1.09,0,0,1,.12,1.08c-.09.42.45.84,0,1.2.42.27.21.61.18,1a1,1,0,0,1-.48.3,6.22,6.22,0,0,1-3.76-.57c-.66-.21-.21-1-.66-1.21-.24.61.12,1.12,0,1.75.3.27,1,0,1,.51-.42.36-1-.15-1.29.45a3.89,3.89,0,0,1,.69,1.8c.51,0,.33.75.87.69.24.24.21.79.69.75.66-.48.88.49,1.21.82.27.63-.82,1.08-.21,1.77a1.36,1.36,0,0,1,.15,1.35c-.15.54.54,1.06,0,1.51.51.3.24.75.21,1.2a1.94,1.94,0,0,1-.27.24c-.06,0-.09,0-.12,0a7.35,7.35,0,0,1-4.81-.66c-.81-.27-.27-1.26-.81-1.48-.31.72.12,1.36,0,2.14.36.36,1.17,0,1.26.63-.51.45-1.23-.18-1.57.57a4.68,4.68,0,0,1,.85,2.2c.63,0,.42.93,1.08.87.3.3.27,1,.87.9.81-.57,1.08.63,1.44,1,.33.78-1,1.35-.24,2.19a1.78,1.78,0,0,1,.18,1.69c-.15.66.69,1.29,0,1.83.63.39.3.93.27,1.5a2.42,2.42,0,0,1-1.65.64,11.35,11.35,0,0,1-3.82-.36c0-.22.12-.4.18-.58-.27-.6-1.26-.24-1.35-1.08a2,2,0,0,1,.45-1.56c.3-.33.63.12.72.33-.06.18.12.27.18.36.66-.6.21-1.86,1.15-2.46-.18-.82,0-1.78-.85-2.32a1.17,1.17,0,0,0-.75.45c.24.06.78.24.84.57a2.3,2.3,0,0,1-2.31-.39c-.3-.48-.78-1-.45-1.65.33-.33.72-.42.81-.9-.12-.66.3-1.72-.36-2a1,1,0,0,1-.09-.75,2.78,2.78,0,0,0,1.23-2.31,2.81,2.81,0,0,0-2.28-2.77l-.66-12.35-.46,12.38a2.84,2.84,0,0,0-2.16,2.74,2.73,2.73,0,0,0,1.14,2.22,1.07,1.07,0,0,1-.06.75c-1.08.36-.18,1.33-.45,2.11.33.39,1.23.81.84,1.5-.3.39-.09,1.23-.84,1.2a3,3,0,0,1-1.47,0,1.56,1.56,0,0,0-1.11-.84c-.33.39.39.84-.09,1.2.39.87.21,2.14,1.2,2.59a.72.72,0,0,1,1,.3c.24.51-.06,1.32.3,1.83-.18.66,0,1.47-.48,2,.21,0,.3.22.48.37,0,.21.09.51-.18.63-1.23,0-2.58.42-3.61,0-.66-.45-1.74-.45-2-1.47-.24-.24-.78.14-.81-.4-.15-.33.36-.9-.3-.9-.48,0-1.08,0-1.29.36a2.08,2.08,0,0,0-.18,2.41c.06.51-.52.87-.37,1.29a6.12,6.12,0,0,0,.07,1.47c.14.42.51.72.48,1.21-.66.32-.18,1.35-1.12,1.23a6.63,6.63,0,0,1-2.31-.66l-.09.09c.18,1.05-.09,2.52,1,3a1.18,1.18,0,0,1,.57,1.17l-.48.4c-1.58-.21-4-1.21-5.09.42-2.52,1-5.83,2.57-5.83,2.57l-5.93,3.39-8.64,2.83-6.33,1.33-3.32,3h1.38l2.52.83,6.32.48,8.65,1,5.92,1.24s3.32.56,5.83.94c1.1.59,3.51.23,5.09.15l.48.15c.09.18-.18.31-.57.42-1.11.17-.84.71-1,1.09l.09,0a17.62,17.62,0,0,1,2.32-.24c.93,0,.45.33,1.11.45,0,.18-.33.29-.48.44s0,.4-.06.54.42.28.36.47c-.48.29-.36.62.18.88a3.33,3.33,0,0,0,1.29.13c.66,0,.15-.21.3-.33s.57-.05.81-.14c.21-.37,1.29-.37,2-.54a28.77,28.77,0,0,1,3.6,0c.28,0,.15.16.18.23a1.27,1.27,0,0,1-.48.13c.45.21.3.51.48.75-.36.19-.06.49-.3.67a1.46,1.46,0,0,1-1,.11c-1,.17-.81.63-1.2,1,.48.13-.24.29.09.43a2.33,2.33,0,0,0,1.11-.3,7.22,7.22,0,0,1,1.47,0c.76,0,.55.29.85.44s-.52.4-.85.55c.28.28-.63.63.45.76a.18.18,0,0,1,.07.28c-.7.18-1.15.48-1.15.81,0,.49.93.89,2.17,1l.45,4.53.66-4.52c1.29-.08,2.28-.5,2.28-1,0-.35-.48-.66-1.23-.84-.06-.09-.06-.18.09-.28.66-.09.24-.47.36-.71-.09-.18-.48-.21-.81-.33s.15-.43.45-.61a5.87,5.87,0,0,1,2.32-.14c-.06.12-.6.19-.85.21a2.09,2.09,0,0,0,.76.16c.84-.19.66-.54.84-.84-.93-.22-.48-.68-1.14-.9-.06,0-.25.07-.18.13a.82.82,0,0,1-.73.12c-.27-.16-.63-.37-.45-.57s1.08-.18,1.36-.39c-.06-.07-.21-.14-.18-.21a27.52,27.52,0,0,1,3.81-.13,5.47,5.47,0,0,1,1.66.22c0,.21.36.41-.27.55.69.2-.16.43,0,.67s.24.44-.18.62c-.76.31.57.52.24.8s-.64.58-1.45.37c-.6,0-.57.22-.87.33-.66,0-.45.32-1.08.32a1.56,1.56,0,0,1-.84.8c.33.28,1,.05,1.56.21-.09.23-.9.1-1.26.23.12.29-.3.52,0,.78.54-.07,0-.44.81-.54a19.39,19.39,0,0,1,4.81-.24h.12l.27.09c0,.17.3.33-.21.44.54.17-.15.35,0,.55s.21.35-.15.49c-.6.26.48.42.21.65s-.54.47-1.2.3c-.48,0-.45.19-.69.27-.55,0-.37.26-.88.26a1.3,1.3,0,0,1-.69.66c.27.22.87,0,1.3.16-.1.19-.76.09-1.06.19.12.23-.24.41,0,.63.45-.06,0-.36.66-.44a16.51,16.51,0,0,1,3.76-.2,1.54,1.54,0,0,1,.48.11c0,.14.24.26-.18.36.45.13-.09.28,0,.44s.18.27-.12.39c-.48.2.39.33.18.53s-.42.38-1,.24c-.39,0-.39.14-.57.22-.42,0-.3.2-.72.2a1.07,1.07,0,0,1-.54.54c.21.17.69,0,1,.13-.06.15-.6.06-.84.15.09.19-.18.34,0,.51.36-.06,0-.29.54-.35a12.52,12.52,0,0,1,3.15-.16h.12a1.87,1.87,0,0,1,.36.09c0,.11.22.22-.15.3.39.1-.06.22,0,.35s.15.23-.09.33.34.27.15.43-.36.3-.78.19-.3.11-.45.18c-.36,0-.24.16-.6.16a.79.79,0,0,1-.42.43c.15.15.54,0,.81.11,0,.12-.48.06-.66.12.06.16-.15.28,0,.42.27,0,0-.23.42-.28a11.14,11.14,0,0,1,1.81-.17,1.12,1.12,0,0,1,.42.09c0,.09.15.17-.12.23.3.09-.06.19,0,.3s.12.18-.1.26.27.22.12.34a.68.68,0,0,1-.63.16c-.24,0-.24.09-.36.15-.3,0-.21.13-.48.13a.61.61,0,0,1-.36.35c.15.11.45,0,.69.09-.06.1-.39,0-.57.1.06.12-.12.22,0,.33.24,0,0-.19.36-.23a8.84,8.84,0,0,1,2-.11c-.45.15-.72.36-.72.6,0,.4.75.71,1.77.79l.42,4.24.63-4.25c.93-.09,1.62-.41,1.62-.78s-.3-.47-.78-.62a3,3,0,0,0,.69,0c.18-.12.67,0,1-.05s.18-.18.36-.26-.48-.22-.27-.39c-.15-.06-.39-.13-.36-.21-.52-.1,0-.34-.25-.48,0,0,.06-.09.16-.1h.06c.15-.26-.25-.61.45-.76a3.31,3.31,0,0,0,.63,0c.48,0,.24-.22.42-.31.33-.18-.57-.28-.33-.5-.18-.07-.48-.16-.45-.26-.6-.12,0-.41-.3-.59a.28.28,0,0,1,.21-.12h.06c.18-.32-.33-.77.63-.94,0,0,0,0-.09,0,.45,0,.21-.26.45-.37.39-.22-.75-.34-.42-.61-.24-.08-.63-.2-.57-.31-.75-.16-.06-.52-.36-.74a.3.3,0,0,1,.24-.14l.06,0c.27-.39-.36-.95.81-1.17v0c.72,0,.36-.32.66-.47.48-.27-.87-.43-.51-.75-.27-.1-.75-.25-.69-.39-.93-.2-.06-.64-.42-.9a.3.3,0,0,1,.27-.2l.09,0c.3-.46-.39-1.12.78-1.4l.24,0c.9,0,.45-.41.81-.59.6-.35-1.08-.52-.63-.93-.33-.13-.93-.31-.84-.48-1.17-.23-.09-.78-.54-1.11a.43.43,0,0,1,.36-.24l.09,0c.39-.59-.57-1.46,1.23-1.79-.09-.35.42-.62.51-.95-1-.35-.21-1-1.38-1.31a3.55,3.55,0,0,1-.06-.55l.12-.17s-.45-.32,1.32-.64,2.22-.5,3.58-.82,2.22-.49,2.22-.49-.51-.17,1.78-.48.12-.49,2.28-.32a17.91,17.91,0,0,0,3.07.15,14.1,14.1,0,0,0,3.12-.16,27.82,27.82,0,0,1,3.13-.17c1.77,0,3.3.34,4.33.25a4.65,4.65,0,0,1,1.92-.08,16.92,16.92,0,0,0,3.55.33c3.57.16,1.8.16,4.48.31s2.67.33,4,.33h5.8c1.81,0,4.9-.16,4.9-.16h3.13c1.8,0-2,.19,2.22.16s2.14-.37,4.21,0a21.65,21.65,0,0,1,3.4.84l3.12.16h3.1s-.24.28,2.34,0,6.59-1.12,6.59-1.12-.15.27,2.67-.17l2.83-.42s3.87.27,6.52.42a28.08,28.08,0,0,0,3.55.17c2.25,0,3.12-.48,4.93-.32a19.78,19.78,0,0,1,3.12.32,35.14,35.14,0,0,0,5.35.66h2.68c2.67,0,3.09.32,4.44,0a13,13,0,0,1,3.58-.17c1.33,0,5.8-.49,7.58-.66s2.22-.48,4.45-.64a33.78,33.78,0,0,1,4.47,0h4.9s2.23.16,5.35.33,7.13.64,7.13.64a18.89,18.89,0,0,0,4.9,0c3.12-.33,2.67-.81,4.93-.48a25.48,25.48,0,0,0,3.12.32l5.77.49,4,.65,1.32,1.95a1.42,1.42,0,0,0,.49,1c.14.3.57.56.51.88,1.8.33.81,1.2,1.2,1.79l.09,0a.39.39,0,0,1,.36.24c-.45.33.63.88-.54,1.11.09.17-.51.35-.84.48.48.41-1.23.58-.64.93.4.18-.09.55.82.59l.24,0c1.17.28.48.94.78,1.4l.09,0a.41.41,0,0,1,.3.2c-.39.26.48.7-.45.9.06.14-.42.29-.69.39.39.32-1,.48-.51.75.3.15-.06.44.66.47h0v0c1.17.22.54.78.78,1.17l.06,0a.3.3,0,0,1,.24.14c-.3.22.39.58-.36.74.06.11-.33.23-.54.31.3.27-.81.39-.42.61s0,.33.42.37l-.09,0c1,.17.45.62.66.94h.06a.21.21,0,0,1,.18.12c-.24.18.33.47-.3.59.06.1-.27.19-.45.26.27.22-.63.32-.33.5s0,.29.45.31a3.3,3.3,0,0,0,.63,0c.66.15.27.5.45.76h0c.12,0,.15.06.15.1-.18.14.27.38-.21.48,0,.08-.24.15-.36.21.18.17-.54.25-.3.39s0,.24.36.26.78-.07,1,.05a3,3,0,0,0,.69,0c-.48.15-.78.37-.78.62s.69.69,1.63.78l.63,4.25.42-4.24c1-.08,1.77-.39,1.77-.79,0-.24-.27-.45-.72-.6a8.75,8.75,0,0,1,2,.11c.36,0,.12.19.36.23.12-.11-.06-.21,0-.33-.15-.06-.51,0-.57-.1.24-.08.57,0,.69-.09-.24-.1-.27-.23-.36-.35-.27,0-.18-.14-.48-.13-.12-.06-.09-.16-.36-.15s-.45-.09-.63-.16.45-.21.12-.34-.15-.18-.09-.26-.3-.21,0-.3c-.27-.06-.12-.14-.12-.23a1.12,1.12,0,0,1,.42-.09,11.12,11.12,0,0,1,1.8.17c.45.05.15.24.45.28.16-.14-.09-.26,0-.42-.21-.06-.63,0-.69-.12.27-.09.66,0,.85-.11a.78.78,0,0,1-.46-.43c-.33,0-.24-.17-.57-.16-.15-.07-.15-.19-.45-.18s-.57-.12-.78-.19.51-.27.12-.43c-.21-.1-.18-.22-.09-.33s-.36-.25,0-.35c-.33-.08-.15-.19-.15-.3s.24-.06.36-.09h.12a12.52,12.52,0,0,1,3.16.16c.54.06.18.29.54.35.18-.17-.09-.32,0-.51-.24-.09-.78,0-.84-.15.33-.11.81,0,1-.13a1.07,1.07,0,0,1-.54-.54c-.42,0-.27-.22-.72-.2-.18-.08-.18-.23-.54-.22-.55.14-.73-.15-1-.24s.63-.33.15-.53c-.27-.12-.21-.27-.12-.39s-.45-.31,0-.44c-.42-.1-.18-.22-.18-.36a1.78,1.78,0,0,1,.48-.11,16.35,16.35,0,0,1,3.76.2c.66.08.24.38.66.44.24-.22-.09-.4,0-.63-.27-.1-1,0-1-.19.39-.13,1,.06,1.26-.16a1.23,1.23,0,0,1-.66-.66c-.54,0-.36-.28-.9-.26-.24-.08-.21-.28-.69-.27-.66.17-.87-.18-1.17-.3s.81-.39.21-.65c-.36-.14-.27-.32-.15-.49s-.57-.38,0-.55c-.54-.11-.27-.27-.24-.44l.3-.09h.09A19.41,19.41,0,0,1,352,238c.84.1.3.47.84.54.27-.26-.15-.49,0-.78-.36-.13-1.2,0-1.3-.23.52-.16,1.27.07,1.57-.21a1.49,1.49,0,0,1-.81-.8c-.66,0-.45-.34-1.11-.32-.31-.11-.28-.35-.85-.33-.84.21-1.08-.23-1.47-.37s1-.49.27-.8c-.45-.18-.36-.41-.18-.62s-.72-.47,0-.67c-.66-.14-.33-.34-.3-.55a5.57,5.57,0,0,1,1.68-.22,27.17,27.17,0,0,1,3.79.13c0,.07-.09.14-.18.21.3.21,1.26.08,1.35.39s-.15.41-.45.57a.81.81,0,0,1-.72-.12c.06-.06-.09-.1-.18-.13-.66.22-.21.68-1.11.9.18.3,0,.65.84.84a2.17,2.17,0,0,0,.75-.16c-.27,0-.81-.09-.87-.21a5.83,5.83,0,0,1,2.31.14c.33.18.82.37.48.61s-.72.15-.84.33c.15.24-.3.62.36.71.15.1.15.19.09.28-.75.18-1.23.49-1.23.84,0,.51,1,.93,2.29,1l.69,4.52.45-4.53c1.23-.11,2.13-.51,2.13-1,0-.33-.45-.63-1.14-.81a.19.19,0,0,1,.06-.28c1.08-.13.18-.48.48-.76-.33-.15-1.26-.3-.84-.55s.06-.45.84-.44a6.93,6.93,0,0,1,1.44,0,2.44,2.44,0,0,0,1.12.3c.33-.14-.39-.3.12-.43-.42-.32-.24-.78-1.24-1a1.46,1.46,0,0,1-1-.11c-.24-.18.09-.48-.27-.67.15-.24,0-.54.45-.75a1,1,0,0,1-.45-.13c0-.07-.12-.18.18-.23a28.47,28.47,0,0,1,3.58,0c.69.17,1.74.17,1.95.54.24.09.81,0,.84.14s-.39.33.28.33A3.6,3.6,0,0,0,368,233c.54-.26.63-.59.18-.88-.09-.19.51-.32.36-.47s.06-.38-.09-.54-.51-.26-.45-.44c.63-.12.18-.49,1.08-.45a17.1,17.1,0,0,1,2.31.24l.09,0c-.15-.38.09-.92-1-1.09-.39-.11-.69-.24-.57-.42l.45-.15a78,78,0,0,0,8-1l5.85-1.22,8.53-1,6.24-.48,3.06-.87h1.64Zm-61.3-26.12c-.09-.7-.2-1.4-.31-2.11C337.51,192.92,337.22,193.78,337.15,194.54Z"/><path class="cls-2" d="M264.8,182.67a5.8,5.8,0,0,1-.51-.47A2.65,2.65,0,0,0,264.8,182.67Z"/><path class="cls-2" d="M228.68,182.6c-.08,1.1-.2,3.71-.28,8.4a9.15,9.15,0,0,0,1.07-4.25A9.62,9.62,0,0,0,228.68,182.6Z"/><path class="cls-2" d="M202.56,193.76c-.09-.29-.17-.6-.26-.9l-.4.94Z"/><path class="cls-2" d="M228.31,205.11l.18,0a3.48,3.48,0,0,1,.93.13l-1.11-1.52Z"/><path class="cls-2" d="M228.39,191.83a3.32,3.32,0,0,1,.76-.16,2.79,2.79,0,0,0-.76.11Z"/><path class="cls-2" d="M322.16,241.14a3.9,3.9,0,0,0,1.93-3.53c0-2-.94-3.16-2.84-3.41-.24,0-.49,0-.77,0a14.15,14.15,0,0,0-4.07.74c-.37.08-.5,0-.5.45,0,.13,0,.17.09.17a9.17,9.17,0,0,1,1.23-.25h.25c.08.94.08,2,.08,3.41,0,5.95-.21,9.44-.54,10.47a5.25,5.25,0,0,1,.91-.12,25,25,0,0,0,3,.41h.36a4,4,0,0,0,4.11-4.35C325.36,243.07,324.29,241.8,322.16,241.14ZM318.75,237a2.29,2.29,0,0,1,.13-1.1,1.79,1.79,0,0,1,1.64-.73h.23a2.15,2.15,0,0,1,2,2.4,2.68,2.68,0,0,1-2,2.86,2.43,2.43,0,0,1-.73.11,4.4,4.4,0,0,1-1.27-.24Zm2.5,11.68H321a2.2,2.2,0,0,1-2-.91,2.77,2.77,0,0,1-.16-1.35v-4.07a5.65,5.65,0,0,1,1.56-.28,3.21,3.21,0,0,1,.9.12,3.32,3.32,0,0,1,2.47,3.53A2.66,2.66,0,0,1,321.25,248.66Z"/><path class="cls-2" d="M175.45,241.14a3.88,3.88,0,0,0,1.93-3.53c0-2-.94-3.16-2.83-3.41-.25,0-.49,0-.78,0a14.15,14.15,0,0,0-4.07.74c-.37.08-.49,0-.49.45,0,.13,0,.17.08.17a9.17,9.17,0,0,1,1.23-.25h.25c.08.94.08,2,.08,3.41,0,5.95-.2,9.44-.53,10.47a5.17,5.17,0,0,1,.9-.12,25.38,25.38,0,0,0,3,.41h.37a4,4,0,0,0,4.1-4.35C178.65,243.07,177.63,241.8,175.45,241.14ZM172.22,237a2.29,2.29,0,0,1,.13-1.1,1.79,1.79,0,0,1,1.64-.73h.23a2.16,2.16,0,0,1,2,2.4,2.68,2.68,0,0,1-2,2.86,2.48,2.48,0,0,1-.73.11,4.35,4.35,0,0,1-1.27-.24Zm2.33,11.68h-.29a2.17,2.17,0,0,1-2-.91,3.33,3.33,0,0,1-.17-1.35v-4.07a5.64,5.64,0,0,1,1.57-.28A3.36,3.36,0,0,1,177,245.7,2.65,2.65,0,0,1,174.55,248.66Z"/><path class="cls-2" d="M309.29,234.61c0-.2-.16-.41-.24-.41s-.54.33-1.4.7c-.45.16-.66.12-.66.37s.21.29.29.41a7.45,7.45,0,0,1,.25,2.8c0,3.73-.08,6.4-.13,8.13a7.15,7.15,0,0,1-4,1.43,3.28,3.28,0,0,1-3-1.4,7.6,7.6,0,0,1-.49-3.4V241.8a25.59,25.59,0,0,1,.45-6.24c.29-.74.82-.74.82-1.07s-.12-.37-.2-.37-.66.33-1.81.74c-.41.16-.7.2-.7.41a16.8,16.8,0,0,1,.16,3c0,1.68,0,3.45,0,5.3v.53c0,1.77,0,3,.91,4.15a3.73,3.73,0,0,0,3,1.19c1.6,0,3-.91,4.84-1.89v.29a10.16,10.16,0,0,1-.08,1.1c0,.25,0,.37.21.37s.53-.28,1.31-.53c.25-.08.41-.12.41-.29s-.41-.49-.41-3.16c0-3.86.08-6.86.21-9.12A6.37,6.37,0,0,1,309.29,234.61Z"/><path class="cls-2" d="M193.25,247.8a9.58,9.58,0,0,1-2.76.32,23.27,23.27,0,0,1-3.57-.32v-1c0-1.6,0-3.2.08-4.89a13.71,13.71,0,0,1,1.85-.08c1.32,0,2,.08,2.09.08.42,0,.58-.74.58-1s-.12-.17-.49-.17h-.95c-1.43,0-2.46,0-3.08.09,0-2.18,0-4,.13-5.3a11,11,0,0,1,1.76-.08c1.11,0,1.77,0,2,.2.09,0,.13.16.21.16s.41-.94.41-1.1c0-.33-.9-.33-2.71-.33-1.48,0-2.88,0-4.23.08-.21,0-.33,0-.33.33s.08.24.25.24.28,0,.61,0c.09,0,.21,0,.45,0a15.23,15.23,0,0,1,.17,3.25c0,3.2-.08,6.78-.29,10.68a19.75,19.75,0,0,0,2.51.16,17.31,17.31,0,0,0,4.64-.33,1.65,1.65,0,0,0,.78-.9A.13.13,0,0,0,193.25,247.8Z"/><path class="cls-2" d="M247.49,234.45c-.16,0-.66.08-1.56.08-.33,0-.66,0-1,0s-.37.08-.37.29c0,.41.25.12.66.33.21.12.25.61.25,1.52v.73a11.85,11.85,0,0,1-.21,3.29c-.24.21-1.56.37-4,.37-1.36,0-2.63-.08-3.87-.2,0-3.46,0-5.34.29-5.67s.83,0,.83-.5c0-.16-.05-.2-.17-.2s-1,0-2.63,0h-.37a.26.26,0,0,0-.29.29c0,.24.05.28.17.28h.2c.62,0,.62.5.62,2.18,0,4.39,0,7.85-.21,10.31-.08,1.15-.16,1.56-.16,1.64a.3.3,0,0,0,.29.29,6.57,6.57,0,0,1,1.56-.66c.41-.08.58,0,.58-.37a.2.2,0,0,0-.13-.2c-.08,0-.2,0-.29,0-.41,0-.45-.33-.45-1a25.77,25.77,0,0,1,.21-5c.16-.41.82-.41,2.09-.41,2,0,3.9.08,5.79.21,0,.74.08,1.52.08,2.3,0,2.75-.2,4.23-.2,4.48s0,.28.16.28.54-.28,1.36-.49c.61-.21.82-.17.82-.49a.19.19,0,0,0-.21-.21c-.08,0-.2,0-.28,0-.33,0-.37-.37-.37-1.56,0-7.23.2-11,.37-11.29s.74,0,.74-.5C247.74,234.49,247.7,234.45,247.49,234.45Z"/><path class="cls-2" d="M228.59,246.44a10.09,10.09,0,0,1-5.63,2c-3.41,0-5.5-2.63-5.5-6.28,0-4.15,2.54-7,6.48-7,2.39,0,3.74.69,3.74,1.8a6.14,6.14,0,0,1-.08.62.27.27,0,0,0,.25.24c.16,0,.24-.37.45-.94a4.47,4.47,0,0,0,.41-1.11c0-.33-2.18-1.56-5.3-1.56-4.84,0-7.64,3.29-7.64,8.22,0,4.47,2.34,7.06,6.29,7.06a12.28,12.28,0,0,0,7.31-2.75.48.48,0,0,0,.24-.49V246c0-.16,0-.25-.08-.25S229.12,246.07,228.59,246.44Z"/><path class="cls-2" d="M278.84,245.78c-.12,0-.37.29-.95.66a9.94,9.94,0,0,1-5.58,2c-3.45,0-5.55-2.63-5.55-6.28,0-4.15,2.55-7,6.49-7,2.43,0,3.78.69,3.78,1.8a4.23,4.23,0,0,1-.12.62.27.27,0,0,0,.28.24c.17,0,.21-.37.46-.94a5,5,0,0,0,.41-1.11c0-.33-2.22-1.56-5.34-1.56-4.85,0-7.64,3.29-7.64,8.22,0,4.47,2.34,7.06,6.32,7.06a12.12,12.12,0,0,0,7.27-2.75c.21-.17.25-.21.25-.49V246C278.92,245.87,278.92,245.78,278.84,245.78Z"/><path class="cls-2" d="M292.65,247.88a14.14,14.14,0,0,1-2.34.16,13.7,13.7,0,0,1-3.57-.37c-.09-1.76-.13-3.69-.13-5.79,0-5.95.25-8.34.25-8.5a.45.45,0,0,0-.25-.33c-.16,0-.58.45-1.52.91-.45.16-.7.2-.7.36s.09.29.17.29a.8.8,0,0,1,.29-.08c.45,0,.45.9.45,3.16v2c0,4.69-.05,7.85-.21,9.41a14.6,14.6,0,0,0,1.77.12c4,0,5.95-.2,5.95-1.19A.18.18,0,0,0,292.65,247.88Z"/><path class="cls-2" d="M211.08,247.18c-.12,0-.33.25-.66.25-1.15,0-2-2.63-3.82-8.46-1.27-3.95-1.39-5.71-1.6-5.71a3.22,3.22,0,0,0-1.07.57c-.12.13-.2.21-.2.29a2.24,2.24,0,0,1,0,.37c0,1-1.19,4-3.53,9.07-1.89,4-3,5.88-3,6.13s.08.28.21.28c.41,0,1.07-1.89,2.71-4.64.78-1.35,1.8-1.72,3.73-1.8.5-.05,1.07-.05,1.69-.05.29,0,.61,0,1,0,1.4,4,2.14,6,2.43,6s.45-.45,1.15-1.07,1-.78,1-.9A.38.38,0,0,0,211.08,247.18Zm-7.15-4.6h-2.34c1.11-2.22,1.89-3.94,2.34-5.13.21-.54.37-1,.5-1.32.74,2.88,1.39,5,1.89,6.33Z"/><path class="cls-2" d="M227.59,286.67l.74.11a25.66,25.66,0,0,1,2.62-.4l.35,0c.23,0,.36.15.39.5l4.77-.4c.68-.06,1.62-.08,2.82-.07l.34-.2,1.08.08a8.89,8.89,0,0,0,1.75-.32l.71.12a17,17,0,0,1,2.27-.37h.18a1.6,1.6,0,0,1,.73.11,1.46,1.46,0,0,1,.51-.22v.18l.34-.2.89-.08a1.8,1.8,0,0,1,.89.1l1.05-.26.87-.07.88.09,0,.35-6.16.52c-.67.42-1,.75-1,1l1.45.23,0,.35-1.24.1c-1.25.53-1.88.87-1.86,1l.34,0,.05.55h-.17a.15.15,0,0,1-.19-.16l-.33.2-2.84.24a18.77,18.77,0,0,1-5.22,1l-.35,0c0,.23.18.34.38.32l2.11-.17c.81,0,1.23,0,1.24.24.12,0,.18-.07.16-.19h2.16l.52,0,0,.35-4.05.34a14.43,14.43,0,0,0-1.93.34l-.36-.15a28.41,28.41,0,0,1-2.82.41l-1.59.14a1.27,1.27,0,0,0-.68.25c-.11,0-.18,0-.19-.18q-3.51.5-12.84,1.45a1.16,1.16,0,0,1-.51.22,1.79,1.79,0,0,0-.89-.1l-.34,0-1.06.26c-.11,0-.17,0-.19-.16l-1.22.28-3.88.33a1.35,1.35,0,0,0-.68.23l-.36-.15q-1.42.12-2.64,4.66-1.38,2.39-8.72,22.9a39.46,39.46,0,0,1-1.28,3.84c.06.68-.49,1.91-1.64,3.69l.2.34c-.36.24-.63,1.21-.81,2.89l-.17,0,0-.35h-.17l0,.7c-.24,0-.33.5-.25,1.45h-.17l-.37-.14-2.58,7.14c-.18.55-.4.86-.64.93l-.18,0a.3.3,0,0,1-.37-.32l1.8-3.88,0-.52a1.15,1.15,0,0,1-.53-.13c-1,2.88-1.8,4.6-2.42,5.16h-.18a.31.31,0,0,1-.38-.32l-.85.25-.37,0-.06-.69.38.14.29-.75L185,341l.54-1.82c-.29,0-.49-.19-.58-.65q5.25-15.62,6.84-19.92,0-.42,6.32-17.75c-.05-.68.52-2.27,1.73-4.75,0-.2-.32-.35-.91-.45l-6.68.91-.37-.15q-5.16.8-19.66,2.53l-.2-.34c0-.23.12-.36.32-.37l.89-.08c.58-.05,1.46-.18,2.62-.39l0-.35c-.08-.89-1-1.47-2.8-1.72l0-.52a49.15,49.15,0,0,1,8-1.4l0-.35q-.9.08-.93-.27l0-.35,2.49-.21a1.49,1.49,0,0,0,.68-.23,1.37,1.37,0,0,0,.71.12l.52,0v-.17l-1.76-.05-.54,0q-.53,0-.51.24l-.89-.12-1.41.12c-2.83.48-4.41.74-4.72.77l-.42-.52c.34-.38,1.44-.64,3.31-.8l11.11-.93a1.32,1.32,0,0,0,.68-.24l.37.15c4.59-.5,7.17-.84,7.72-1a1.21,1.21,0,0,1,.54.13c2.11-.29,5.51-.7,10.19-1.2,0-.24.14-.37.34-.38l.17,0,.55.31.7-.06a2.6,2.6,0,0,1,1.26.07,8.63,8.63,0,0,1,1.75-.32c1.82-.16,4.63-.45,8.43-.89l.34-.2a1.29,1.29,0,0,0,.56.13.16.16,0,0,0,.16-.19l.71.12A37.53,37.53,0,0,0,227.59,286.67Zm-53.18,9.06a1.26,1.26,0,0,1,.56.13,1.16,1.16,0,0,1,.51-.22l0,.17a7.76,7.76,0,0,1,2.07-.7l0-.17-1.07.09C175.08,295.2,174.39,295.43,174.41,295.73Zm19.84-.44-8.8.74q-1.14.09-7,1.14c.07.23.2.33.38.32l.54-.05c1.18-.1,2.64-.28,4.39-.54l.71.11a41.31,41.31,0,0,1,4.9-.93l1.23.07a12,12,0,0,0,2.81-.59,1.37,1.37,0,0,0,.71.12l.33-.2c.12,0,.18,0,.19.15a1.36,1.36,0,0,0,.53-.21l1.23.07a24.75,24.75,0,0,1,2.48-.39l0-.19-.74-.12a1.39,1.39,0,0,0-.68.24,9.07,9.07,0,0,0-1.6,0,1.42,1.42,0,0,0-.51.22.15.15,0,0,1-.19-.16ZM184.77,292l0,.37a1.21,1.21,0,0,1,.5-.22V292Zm15.16-.9-3.15.27a1.53,1.53,0,0,0-.71.23.15.15,0,0,1-.19-.16c-2.66.34-4.81.7-6.47,1.07v-.18l-.34.21-1.76.15.2.33.86-.25q3.57-.3,13.53-1.66l.14-.36ZM189.5,336l-.08,1.06c.2,0,.34-.38.43-1.09Zm1.33.94.35,0-.1.91-.35,0Zm6.89-21.5-.12.7c.23,0,.33-.2.31-.54l0-.18Zm.41-1.29.05.52c.25,0,.36-.15.34-.38v-.17Zm1.89-5.32a1.4,1.4,0,0,1-.14.74h.2a.32.32,0,0,0,.32-.38A.33.33,0,0,0,200,308.82Zm1.74-4.57a1.6,1.6,0,0,1-.11.73l.34,0-.06-.73Zm1.45-3.85,0,.37.35,0a1.48,1.48,0,0,1,.12-.73h-.18A.35.35,0,0,0,203.21,300.4Zm.58-1.45a1.34,1.34,0,0,1-.13.54l0,.17.17,0a1.27,1.27,0,0,1,.13-.53v-.18Zm1-3.11a7.7,7.7,0,0,1-.73,2l0,.35c.4,0,.75-.83,1-2.39Zm27.09-4.75v.17l1.59-.13V291Z"/><path class="cls-2" d="M248.42,284.89a4,4,0,0,1,3.35,1.77l-2,.17a21.88,21.88,0,0,0-7.33,2.45l0,.22.23,0c4.3-.66,7.45-1.07,9.48-1.24l.44,0,0,.45-.89.07a.2.2,0,0,1-.24-.2l-12.11,2.84c0,.18-.72.47-2.2.86l0,.45,3.36-1,.22,0,0,.45q-14.85,5.26-14.7,7.16-6.88,6.84-9.66,12.45-4.26,9.27-3.86,14t5.6,6.83a6.59,6.59,0,0,0,1.61.09,28.16,28.16,0,0,0,13.82-14.62A67.61,67.61,0,0,0,235,307.69l.47,0L235.4,312c.46,0,.75-1.2.86-3.48a7.33,7.33,0,0,1-.38-1.79l-.06-.7.45,0c.34,2.28.55,3.86.62,4.76a29.12,29.12,0,0,1-.6,6.21q1.17-1.23,2.3-7.73.28-6.18.86-6.23a.2.2,0,0,0,.24.21,8.45,8.45,0,0,0-.22,2.74l0,.23.22,0a21.61,21.61,0,0,0,.65-5.74,3.71,3.71,0,0,1-.56-1.33l.43-.26c.44,0,1,1.13,1.67,3.51q.75,9-5.55,23.72-5.19,9.17-14,12.59a24.07,24.07,0,0,1-7.59,2q-9.27-1.75-10.21-12.83-1-12.63,8.27-23.75,3-3.9,12.95-11.57A52.86,52.86,0,0,1,248.42,284.89ZM208.15,313.6q-2.72,8.19-2.41,11.84,1,7.17,2.37,9.16l.22,0,0-.47a11.66,11.66,0,0,1-1.09-4.69,53.5,53.5,0,0,1,0-8.21l-.26-.43a59.2,59.2,0,0,1,1.47-7l0-.22Zm1,9.5a31.32,31.32,0,0,0-.77,4.62,25,25,0,0,0,1.94,6.69l.23,0,0-.47a21.89,21.89,0,0,1-1-3.79l.21-.47a1.65,1.65,0,0,1-.33-.87,1.76,1.76,0,0,1,.18-1,1.4,1.4,0,0,1-.31-.64q.17-3.65.15-3.9l0-.22Zm-.37-7.05,0,.22.22,0q4.4-7.33,4.31-8.34A19.35,19.35,0,0,0,208.83,316.05Zm.91-5.31,0,.22a.42.42,0,0,0,.43-.51l0-.22C209.86,310.3,209.71,310.47,209.74,310.74Zm.84-1q4.57-5.14,7.26-8.59c1.72-1.26,2.54-2.24,2.49-2.94q-4.38,3.07-9.17,10.33A1.52,1.52,0,0,0,210.58,309.74Zm.88,13.17,0,.22a.39.39,0,0,0,.41-.48l0-.23C211.57,322.48,211.44,322.64,211.46,322.91Zm.38,10.23,0,.22c.44,1.48,1.27,2.17,2.48,2.07l.67-.05,0-.23Zm.16-11.88q.27,0,1.84-5.18,2-5.76,9-14.45l0-.23c-4.79,4.23-7.32,7.48-7.61,9.78Q213.42,313.69,212,321.26Zm.6,15.24,0,.23a2.58,2.58,0,0,0,2.13.94l.45,0,0-.23A11.34,11.34,0,0,1,212.6,336.5Zm4.09-.12,2.71-.22,1.13-.32,0-.22-3.41.28C216.81,336,216.67,336.14,216.69,336.38Zm10.2-6.11,0,.23c.52,0,2-1.76,4.38-5.15l0-.22-.23,0C228.25,328.22,226.86,329.92,226.89,330.27Zm6.22-2.35c0,.21-1.3,1.84-4,4.92l.22,0a39.43,39.43,0,0,0,4-4.69l.22,0,0-.22Zm.88-5.52,0,.22.22,0a6.53,6.53,0,0,0,.77-1.89C234.64,320.82,234.31,321.38,234,322.4Zm3.65-32.95,0,.22c1.26-.1,1.94-.08,2.05.06a9.51,9.51,0,0,1,2.19-1.09l0-.47Zm1,25.92,0,.22h.22q1.89-7.4,1.71-9.51C239.75,307.83,239.11,310.93,238.66,315.37Z"/><path class="cls-2" d="M279.35,282.17l0,.4a12.92,12.92,0,0,1-1.12,3h-.18l-.41-.16q-2.13,4.66-2.09,5.25l.69-1,.2,0,0,.2-1.2,4.18c.76-.06,1.51-1.17,2.25-3.32l.89-1,.37,0-5.74,15.07v.2l.2,0a38.37,38.37,0,0,1,2.66-5.3l0,.4a108.76,108.76,0,0,0-4.36,10.68q-3.6,8.1-6.31,15.12a41.71,41.71,0,0,1-6.79,9.53,10.83,10.83,0,0,0-3.93,2.08h-.17l0-.4c.52,0,.76-.25.73-.63l0-.2-1.35.31a12.64,12.64,0,0,1-6.79-2.16q-1.31-1.59-2.3-6.61a1.24,1.24,0,0,0,.14-.59,1.37,1.37,0,0,0-.24-.58,30,30,0,0,1,1.42-10.8q.17-3.6,3.94-13.58l4.4-9.9.6-.05-.23-.38a14.85,14.85,0,0,0,2-4.25l.39,0,0,.4a1,1,0,0,0,.69-1,4,4,0,0,1,1.2.28q-6.07,13.51-6,14.14v.18l.2,0q4.53-10.47,6.41-13.95l.2,0,0,.37-.35.63,0,.18a1.54,1.54,0,0,0,.26.78q-4.57,11.29-4.78,12.46h.17l2.25-3.69,0,.37q-8.62,18.69-8.37,27.95,1.71,3.38,4,3.18c1.59-.14,3.85-1.75,6.78-4.85a33.67,33.67,0,0,0,5.16-10.37q5.16-12.69,6.72-17.48c.27-.68.5-1,.69-1l0,.38.2,0,0-.18a1.48,1.48,0,0,1-.26-.77,15.58,15.58,0,0,1,3-5.69q1.74-5,2.88-5.12C278.74,283,279.14,282.19,279.35,282.17Zm-32.28,44.56,0,.4.32,1.32h.19l-.08-1-.26-.76Zm.82,2.86,0,.37a3.77,3.77,0,0,0,1.74,2v-.2A7.24,7.24,0,0,0,247.89,329.59Zm0,2.13,0,.19a1.42,1.42,0,0,1,.43.74l.6,0c-.32-.55-.61-.85-.88-.9Zm.64-13.3A5.91,5.91,0,0,0,248,321c.34,0,.66-.83.94-2.41Zm-.49,15v.19a9.3,9.3,0,0,0,4,1.22l.4,0v-.2a14,14,0,0,0-4.21-1.2Zm2.06-3.1,0,.19a1.61,1.61,0,0,0,1.42.86A2.44,2.44,0,0,0,250.1,330.36Zm1,2.07,0,.2a11.68,11.68,0,0,0,2.17.19l.93-.25,0-.2-1.93,0Zm.14-26.09c.17,0,.61-1,1.32-3h-.2A5,5,0,0,0,251.19,306.34Zm1.1-.87a28.84,28.84,0,0,0-.74,2.79l.4,0a8.35,8.35,0,0,0,.56-2.57l0-.2Zm.16-2.94a1.58,1.58,0,0,1-.15.61l.37,0,0-.6Zm.83,33.21c-.13,0-.2-.05-.21-.18a1.33,1.33,0,0,1-.56.25l0,.2,1-.08a4.36,4.36,0,0,0,3.52-1.85h-.17A14,14,0,0,1,253.28,335.74Zm-.69-33.6,0,.17.39,0,0-.57C252.69,301.78,252.57,301.92,252.59,302.14Zm1,31.05,0,.19.77-.06,0-.2Zm.94-30.64a9.7,9.7,0,0,0-.28,1.2c.22,0,.38-.36.49-1v-.2Zm.17,27.42.37,0,.54-.43,0,.38q2.52-.21,5.06-4.71l.13-.79c-3.09,3.38-5.14,5.12-6.17,5.2Zm.29,1.35,0,.19.59-.05a2.12,2.12,0,0,1,.94-.47l0-.2-.2,0A2.52,2.52,0,0,1,255,331.32Zm3.71,2.42-.91.85.4,0c.2,0,.43-.29.71-.83Zm1.46-47.63.05.59-.37,0,0-.2C259.88,286.27,260,286.12,260.21,286.11Zm3.27,34.19c.14,0,.43-.5.85-1.45l0-.37C263.9,318.51,263.63,319.12,263.48,320.3Zm1-.08q.49,0,2.23-5.65l0-.2Q266.38,314.52,264.45,320.22Zm2.69-7.24,0,.2c.25,0,.36-.16.34-.43l0-.2A.41.41,0,0,0,267.14,313Zm.92-2.8L268,311c.25,0,.36-.22.32-.6v-.2Zm1-2.41a5.42,5.42,0,0,0-.46,1.39l0,.2.2,0a6.29,6.29,0,0,1,.46-1.42l0-.17Zm.81-2a3.41,3.41,0,0,1-.46,1.39l0,.2.17,0c0-.51.13-.79.53-.82l-.06-.77Zm7.26-8.6,0,.4c-.16.53-.34.8-.54.82l0-.4C276.73,297.44,276.9,297.17,277.1,297.15Z"/><path class="cls-2" d="M286.54,281.57h.17l-.14.38.06.75c1.56-.43,2.33-.87,2.29-1.32l1.13.08q2.77-.4,5.13-.6l.2,0q3.63-.3,9,3.32a11.31,11.31,0,0,1,1.55,3l.16,1.86a13.44,13.44,0,0,1-1.56,5.89,44.8,44.8,0,0,0-3.29,4.9l-.2,0,0-.37.48-.77-.35,0a46,46,0,0,1-14.05,9.71,15.75,15.75,0,0,1-4,.89,59.58,59.58,0,0,0,10.25,7.32c.5.2,3.61,1.85,9.35,5q7.11,3.63,17,7.86l0,.2-.75.06c-1.26-.36-1.9-.63-1.92-.79l-.35.23-.37,0c-.12,0-.18-.05-.2-.18-.45.15-.79.61-1,1.38.77.19,1.17.41,1.19.65a1.31,1.31,0,0,1-.72.44l-.93-.12v.2c0,.24.22.35.58.32l.05.55-.18,0q-.39,0-8.7-4.11a104.52,104.52,0,0,1-14.37-7.53q-2.74-1-10.4-6.36l-.54.05c-.63,1.15-1.32,3.87-2.1,8.16-.17,1-1.28,2.52-3.35,4.56l-.37,0-.39-.54,0-.17a5,5,0,0,1,.41-1.72l0-.17-.2,0c0,.33-.69.94-2.07,1.82l-.17,0,0-.35q4.85-19.72,6.94-25.86,3.57-10.51,3.45-12-1,.09-4.21,2.95l-.37,0,.14-.39,0-.38q-1,.09-4.32,3.72l-.2,0v-.2l2.18-3,.32-.58v-.2l-.38,0-2.05,2c-.25,0-.39-.09-.41-.32a30.41,30.41,0,0,1,7.94-7.17c3-1,4.48-2.1,4.39-3.17ZM283,307.7h.17l3.27-1-.23-.36C284,306.79,282.93,307.25,283,307.7Zm.56-1.92,0,.19.37,0a1.23,1.23,0,0,1,.53-.24l0,.2q4.42-1.18,5.21-2.29h-.19Q285.52,304.94,283.53,305.78Zm.12-.94.18,0c2.17-.61,3.25-1.07,3.24-1.37a1.25,1.25,0,0,1-.25-.55q6.85-3,9-5.57a21.64,21.64,0,0,0,2.69-3.4h.18v.19a2,2,0,0,0-.29,1l.2,0a5.15,5.15,0,0,0,2-4.25l-.09-1.12c-.36,0-.56-.08-.58-.33.6-.17.89-.5.84-1,0-.65-1.34-1.16-3.85-1.53a26.7,26.7,0,0,0-6.5-.21c-1.2.1-2.18,2.35-3,6.76Q286.85,294.24,283.65,304.84Zm.9-15.87,0,.2c.16,0,.33-.21.5-.59l0-.2C284.87,288.39,284.7,288.59,284.55,289Zm.47,3.49.2,0c.35-.14.51-.52.45-1.13C285.47,291.32,285.26,291.71,285,292.46Zm6.26,26.06,0,.37c2,1.31,3.26,1.95,3.69,1.92-.51-.29-.78-.58-.8-.86Zm5.71,3.6a1,1,0,0,0,1.16.65l.2,0,0-.19a2,2,0,0,1-1.16-.46Zm5.44-30.37,0,.37c.17,0,.33-.21.5-.59v-.2l-.18,0C302.53,291.42,302.41,291.55,302.43,291.75Zm1.31-6.42,0,.18c.05.24.19.36.4.34v-.17A.34.34,0,0,0,303.74,285.33Zm5.79,42.42a15.57,15.57,0,0,0,4.64,2.21l.17-.39a39.06,39.06,0,0,0-4.44-1.85Zm10.39,2.11.57-.05a.35.35,0,0,1,.38.34c-.23,0-.33.21-.3.58l-.38,0,.15-.39,0-.17-.37,0Z"/><path class="cls-2" d="M226.13,348.21l.72,0L239.94,347a5.74,5.74,0,0,1,1.75.1c4-.35,8-.65,12-.87l.54,0a6.44,6.44,0,0,1,2.26-.61l.72,0a8.19,8.19,0,0,1,1.33-.2l7.6-.6,2.41-.29c0,.06.14.08.37.06l2.06-.25.69-.06a13.65,13.65,0,0,1,1.74,0,7.34,7.34,0,0,0,1-.17q18.28-1.55,25.18-2.2c0,.07.15.09.38.08a7,7,0,0,1,1.32-.21l3.12-.25c1.33-.11,3.17-.28,5.52-.53l.72,0c1.54-.18,2.79-.31,3.77-.39l7.94-.63-.06-.18-1,.08-4.22.25c0,.06-.08.09-.31.11a7.72,7.72,0,0,0-2.46,0l-4.14.33q-.58,0-.75-.12l.68-.06q7.17-.57,10.24-1.09l5.55-.44.65-.14c0,.06.15.08.38.06l.34,0-.11-.28-.68.06a18.18,18.18,0,0,1,3.63-.75l2.44-.19-.07-.18-2.84,0c-.05-.12.57-.33,1.87-.62l12.09-1-.07-.18-1.74,0-1.71.14-2.06.25a14.09,14.09,0,0,0-1.74.05l-1.75.14-.65.14,0-.09a7.09,7.09,0,0,0-1,.17,12,12,0,0,0-1.45,0l-.34,0c-1.47.12-2.95.27-4.45.45l-1.4,0c-1.18.15-2.33.28-3.43.36l-2.13.08-.65.14c-2.36.13-4.21.25-5.54.35l-9.36.75c-.07-.18-.33-.26-.79-.22l-.68.06c-1.46.11-3.17.28-5.13.5l-1.45,0c-3.4.39-6.36.69-8.9.89l-1.4,0c0,.06-.08.1-.31.11a7.91,7.91,0,0,1-1.1,0l-.65.14q-11.17,1-16.54,1.41c-1.11.09-2.25.21-3.43.36a19.45,19.45,0,0,0-2.47.11l-1.36.11-1.1-.1-.34,0c-.39,0-.61.11-.66.23q-13.77,1.19-20,1.77a9.63,9.63,0,0,0-1.06,0q-1.62.22-15.14,1.39l-.71,0a8.61,8.61,0,0,1-1.34.19l-21.79,1.73a40.56,40.56,0,0,0-6.47.79l.83.23q.93-.08,9.24-.93l2.78-.22,1.75,0c0-.07.3-.13,1-.18l1.07-.09,3.45-.16,0,.08-1,.09a11,11,0,0,1-1.39,0,10,10,0,0,1-1.34.19l-4.87.39.07.18c0,.12.65.13,1.82,0l.07.18q-7.56.6-15.75,1.63l.1.27q5.28-.1,5.54.58l.07.18c-2.29.25-4,.41-5.13.5l-1.76.14c-.39,0-.59.11-.62.23l.42.16Q216,349.2,226.13,348.21Zm81.52-7.5,0,.09-3.12.24,0-.09Zm-87.13,5.8.65-.15,0,.09q4.86-.57,12.67-1.28c0,.06.15.08.38.06a9.28,9.28,0,0,1,1.38-.2l6.19-.49,4.1-.42-.27.21q-19.5,1.82-26.51,2.38l-1.68.22-.4-.15Zm-7.44.11,0,.11a6,6,0,0,0-1,.17l-.08-.19Zm.45,2.11,17.25-1.37,1.72-.23c0,.06.15.08.38.07a6,6,0,0,1,1-.17c.84-.07,1.89-.12,3.15-.16a8.37,8.37,0,0,1,1.33-.2l1.45,0,0,.1c-1.27.1-2.88.26-4.84.48l-2.42.1a9.08,9.08,0,0,1-1,.17c0-.06-.15-.08-.38-.06l-.65.14a9.52,9.52,0,0,1-1.4,0q-.5.13-5.48.62l-2.43.1c-4.52.44-7.72.78-9.6,1l-1.39,0c-3.43.33-6.29.59-8.6.77l-1.07.09a1.1,1.1,0,0,1-.75-.13Q211.28,348.91,213.53,348.73Zm-19.56,1,0-.09a7.34,7.34,0,0,0-1,.17,10,10,0,0,0-1.11,0c-.06-.15,1.29-.35,4-.6l2.1-.16,0,.09C197.2,349.2,195.85,349.4,194,349.73Z"/></svg>