<?xml version="1.0" encoding="utf-8"?>
<!-- Generator: Adobe Illustrator 21.1.0, SVG Export Plug-In . SVG Version: 6.00 Build 0)  -->
<svg version="1.1" id="Layer_1" xmlns="http://www.w3.org/2000/svg" xmlns:xlink="http://www.w3.org/1999/xlink" x="0px" y="0px"
	 viewBox="0 0 266.8 168" style="enable-background:new 0 0 266.8 168;" xml:space="preserve">
<style type="text/css">
	.st0{fill:#E22D26;}
	.st1{fill:#FFFFFF;}
	.st2{fill:#CEFF01;}
	.st3{fill:#FF3D34;}
</style>
<g>
	<g>
		<g>
			<g>
			</g>
		</g>
		<g>
			<g>
				<path class="st1" d="M262.4,81.6c-3.5,0-5.3,2.1-7.2,5.6c-0.9,0.6-1.8,1.3-2.8,2.1c1-1.7,1.5-3.2,1.5-4.4c0-2-1.5-3.3-3.7-3.3
					c-3.3,0-8.3,4.5-13.2,8.8c-2,1.8-3.9,3.5-5.7,4.8c-3.9,3-6.7,4.3-9.2,4.3c-0.9,0-1.5-0.2-1.8-0.6c-0.2-0.3-0.3-0.7-0.3-1.2
					c0-0.5,0.1-1.2,0.4-2c4.7-0.9,9.1-2.5,12.2-4.6c3-1.9,4.7-4.1,4.7-6c0-2.1-2-3.6-4.9-3.6c-4.1,0-10,2.9-15.7,7.7
					c0,0-3.9,3.5-6.1,5.3c0.3-1.2,0.3-2.5,0.3-3.2c0-1-0.1-1.8-0.2-2.7c-0.1-1.1-0.2-2.1-0.2-3.6c0-1,0.1-1,0.9-1.3c0,0,0,0,0,0
					c0.2,0,2.8-0.6,2.8-2.6c0-1.2-0.9-1.9-2.3-1.9c-1.5,0-2.8,1-3.9,2.9c-3.6,2.9-6.4,5.5-8.8,7.7l-2.6,2.3
					c-2.7,2.4-6.6,5.6-9.5,6.9c-0.9,0.4-1.8,0.5-2,0.3c-0.1-0.1,0-0.4,0.2-0.8c0.8-1.6,13.2-16.2,13.3-16.3l0.4-0.5l-7.7,0.4
					l-0.1,0.1c-3.3,2.5-5.8,4.8-8.2,7l-2.5,2.3l-0.3,0.3c-3.2,2.9-8.6,7.7-13.1,7.7c-0.9,0-1.5-0.2-1.8-0.7
					c-0.2-0.3-0.3-0.7-0.3-1.2c0-0.5,0.1-1.2,0.4-1.9c10.6-2.1,16.9-7,16.9-10.5c0-2.8-3.2-3.6-4.9-3.6c-4.2,0-9.9,2.8-15.7,7.7
					l-1.7,1.5c-0.9,0.8-1.6,1.4-2.3,1.9c-2.2,1.5-3.7,1.9-4.6,2c4.1-4.1,6.9-8.2,6.9-10.4c0-1.2-0.6-2.2-1.7-2.5
					c-1.3-0.5-2.9,0-3.8,1.1c-0.8,1-1.1,2.2-1.4,3.6c-0.2,1.1-0.5,2.3-1.1,3.6c-2.5,5.7-8.7,9-12.2,9.3c-0.9,0.1-1.5,0-1.6-0.3
					c-0.1-0.2-0.1-0.6,0.2-1c0.8-1.4,3.1-4.1,6.1-7.6c2.1-2.5,4.5-5.2,6.9-8.2l0.4-0.5l-7.4,0.4l-0.1,0.1
					c-7.3,9.3-14.7,15.9-18.8,17c-1,0.3-1.2,0.1-1.2,0.1c-0.3-0.4,0.5-1.5,1.1-2.2l0,0c2.2-2.9,7.7-9.3,10.6-12.8l2.2-2.6l-0.7,0
					l-6.9,0.3l-0.1,0.1c-1.1,0.8-6.1,5.2-9.8,8.4c-0.3,0.2-0.5,0.4-0.7,0.6l-3,2.5c-3.9,3.3-5.9,4.5-6.8,5c-0.6,0.3-0.9,0.3-1,0.3
					c0,0-0.1-0.2,0.1-0.7c0.4-1.3,6.5-9.3,12.9-17.7c3-4,6.1-8,8.9-11.7l0.4-0.5l-7.2,0.3c0,0-10.4,14.3-11.1,15.1
					c-0.6-1.5-2.2-2.3-4.5-2.3c-3.8,0-9.9,2.9-15.5,7.3c-0.5,0.4-1.4,1.2-2.7,2.2c-3.3,2.8-8.3,7-10.2,8.1c-0.5,0.3-0.9,0.3-1,0.2
					c-0.1-0.1-0.1-0.4,0.1-0.9c0.3-0.6,0.9-1.3,1.7-2.3l0,0c0,0,0.2-0.2,0.5-0.6L93,81.7l-7.4,0.4l-0.1,0.1
					c-7.3,9.2-14.6,15.9-18.7,17c-1.1,0.3-1.3,0.1-1.3,0.1c-0.1-0.1-0.1-0.3,0.1-0.7c0.5-1.2,8.3-10.3,11.6-14.2l2.2-2.6l-0.7,0
					l-7.1,0.3l-0.1,0.1c-3.9,4.1-9.6,8.7-12.5,11c0.3-0.9,0.4-1.7,0.4-2.6c0-1-0.2-2-0.6-2.9c-0.7-1.8-2.1-3.3-4-4.2
					c3.9-0.7,7.1-2.3,9.3-4.5c1.8-1.9,2.9-4.4,2.9-6.8c0-3.6-3-7.4-8.5-7.4c-3.2,0-7.3,0.8-12.6,6.5c-0.8-0.3-1.6-0.6-2.4-0.9
					c1.2-1.8,1.4-3.1,1.5-4.1l0-0.3h-6.6c0,0-1.8,2-2,2.3c-6.4-1.9-12.5-2.8-17.9-2.8c-5.6,0-10.4,1.1-13.8,3.2
					c-3,1.8-4.7,4.3-4.7,6.9c0,4,4.3,8,13.9,8.1c3.6,0,7.4-0.5,10.9-1.6c-1.1,1.3-2.4,2.8-3.8,4.4C16.8,91,12,96.5,10.7,99.7
					c-0.4,1.1-0.6,2.1-0.6,3c0,1.3,0.4,2.4,1.3,3.1c1.5,1.3,3.9,1.3,6.4,0c2-1,4.5-3.1,7.5-5.9c0,1.4,0.6,2.8,1.5,3.9
					c1.2,1.4,3.7,3,8.6,3c10.6,0,17.6-5.7,25.8-12.3c0,0,0.6-0.5,1.2-1C61,95.8,61,96.9,61,97.5c0,2.2,1.5,4.5,4.9,4.5
					c2.2,0,5.3-1.6,9-4.6c0,0.2,0,0.3,0,0.5c0,1.4,0.6,2.6,1.6,3.4c1.5,1.1,3.5,1,5.5-0.3c1.6-1,6.4-4.9,8.4-6.5
					c-0.1,0.5-0.1,1.1-0.1,1.6c0,1.6,0.4,3,1.2,4.1c0.9,1.2,2.3,1.8,3.9,1.8c2.5,0,5.4-1.4,8.6-4c0,0.1,0,0.2,0,0.3
					c0,0.8,0.2,1.7,0.8,2.5c0.7,0.8,1.7,1.2,3,1.2c2.9,0,5.2-1.8,8.9-4.8c0,0,0.4-0.3,0.9-0.7h0.2c0.8-0.6,2-1.6,3.1-2.6
					c-0.8,1.3-1.3,2.5-1.3,3.7c0,2.7,2,4.5,4.9,4.5c2.2,0,5.4-1.6,9.2-4.8c0,0,0,0.1,0,0.1c0,1.2,0.4,2.3,1.1,3.1
					c0.8,1,2.1,1.5,3.6,1.5c3.3,0,7.5-1.7,12-4.9c2.1,0.3,6.1-0.3,9.4-2.8c0,0.2,0,0.4,0,0.7c0,1.7,0.6,3.4,1.6,4.7
					c0.9,1.1,2.6,2.4,5.4,2.4c3.4,0,6.8-1.5,11.6-5.2c1.1-0.9,2.3-1.9,3.7-3.1c-0.8,1.3-1.4,2.6-1.4,3.9c0,2.7,1.9,4.5,4.8,4.5
					c2.5,0,5.2-1.7,9.4-5c-0.1,0.3-0.2,0.7-0.2,1.1c0,1.8,1.5,3.9,5.7,3.9c4.9,0,8.4-2.6,14.4-7.6c0,0.2,0,0.4,0,0.6
					c0,1.7,0.6,3.4,1.6,4.7c0.9,1.1,2.6,2.4,5.4,2.4c4.3,0,8.3-2.7,11.3-5c1.3-1,3.1-2.6,4.9-4.3c4.2-3.7,9.3-8.3,11.6-8.6
					c0.3,0,0.4,0,0.5,0c0,0,0,0.1-0.1,0.2c-0.7,1.1-4.6,5.4-8.3,9.6c-2.5,2.9-4.9,5.6-6.3,7.3l-0.4,0.5l7.7-0.6l0.1-0.1
					c3.2-3.1,6.7-6.5,9.7-8.9c-0.2,0.5-0.3,1-0.3,1.4c0,0.5,0.1,0.9,0.3,1.3c0.6,1,1.9,1.6,3.6,1.6c2.5,0,6-2.2,6.9-3.5
					c0.4-0.6,0.3-1.2-0.1-1.6c-0.4-0.4-1.2-0.4-1.6-0.1l-0.6,0.5c-1.3,1-2.9,2.3-4.7,2.3c-1,0-1-0.6-1-0.8c0-1.8,2-3.8,3.8-4.9
					c3.9-2.2,4.9-2.9,5.5-3.6c0.9-1,0.7-1.7,0.6-2.1C264.5,82,263.6,81.6,262.4,81.6z M232.4,83.9c0.2,0,0.3,0.1,0.4,0.1
					c0.1,0.1,0.1,0.1,0.1,0.2c-0.1,1.7-4.4,6.5-11.2,8.3C225.1,87.3,230.6,83.9,232.4,83.9z M176.6,84c0.5-0.1,0.9-0.1,1.1,0
					c0,0.1,0.1,0.1,0.1,0.2c0,0.2-0.1,0.4-0.2,0.7c-1,2.3-5.1,6-10.9,7.6C169.7,87.7,174.4,84.6,176.6,84z M14.9,80.4
					c-3.6,0-6.6-0.6-8.6-1.7c-1.8-1-2.8-2.3-2.8-3.8c0-1.7,1.4-3.5,3.9-4.8c2.1-1.1,5.9-2.3,12.3-2.3h0c4.1,0,9.1,0.7,15.1,2.3
					c-1,1.2-4,4.6-5.7,6.6c0,0-1.1,1.3-1.2,1.4C24.2,79.5,19.2,80.4,14.9,80.4z M17.8,102.7c-1.5,1-2.7,1.5-3,1.2
					c-0.1-0.1-0.2-0.3-0.2-0.5c0-0.6,0.5-1.4,1.4-2.6c1.7-2.2,3.8-4.4,6.6-7.5c3.6-3.9,8.5-9.3,15.8-17.9c0.7-0.5,2.7-2.1,3.8-3.2
					c0.7,0.2,1.4,0.5,2.2,0.8C37.9,81.2,24.4,98.1,17.8,102.7z M43.8,84.4c0.4,0,0.8-0.1,1.1-0.2c0.6-0.2,1.3-0.4,2.9-0.4
					c4.4,0,5.6,2.9,5.6,4.6c0,6.3-10.1,15-19.9,15c-3.6,0-4.9-1.9-4.9-3.8c0-2.2,1.3-4.3,3.2-5.8c1.8-1.5,4.1-2.3,6.6-2.4
					c0.5,0,0.8-0.3,0.9-0.7c0.1-0.4-0.1-0.9-0.8-1.2c-0.8-0.4-1.9-0.5-3.3-0.2c1-1.2,2.4-2.9,3.9-4.9c2.8-3.6,5.9-7.5,8.3-10.3
					c1.8,0.9,2.3,1.2,2.8,1.6c0.3,0.2,0.7,0.5,1.1,0.7c1,0.6,1.7,0.4,2,0c0.1-0.2,0.2-0.5,0.2-0.7c0-0.4-0.2-0.8-0.7-1.2
					c-0.9-0.7-2.1-1.5-3.6-2.1c3.7-4.2,7.3-4.7,8.7-4.7c3.4,0,3.9,2.7,3.9,4.3c0,2.6-2.2,6.2-7.6,8.3c-2.7,1.1-4.5,0.9-5.9,0.7
					C47,80.6,46,80.4,45,80.4c-1,0-1.8,0.2-2.4,0.7c-0.5,0.4-0.9,1-0.9,1.6C41.7,83.5,42.4,84.4,43.8,84.4z M102.8,95.5
					c-2.7,2.3-5.3,3.7-6.8,3.7c-0.3,0-0.6-0.1-0.7-0.2c-0.2-0.2-0.2-0.4-0.2-0.8c0.1-1.7,2.3-5.8,5.6-9.3c2.8-3,5.8-4.7,8.1-4.7
					c0.6,0,1.1,0.2,1.4,0.5c0.1,0.2,0.2,0.3,0.2,0.5l0,0C110.2,87.2,107.5,91.5,102.8,95.5z M203.3,96.9c-1.6,1.7-3.1,2.4-3.8,2.4
					c-0.1,0-0.2,0-0.2,0c0-0.1,0.1-0.2,0.3-0.7c0.5-0.7,0.6-1.1,0.6-1.5c0-1.1-1-2-2.4-2c-0.3,0-0.5,0-0.7,0.1
					c1.1-1,2.5-2.2,3.9-3.5c2.3-2.2,5-4.6,6.9-6.1C207.8,91.6,204.7,95.5,203.3,96.9z"/>
				<path class="st1" d="M197.7,74c0,1.5,1.1,2.5,2.8,2.5c2.2,0,4-1.9,4-3.5c0-1.6-1.2-2.5-2.7-2.5C199.8,70.4,197.7,72.2,197.7,74z
					"/>
				<path class="st1" d="M253.2,101.1c-1.2,0-2.1,0.9-2.1,2.1c0,1.2,0.9,2.1,2.1,2.1c1.2,0,2.1-0.9,2.1-2.1
					C255.3,102.1,254.4,101.1,253.2,101.1z M253.2,105c-1,0-1.7-0.8-1.7-1.7c0-0.9,0.8-1.7,1.7-1.7c0.9,0,1.7,0.8,1.7,1.7
					C254.9,104.2,254.2,105,253.2,105z"/>
				<path class="st1" d="M254.3,102.8c0-0.2-0.1-0.5-0.3-0.6c-0.2-0.1-0.4-0.1-0.6-0.1h-1.1v2.3h0.4v-1h0.4l0.5,1h0.5l-0.6-1
					C254.1,103.4,254.3,103.2,254.3,102.8z M253.5,103.1h-0.7v-0.6h0.6c0.2,0,0.5,0,0.5,0.3C253.9,103,253.7,103.1,253.5,103.1z"/>
				<path class="st3" d="M55.9,49.3c5,2.1,44.3,18.3,61.7,25.6L118,75l1.4-1.9L54.9,46.3L44.2,64.7H47L55.9,49.3z"/>
				<path class="st3" d="M244.7,82.6c0.7-0.5,1.3-0.8,1.9-1.1l0.2-0.1l20-34.6L127.3,75.7l-0.2,0l-2.2,2.8l1.6-0.3
					c7-1.4,121.4-25.1,135.6-28c-2.4,4.1-10,17.3-18.3,31.6L244.7,82.6z"/>
				<path class="st3" d="M228.2,108.9c-5.7,9.8-10.1,17.5-11.1,19.3c-7.4-1.9-99.3-25.3-100.2-25.5l-0.1,0l-0.1,0
					c0,0-92.6,21.2-105.8,24.2L24,104.1l-0.9-0.8c-0.8,0.7-1.6,1.4-2.4,1.9l-0.1,0.1L6,130.4L116.6,105l101.6,25.9l16.1-27.8
					l-2.8,0.2L228.2,108.9z"/>
			</g>
			<polygon class="st1" points="29.4,163.5 29.4,144.2 25,144.2 25,163.5 25,167.1 25,168 86.2,168 86.2,163.5 			"/>
			<polygon class="st1" points="193.9,163.5 193.9,144.2 198.4,144.2 198.4,163.5 198.4,167.1 198.4,168 137.1,168 137.1,163.5 			
				"/>
			<g>
				<path class="st1" d="M49.1,143.5c1.3,0.5,2.4,1.4,3.1,2.4c0.7,1.1,1.1,2.5,1.1,4.2c0,2.8-0.7,4.9-2.1,6.1
					c-1.4,1.3-3.4,1.9-5.9,1.9h-10v-27.7h9.4c2.7,0,4.7,0.6,6,1.8c1.4,1.2,2,3,2,5.4c0,1.5-0.3,2.7-0.9,3.6
					C51.2,142.2,50.3,143,49.1,143.5z M41.4,142.2h1.7c0.7,0,1.3-0.1,1.7-0.3c0.4-0.2,0.8-0.5,1-0.8c0.2-0.4,0.4-0.8,0.5-1.3
					c0.1-0.5,0.1-1.1,0.1-1.7c0-0.6,0-1.1-0.1-1.6c-0.1-0.5-0.3-0.9-0.5-1.3c-0.3-0.3-0.6-0.6-1.1-0.8c-0.5-0.2-1.1-0.3-1.8-0.3
					h-1.6V142.2z M43.5,154.3c0.7,0,1.3-0.1,1.8-0.3c0.5-0.2,0.8-0.5,1.1-0.9c0.3-0.4,0.4-0.8,0.5-1.3c0.1-0.5,0.1-1,0.1-1.6
					c0-0.7,0-1.3-0.1-1.8c-0.1-0.6-0.3-1-0.5-1.4c-0.2-0.4-0.6-0.7-1-0.9c-0.4-0.2-1-0.3-1.7-0.3h-2.2v8.6H43.5z"/>
				<path class="st1" d="M67.9,130.4l5.7,27.7h-6.4l-1-4.9H60l-1,4.9h-4.5l5.7-27.7H67.9z M60.7,149.6h4.8l-2.4-12.4L60.7,149.6z"/>
				<path class="st1" d="M79.5,149.4c0,2,0.3,3.4,0.9,4.2s1.4,1.2,2.5,1.2c0.9,0,1.6-0.3,2.1-0.8c0.5-0.5,0.7-1.2,0.7-2.2
					c0-0.8-0.3-1.5-0.8-2.1c-0.5-0.6-1.2-1.3-2-1.9c-0.8-0.6-1.7-1.2-2.6-1.9c-0.9-0.6-1.8-1.4-2.6-2.2c-0.8-0.8-1.5-1.7-2-2.8
					c-0.5-1-0.8-2.2-0.8-3.6c0-2.4,0.7-4.2,2.2-5.5c1.5-1.3,3.5-2,6-2c1.3,0,2.4,0.2,3.4,0.5c1,0.3,1.9,0.8,2.6,1.5
					c0.7,0.7,1.2,1.6,1.6,2.8c0.3,1.1,0.5,2.5,0.4,4.1h-5.2c0-1.7-0.2-3-0.7-3.8c-0.4-0.8-1.1-1.2-2.1-1.2c-0.7,0-1.3,0.2-1.7,0.7
					c-0.4,0.5-0.6,1.1-0.6,1.9s0.3,1.5,0.8,2.2c0.5,0.7,1.2,1.3,2,1.9c0.8,0.6,1.7,1.2,2.6,1.9c0.9,0.6,1.8,1.4,2.6,2.1
					c0.8,0.8,1.5,1.7,2,2.7c0.5,1,0.8,2.2,0.8,3.5c0,1.1-0.1,2.1-0.4,3c-0.3,1-0.8,1.8-1.5,2.6c-0.7,0.7-1.6,1.3-2.7,1.8
					c-1.1,0.4-2.5,0.6-4.1,0.6c-2.8,0-5-0.8-6.6-2.3c-1.6-1.5-2.3-3.9-2.2-7.1H79.5z"/>
				<path class="st1" d="M108.7,154.3v3.9H94.3v-27.7h14.1v3.9h-7.8v7.1h6.5v3.9h-6.5v8.9H108.7z"/>
				<path class="st1" d="M135,158.2h-5.2v-20.2l-4.3,20.2h-4.8l-4.3-19.9v19.9h-5.1v-27.7h8l3.9,18.1l3.9-18.1h7.8V158.2z"/>
				<path class="st1" d="M153.5,154.3v3.9h-14.5v-27.7h14.1v3.9h-7.8v7.1h6.5v3.9h-6.5v8.9H153.5z"/>
				<path class="st1" d="M174.1,158.2h-5.7l-7.9-20.3v20.3h-4.3v-27.7h7.6l6.1,15.6v-15.6h4.3V158.2z"/>
				<path class="st1" d="M192.5,134.5h-5v23.7h-6.3v-23.7h-5v-4h16.2V134.5z"/>
			</g>
		</g>
	</g>
	<g>
		<g>
			<g>
				<path class="st1" d="M76.4,8.6c0.1-1,1-1.8,2.1-1.8C78.4,7.8,77.2,8.4,76.4,8.6z"/>
				<path class="st1" d="M79.3,4.8c-0.4-0.1-1.8,0.2-2.3,1.7C77.9,6.5,79,6.2,79.3,4.8z"/>
				<path class="st1" d="M77.7,10.7c-0.5,0.2-1.7,1.4-1.2,3.1C77.3,13.1,78,11.8,77.7,10.7z"/>
				<path class="st1" d="M77.7,8.5c-1,0.1-1.6,1.5-1.5,2.5C77.1,10.6,77.9,9.9,77.7,8.5z"/>
				<path class="st1" d="M78.5,18.3c0.5-0.7,0.8-2.2,0-2.9C78.1,15.6,77.4,16.8,78.5,18.3z"/>
				<path class="st1" d="M77.3,16.1c0.8-0.9,1.1-2.1,0.7-3.3C76.8,13.6,76.8,15.3,77.3,16.1z"/>
				<path class="st1" d="M82.4,21.9c0.3-1.1-0.6-2.1-1.3-2.7C80.5,20.1,81.3,21.2,82.4,21.9z"/>
				<path class="st1" d="M80.1,20.1c0.3-0.8,0.4-2.1-0.7-2.9C79.1,17.6,78.7,18.9,80.1,20.1z"/>
				<path class="st1" d="M77.9,4.7c0.7,0,2.2-0.7,2.5-1.6C79.7,2.9,78.4,3.6,77.9,4.7z"/>
				<path class="st1" d="M76.8,6.8c0.3-0.7,0.5-2.2-0.1-2.7C75.5,5.3,76.5,6.4,76.8,6.8z"/>
				<path class="st1" d="M81.7,0c-2.1,0.7-2.9,1.8-3.2,3.3C79.5,3.1,80.8,1.7,81.7,0z"/>
				<path class="st1" d="M77.2,16.4c0,0,0.1,0,0.1,0c-0.5-1.3-1.8-2.3-2.6-2.4C74.7,15.4,75.9,16.5,77.2,16.4z"/>
				<path class="st1" d="M78.7,18.7c-0.5-0.7-1.9-1.9-3.1-1.9C76.1,18.1,77.4,18.9,78.7,18.7z"/>
				<path class="st1" d="M79.1,21c1.7,1.9,3,1.5,3.2,1.1C81.6,21.6,79.8,20.6,79.1,21z"/>
				<path class="st1" d="M76.7,19c0.7,1.3,2.3,2,3.7,1.5C79.8,19.9,77.9,18.7,76.7,19z"/>
				<path class="st1" d="M74.6,11.1c-0.9,1.7,1,2.5,1.8,2.9C76.3,13.6,75.5,11.5,74.6,11.1z"/>
				<path class="st1" d="M77.6,5.1c0.3-0.6,1.1-1.9,0.7-3.2C76.8,3.5,77.4,4.8,77.6,5.1z"/>
				<path class="st1" d="M76.2,8.9C76.3,8.2,76.6,7,75.9,6C74.9,7.1,75.6,8.5,76.2,8.9z"/>
				<path class="st1" d="M74.8,8.3c-0.7,1.4,0.1,2.7,1.3,3.2C76.1,10.6,75.8,8.9,74.8,8.3z"/>
			</g>
			<g>
				<path class="st1" d="M198.5,8.6c-0.1-1-1-1.8-2.1-1.8C196.5,7.8,197.7,8.4,198.5,8.6z"/>
				<path class="st1" d="M197.8,6.5c-0.5-1.5-1.9-1.8-2.3-1.7C195.8,6.2,196.9,6.5,197.8,6.5z"/>
				<path class="st1" d="M198.3,13.7c0.6-1.7-0.6-2.9-1.2-3.1C196.8,11.8,197.5,13.1,198.3,13.7z"/>
				<path class="st1" d="M198.6,11c0.1-1-0.5-2.4-1.5-2.5C197,9.9,197.8,10.6,198.6,11z"/>
				<path class="st1" d="M196.3,15.3c-0.8,0.7-0.5,2.2,0,2.9C197.4,16.8,196.7,15.6,196.3,15.3z"/>
				<path class="st1" d="M196.9,12.9c-0.4,1.1-0.2,2.4,0.7,3.3C198,15.3,198.1,13.6,196.9,12.9z"/>
				<path class="st1" d="M193.8,19.2c-0.8,0.6-1.6,1.6-1.3,2.7C193.5,21.2,194.3,20.1,193.8,19.2z"/>
				<path class="st1" d="M195.4,17.2c-1.1,0.8-1,2.1-0.7,2.9C196.1,18.9,195.7,17.6,195.4,17.2z"/>
				<path class="st1" d="M194.4,3c0.3,1,1.7,1.7,2.5,1.6C196.4,3.6,195.1,2.9,194.4,3z"/>
				<path class="st1" d="M198,4c-0.5,0.5-0.3,2-0.1,2.7C198.4,6.4,199.3,5.3,198,4z"/>
				<path class="st1" d="M196.3,3.3c-0.3-1.6-1-2.6-3.2-3.3C194,1.7,195.4,3.1,196.3,3.3z"/>
				<path class="st1" d="M200.1,14c-0.8,0.1-2.1,1.1-2.6,2.4c0,0,0.1,0,0.1,0C199,16.5,200.1,15.4,200.1,14z"/>
				<path class="st1" d="M199.2,16.8c-1.2,0-2.6,1.2-3.1,1.9C197.4,18.9,198.7,18.1,199.2,16.8z"/>
				<path class="st1" d="M192.5,22c0.2,0.5,1.5,0.8,3.2-1.1C195,20.6,193.3,21.6,192.5,22z"/>
				<path class="st1" d="M194.4,20.5c1.4,0.4,3-0.2,3.7-1.5C197,18.7,195.1,19.9,194.4,20.5z"/>
				<path class="st1" d="M198.4,14.1c0.9-0.4,2.8-1.3,1.8-2.9C199.4,11.5,198.5,13.6,198.4,14.1z"/>
				<path class="st1" d="M196.5,1.9c-0.4,1.2,0.3,2.6,0.7,3.2C197.5,4.8,198.1,3.5,196.5,1.9z"/>
				<path class="st1" d="M199,6c-0.8,1-0.5,2.2-0.3,2.9C199.3,8.5,200,7.1,199,6z"/>
				<path class="st1" d="M198.7,11.5c1.2-0.6,2-1.9,1.3-3.2C199.1,8.9,198.8,10.6,198.7,11.5z"/>
			</g>
		</g>
		<g>
			<path class="st1" d="M92.3,11.6h-1.4v2.2h-0.8V7.7h2.1c0.5,0,0.9,0.1,1.2,0.3c0.3,0.2,0.5,0.4,0.7,0.7s0.2,0.6,0.2,1
				c0,0.4-0.1,0.7-0.2,1s-0.4,0.5-0.7,0.7C93.2,11.5,92.7,11.6,92.3,11.6z M90.9,8.3v2.6h1.4c0.3,0,0.6-0.1,0.8-0.2s0.3-0.3,0.4-0.5
				c0.1-0.2,0.1-0.4,0.1-0.7c0-0.4-0.1-0.7-0.3-0.9c-0.2-0.2-0.6-0.4-1.1-0.4H90.9z"/>
			<path class="st1" d="M99.7,13.1v0.7h-3.7V7.7h0.8v5.4H99.7z"/>
			<path class="st1" d="M101.4,13.8h-0.8l2.3-6.1h0.8l2.3,6.1h-0.8l-0.6-1.6H102L101.4,13.8z M103.3,8.6l-1,2.8h2.2L103.3,8.6
				L103.3,8.6z"/>
			<path class="st1" d="M111,7.7v0.7h-2v5.4h-0.8V8.3h-2V7.7H111z"/>
			<path class="st1" d="M112,13.8h-0.8l2.3-6.1h0.8l2.3,6.1h-0.8l-0.6-1.6h-2.7L112,13.8z M113.9,8.6l-1,2.8h2.2L113.9,8.6
				L113.9,8.6z"/>
			<path class="st1" d="M121.4,10.4V11h-2.6v2.7H118V7.7h3.8v0.7h-3.1v2.1H121.4z"/>
			<path class="st1" d="M128.6,10.7c0,0.6-0.1,1.2-0.4,1.7s-0.6,0.8-1,1.1s-0.9,0.4-1.5,0.4c-0.5,0-1-0.1-1.5-0.4s-0.8-0.6-1-1.1
				s-0.4-1-0.4-1.7c0-0.6,0.1-1.2,0.4-1.7c0.2-0.5,0.6-0.8,1-1.1c0.4-0.3,0.9-0.4,1.5-0.4c0.5,0,1,0.1,1.5,0.4
				c0.4,0.3,0.8,0.6,1,1.1C128.5,9.5,128.6,10.1,128.6,10.7z M127.9,10.7c0-0.5-0.1-1-0.3-1.3c-0.2-0.4-0.4-0.6-0.7-0.8
				c-0.3-0.2-0.7-0.3-1-0.3c-0.4,0-0.7,0.1-1,0.3c-0.3,0.2-0.6,0.5-0.7,0.8c-0.2,0.4-0.3,0.8-0.3,1.3c0,0.5,0.1,1,0.3,1.3
				c0.2,0.4,0.4,0.6,0.7,0.8c0.3,0.2,0.7,0.3,1,0.3c0.4,0,0.7-0.1,1-0.3c0.3-0.2,0.6-0.5,0.7-0.8C127.8,11.7,127.9,11.2,127.9,10.7z
				"/>
			<path class="st1" d="M133.8,13.8l-1.3-2.4H131v2.4h-0.8V7.7h2.1c0.5,0,0.9,0.1,1.2,0.3c0.3,0.2,0.5,0.4,0.7,0.7
				c0.1,0.3,0.2,0.6,0.2,0.9c0,0.4-0.1,0.8-0.3,1.1c-0.2,0.3-0.5,0.5-0.9,0.6l1.4,2.5H133.8z M131,8.3v2.4h1.3
				c0.4,0,0.7-0.1,0.9-0.2s0.4-0.2,0.5-0.4c0.1-0.2,0.1-0.4,0.1-0.6c0-0.2,0-0.4-0.1-0.6c-0.1-0.2-0.2-0.3-0.4-0.5s-0.5-0.2-0.9-0.2
				H131z"/>
			<path class="st1" d="M136,7.7h0.9l2.2,5h0.1l2.2-5h0.9v6.1h-0.7V9.2h-0.1l-1.9,4.5h-0.7l-1.9-4.5h-0.1v4.6H136V7.7z"/>
			<path class="st1" d="M144.2,13.8h-0.8l2.3-6.1h0.8l2.3,6.1h-0.8l-0.6-1.6h-2.7L144.2,13.8z M146.1,8.6l-1,2.8h2.2L146.1,8.6
				L146.1,8.6z"/>
			<path class="st1" d="M158.3,10.7c0,0.6-0.1,1.2-0.4,1.7s-0.6,0.8-1,1.1s-0.9,0.4-1.5,0.4c-0.5,0-1-0.1-1.5-0.4s-0.8-0.6-1-1.1
				s-0.4-1-0.4-1.7c0-0.6,0.1-1.2,0.4-1.7c0.2-0.5,0.6-0.8,1-1.1c0.4-0.3,0.9-0.4,1.5-0.4c0.5,0,1,0.1,1.5,0.4
				c0.4,0.3,0.8,0.6,1,1.1C158.1,9.5,158.3,10.1,158.3,10.7z M157.5,10.7c0-0.5-0.1-1-0.3-1.3c-0.2-0.4-0.4-0.6-0.7-0.8
				c-0.3-0.2-0.7-0.3-1-0.3c-0.4,0-0.7,0.1-1,0.3c-0.3,0.2-0.6,0.5-0.7,0.8c-0.2,0.4-0.3,0.8-0.3,1.3c0,0.5,0.1,1,0.3,1.3
				c0.2,0.4,0.4,0.6,0.7,0.8c0.3,0.2,0.7,0.3,1,0.3c0.4,0,0.7-0.1,1-0.3c0.3-0.2,0.6-0.5,0.7-0.8C157.4,11.7,157.5,11.2,157.5,10.7z
				"/>
			<path class="st1" d="M163.2,10.4V11h-2.6v2.7h-0.8V7.7h3.8v0.7h-3.1v2.1H163.2z"/>
			<path class="st1" d="M166,7.7v6.1h-0.8V7.7H166z"/>
			<path class="st1" d="M173,9.6h-0.8c-0.1-0.3-0.2-0.5-0.4-0.7s-0.4-0.3-0.6-0.4c-0.2-0.1-0.5-0.1-0.8-0.1c-0.4,0-0.7,0.1-1,0.3
				c-0.3,0.2-0.6,0.5-0.7,0.8c-0.2,0.4-0.3,0.8-0.3,1.3c0,0.5,0.1,1,0.3,1.3c0.2,0.4,0.4,0.6,0.7,0.8c0.3,0.2,0.7,0.3,1,0.3
				c0.3,0,0.5,0,0.8-0.1c0.2-0.1,0.5-0.2,0.6-0.4s0.3-0.4,0.4-0.7h0.8c-0.1,0.4-0.2,0.8-0.5,1.1s-0.5,0.5-0.9,0.7
				c-0.4,0.2-0.8,0.2-1.2,0.2c-0.5,0-1-0.1-1.5-0.4s-0.8-0.6-1-1.1s-0.4-1-0.4-1.7c0-0.6,0.1-1.2,0.4-1.7c0.2-0.5,0.6-0.8,1-1.1
				c0.4-0.3,0.9-0.4,1.5-0.4c0.4,0,0.8,0.1,1.2,0.2c0.4,0.2,0.7,0.4,0.9,0.7S172.9,9.2,173,9.6z"/>
			<path class="st1" d="M175.2,7.7v6.1h-0.8V7.7H175.2z"/>
			<path class="st1" d="M177.3,13.8h-0.8l2.3-6.1h0.8l2.3,6.1h-0.8l-0.6-1.6h-2.7L177.3,13.8z M179.2,8.6l-1,2.8h2.2L179.2,8.6
				L179.2,8.6z"/>
			<path class="st1" d="M187,13.1v0.7h-3.7V7.7h0.8v5.4H187z"/>
		</g>
	</g>
</g>
</svg>
