<?xml version="1.0" encoding="utf-8"?>
<!-- Generator: Adobe Illustrator 16.0.0, SVG Export Plug-In . SVG Version: 6.00 Build 0)  -->
<!DOCTYPE svg PUBLIC "-//W3C//DTD SVG 1.1//EN" "http://www.w3.org/Graphics/SVG/1.1/DTD/svg11.dtd">
<svg version="1.1" id="Layer_1" xmlns="http://www.w3.org/2000/svg" xmlns:xlink="http://www.w3.org/1999/xlink" x="0px" y="0px"
	 width="100px" height="50px" viewBox="0 0 100 50" enable-background="new 0 0 100 50" xml:space="preserve">
<g opacity="0.6967">
	<defs>
		<filter id="Adobe_OpacityMaskFilter" filterUnits="userSpaceOnUse" x="19.25" y="15" width="11.5" height="20">
			<feColorMatrix  type="matrix" values="1 0 0 0 0  0 1 0 0 0  0 0 1 0 0  0 0 0 1 0"/>
		</filter>
	</defs>
	<mask maskUnits="userSpaceOnUse" x="19.25" y="15" width="11.5" height="20" id="mask0_1_">
		<path fill="#FFFFFF" filter="url(#Adobe_OpacityMaskFilter)" d="M13.25,13h24v24h-24V13z"/>
	</mask>
	<g mask="url(#mask0_1_)">
		<path fill="#FFFFFF" d="M30.477,15.312c-0.38-0.401-1.013-0.418-1.414-0.039l-9.5,9C19.363,24.463,19.25,24.726,19.25,25
			s0.113,0.537,0.312,0.727l9.5,9c0.401,0.379,1.034,0.362,1.414-0.039c0.38-0.4,0.362-1.033-0.039-1.414L21.705,25l8.732-8.274
			C30.839,16.346,30.856,15.713,30.477,15.312z M20.25,25l0.688,0.727L21.705,25l-0.767-0.726L20.25,25z"/>
	</g>
</g>
<g opacity="0.7029">
	<defs>
		<filter id="Adobe_OpacityMaskFilter_1_" filterUnits="userSpaceOnUse" x="65.515" y="15.514" width="18.971" height="18.972">
			<feColorMatrix  type="matrix" values="1 0 0 0 0  0 1 0 0 0  0 0 1 0 0  0 0 0 1 0"/>
		</filter>
	</defs>
	<mask maskUnits="userSpaceOnUse" x="65.515" y="15.514" width="18.971" height="18.972" id="mask0_2_">
		<path fill="#FFFFFF" filter="url(#Adobe_OpacityMaskFilter_1_)" d="M63,13h24v24H63V13z"/>
	</mask>
	<g mask="url(#mask0_2_)">
		<path fill="#FFFFFF" d="M65.808,17.222c-0.391-0.391-0.391-1.024,0-1.414c0.391-0.391,1.024-0.391,1.414,0l16.971,16.97
			c0.391,0.391,0.391,1.024,0,1.415c-0.391,0.39-1.023,0.39-1.414,0L65.808,17.222z"/>
		<path fill="#FFFFFF" d="M82.778,15.807c0.391-0.391,1.023-0.391,1.414,0s0.391,1.023,0,1.414l-16.97,16.97
			c-0.391,0.391-1.024,0.391-1.415,0s-0.391-1.023,0-1.414L82.778,15.807z"/>
	</g>
</g>
</svg>
