<svg width="83" height="62" viewBox="0 0 83 62" fill="none" xmlns="http://www.w3.org/2000/svg">
<path fill-rule="evenodd" clip-rule="evenodd" d="M73 2H5C3.34314 2 2 3.34314 2 5V57C2 58.6569 3.34314 60 5 60H73C74.6569 60 76 58.6569 76 57V5C76 3.34314 74.6569 2 73 2ZM5 0H73C75.7614 0 78 2.23859 78 5V57C78 59.7614 75.7614 62 73 62H5C2.23853 62 0 59.7614 0 57V5C0 2.23859 2.23853 0 5 0Z" fill="#3D4045"/>
<path d="M0 11C0 4.92487 4.92487 0 11 0H26.6667C27.403 0 28 0.596954 28 1.33333V20.6667C28 21.403 27.403 22 26.6667 22H11C4.92487 22 0 17.0751 0 11Z" transform="translate(54 19)" fill="#16171B"/>
<path fill-rule="evenodd" clip-rule="evenodd" d="M12 2H27.6667C27.8508 2 28 2.14923 28 2.33334V21.6667C28 21.8508 27.8508 22 27.6667 22H12C6.47717 22 2 17.5228 2 12C2 6.47714 6.47717 2 12 2ZM0 12C0 18.6274 5.37256 24 12 24H27.6667C28.9553 24 30 22.9553 30 21.6667V2.33334C30 1.04468 28.9553 0 27.6667 0H12C5.37256 0 0 5.37259 0 12Z" transform="translate(53 18)" fill="#3D4045"/>
<path d="M4.48 2.2C4.48 3.41503 3.47712 4.4 2.24 4.4C1.00288 4.4 0 3.41503 0 2.2C0 0.984973 1.00288 0 2.24 0C3.47712 0 4.48 0.984973 4.48 2.2Z" transform="translate(58.967 28.5704)" fill="#3D4045"/>
<path d="M6 3C6 4.65685 4.65685 6 3 6C1.34315 6 0 4.65685 0 3C0 1.34315 1.34315 0 3 0C4.65685 0 6 1.34315 6 3Z" transform="translate(9 38)" fill="#3D4045"/>
<path fill-rule="evenodd" clip-rule="evenodd" d="M2.00001 1.00001C2.00002 3.76145 4.23865 6.00007 7 6C7.55226 5.99999 7.99999 6.44771 7.99998 6.99998C7.99997 7.55224 7.55224 7.99997 7.00006 8.00006C3.134 8 1.07896e-05 4.86601 3.23688e-05 1.00003C-4.31584e-05 0.447682 0.447682 -4.31584e-05 1.00003 3.23688e-05C1.5523 2.15792e-05 2.00002 0.447747 2.00001 1.00001Z" transform="translate(29.9268 48) rotate(135)" fill="#3D4045"/>
<path d="M6 3C6 4.65685 4.65685 6 3 6C1.34315 6 0 4.65685 0 3C0 1.34315 1.34315 0 3 0C4.65685 0 6 1.34315 6 3Z" transform="translate(34 38)" fill="#3D4045"/>
</svg>
