<?xml version="1.0" encoding="utf-8"?>
<!-- Generator: Adobe Illustrator 16.0.0, SVG Export Plug-In . SVG Version: 6.00 Build 0)  -->
<!DOCTYPE svg PUBLIC "-//W3C//DTD SVG 1.1//EN" "http://www.w3.org/Graphics/SVG/1.1/DTD/svg11.dtd">
<svg version="1.1" id="Layer_1" xmlns="http://www.w3.org/2000/svg" xmlns:xlink="http://www.w3.org/1999/xlink" x="0px" y="0px"
	 width="582.914px" height="437.818px" viewBox="6.615 203.226 582.914 437.818"
	 enable-background="new 6.615 203.226 582.914 437.818" xml:space="preserve">
<g>
	<g>
		<path fill="#FFFFFF" d="M517.06,516.133V313.967c0-10.353-8.34-18.692-18.692-18.692s-18.692,8.339-18.692,18.692v65.279
			c0,21.568-5.177,22.718-12.366,2.588c-0.862-2.301-49.75-125.095-66.717-166.506c-4.026-9.778-14.667-13.229-23.581-11.791
			c-8.915,1.725-15.817,10.64-15.817,22.143v247.314v3.451c0,13.229-6.039,17.542-11.503,2.876l0,0l-84.834-210.218
			c-3.451-8.34-12.078-12.941-20.705-11.215c-8.628,1.726-14.954,9.202-14.954,18.117v238.4c0,10.353,8.34,18.692,18.692,18.692
			s18.692-8.34,18.692-18.692V396.214c0-8.915,6.039-8.915,9.202-2.013l88.285,232.648c6.614,14.667,19.268,15.529,25.595,13.229
			c8.339-3.163,13.803-11.503,13.803-23.868V348.764c0-9.777,5.465-10.928,8.915-1.438l69.019,181.172
			c3.163,8.34,11.79,13.229,20.705,11.791C510.733,538.563,517.06,530.799,517.06,516.133"/>
		<path fill="#FFFFFF" d="M106.115,351.64c-54.927,0-99.501,44.574-99.501,99.501s44.574,99.501,99.501,99.501
			s99.501-44.574,99.501-99.501S161.042,351.64,106.115,351.64z M106.115,513.544c-34.51,0-62.404-27.895-62.404-62.403
			s27.895-62.404,62.404-62.404c34.509,0,62.403,27.895,62.403,62.404S140.624,513.544,106.115,513.544z"/>
		<path fill="#FFFFFF" d="M570.261,300.739c10.353,0,18.692-8.34,18.692-18.692v-0.575c0-10.353-8.34-18.692-18.692-18.692
			s-18.692,8.34-18.692,18.692v0.575C551.856,292.399,559.908,300.739,570.261,300.739z"/>
		<path fill="#FFFFFF" d="M570.836,325.758c-10.353,0-18.692,8.34-18.692,18.692v161.329c0,10.354,8.34,18.692,18.692,18.692
			s18.692-8.339,18.692-18.692V344.45C589.24,334.098,580.902,325.758,570.836,325.758z"/>
	</g>
</g>
</svg>
