<?xml version="1.0" encoding="utf-8"?>
<!-- Generator: Adobe Illustrator 22.1.0, SVG Export Plug-In . SVG Version: 6.00 Build 0)  -->
<svg version="1.1" id="Layer_1" xmlns="http://www.w3.org/2000/svg" xmlns:xlink="http://www.w3.org/1999/xlink" x="0px" y="0px"
	 viewBox="0 0 207 156" style="enable-background:new 0 0 207 156;" xml:space="preserve">
<style type="text/css">
	.st0{fill:none;stroke:#000000;stroke-width:3;stroke-miterlimit:10;}
	.st1{fill:none;stroke:#E30613;stroke-miterlimit:10;}
	.st2{fill:none;stroke:#000000;stroke-miterlimit:10;}
</style>
<g>
	<path class="st0" d="M2609.9,164.2c0,12.5-10.2,22.7-22.7,22.7h-115.7c-12.5,0-22.7-10.2-22.7-22.7V48.5
		c0-12.5,10.2-22.7,22.7-22.7h115.7c12.5,0,22.7,10.2,22.7,22.7V164.2z"/>
</g>
<g>
	<g>
		<path d="M179.8,111.1V40.8c0-3.6-2.9-6.5-6.5-6.5s-6.5,2.9-6.5,6.5l0,22.7c0,7.5-1.8,7.9-4.3,0.9c-0.3-0.8-17.3-43.5-23.2-57.9
			c-1.4-3.4-5.1-4.6-8.2-4.1c-3.1,0.6-5.5,3.7-5.5,7.7v86v1.2c0,4.6-2.1,6.1-4,1l0,0L92.1,25.2c-1.2-2.9-4.2-4.5-7.2-3.9
			c-3,0.6-5.2,3.2-5.2,6.3v82.9c0,3.6,2.9,6.5,6.5,6.5c3.6,0,6.5-2.9,6.5-6.5V69.4c0-3.1,2.1-3.1,3.2-0.7l30.7,80.9
			c2.3,5.1,6.7,5.4,8.9,4.6c2.9-1.1,4.8-4,4.8-8.3V52.9c0-3.4,1.9-3.8,3.1-0.5l24,63c1.1,2.9,4.1,4.6,7.2,4.1
			C177.6,118.9,179.8,116.2,179.8,111.1"/>
		<path d="M36.9,53.9c-19.1,0-34.6,15.5-34.6,34.6c0,19.1,15.5,34.6,34.6,34.6c19.1,0,34.6-15.5,34.6-34.6
			C71.5,69.4,56,53.9,36.9,53.9z M36.9,110.2c-12,0-21.7-9.7-21.7-21.7c0-12,9.7-21.7,21.7-21.7s21.7,9.7,21.7,21.7
			C58.6,100.5,48.9,110.2,36.9,110.2z"/>
		<path d="M198.3,36.2c3.6,0,6.5-2.9,6.5-6.5v-0.2c0-3.6-2.9-6.5-6.5-6.5c-3.6,0-6.5,2.9-6.5,6.5v0.2
			C191.9,33.3,194.7,36.2,198.3,36.2z"/>
		<path d="M198.5,44.9c-3.6,0-6.5,2.9-6.5,6.5v56.1c0,3.6,2.9,6.5,6.5,6.5c3.6,0,6.5-2.9,6.5-6.5V51.4
			C204.9,47.8,202,44.9,198.5,44.9z"/>
	</g>
</g>
<line class="st1" x1="-481.6" y1="12.8" x2="-425.9" y2="157.9"/>
<line class="st1" x1="-467.5" y1="12.8" x2="-411.9" y2="157.9"/>
<line class="st1" x1="-527" y1="35" x2="-471.3" y2="180.1"/>
<line class="st1" x1="-512.9" y1="35" x2="-457.2" y2="180.1"/>
<line class="st1" x1="-520.7" y1="147.5" x2="-520.7" y2="19.6"/>
<line class="st1" x1="-507.8" y1="147.5" x2="-507.8" y2="19.6"/>
<line class="st1" x1="-433.4" y1="163" x2="-433.4" y2="35"/>
<line class="st1" x1="-420.6" y1="163" x2="-420.6" y2="35"/>
<line class="st1" x1="-408.3" y1="163" x2="-408.3" y2="35"/>
<line class="st1" x1="-395.4" y1="163" x2="-395.4" y2="35"/>
<line class="st1" x1="-475" y1="182.6" x2="-475" y2="19.6"/>
<line class="st1" x1="-460" y1="182.6" x2="-460" y2="19.6"/>
<path class="st1" d="M-395.5,54c0,3.6-2.9,6.6-6.6,6.6s-6.6-2.9-6.6-6.6c0-3.6,2.9-6.6,6.6-6.6S-395.5,50.4-395.5,54z"/>
<path class="st1" d="M-461,33.2c0,3.6-2.9,6.6-6.6,6.6c-3.6,0-6.6-2.9-6.6-6.6c0-3.6,2.9-6.6,6.6-6.6C-463.9,26.7-461,29.6-461,33.2
	z"/>
<path class="st1" d="M-420.6,65.4c0,3.6-2.9,6.6-6.6,6.6c-3.6,0-6.6-2.9-6.6-6.6c0-3.6,2.9-6.6,6.6-6.6
	C-423.5,58.9-420.6,61.8-420.6,65.4z"/>
<path class="st1" d="M-460.7,172.1c0,3.6-2.9,6.6-6.6,6.6c-3.6,0-6.6-2.9-6.6-6.6c0-3.6,2.9-6.6,6.6-6.6
	C-463.6,165.6-460.7,168.5-460.7,172.1z"/>
<path class="st1" d="M-507.4,52.3c0,3.6-2.9,6.6-6.6,6.6c-3.6,0-6.6-2.9-6.6-6.6c0-3.6,2.9-6.6,6.6-6.6
	C-510.3,45.8-507.4,48.7-507.4,52.3z"/>
<path class="st1" d="M-507.4,134.8c0,3.6-2.9,6.6-6.6,6.6c-3.6,0-6.6-2.9-6.6-6.6c0-3.6,2.9-6.6,6.6-6.6
	C-510.3,128.3-507.4,131.2-507.4,134.8z"/>
<path class="st1" d="M-556.9,84.9c0,3.6-2.9,6.6-6.6,6.6s-6.6-2.9-6.6-6.6c0-3.6,2.9-6.6,6.6-6.6S-556.9,81.3-556.9,84.9z"/>
<path class="st1" d="M-395.5,131.6c0,3.6-2.9,6.6-6.6,6.6c-3.6,0-6.6-2.9-6.6-6.6c0-3.6,2.9-6.6,6.6-6.6
	C-398.4,125-395.5,128-395.5,131.6z"/>
<path class="st1" d="M-395.5,76.3c0,3.6-2.9,6.6-6.6,6.6c-3.6,0-6.6-2.9-6.6-6.6c0-3.6,2.9-6.6,6.6-6.6
	C-398.4,69.8-395.5,72.7-395.5,76.3z"/>
<path class="st1" d="M-556.9,141.4c0,3.6-2.9,6.6-6.6,6.6s-6.6-2.9-6.6-6.6c0-3.6,2.9-6.6,6.6-6.6S-556.9,137.8-556.9,141.4z"/>
<path class="st1" d="M-420.6,137.1c0,3.6-2.9,6.6-6.6,6.6c-3.6,0-6.6-2.9-6.6-6.6c0-3.6,2.9-6.6,6.6-6.6
	C-423.5,130.6-420.6,133.5-420.6,137.1z"/>
<g>
	<g>
		<path class="st2" d="M-420.6,135.6V65.3c0-3.6-2.9-6.5-6.5-6.5s-6.5,2.9-6.5,6.5l0,22.7c0,7.5-1.8,7.9-4.3,0.9
			c-0.3-0.8-17.3-43.5-23.2-57.9c-1.4-3.4-5.1-4.6-8.2-4.1c-3.1,0.6-5.5,3.7-5.5,7.7v86v1.2c0,4.6-2.1,6.1-4,1l0,0l-29.5-73.1
			c-1.2-2.9-4.2-4.5-7.2-3.9c-3,0.6-5.2,3.2-5.2,6.3V135c0,3.6,2.9,6.5,6.5,6.5c3.6,0,6.5-2.9,6.5-6.5V93.9c0-3.1,2.1-3.1,3.2-0.7
			l30.7,80.9c2.3,5.1,6.7,5.4,8.9,4.6c2.9-1.1,4.8-4,4.8-8.3V77.3c0-3.4,1.9-3.8,3.1-0.5l24,63c1.1,2.9,4.1,4.6,7.2,4.1
			C-422.8,143.4-420.6,140.7-420.6,135.6"/>
		<path class="st2" d="M-563.4,78.3c-19.1,0-34.6,15.5-34.6,34.6c0,19.1,15.5,34.6,34.6,34.6c19.1,0,34.6-15.5,34.6-34.6
			C-528.8,93.9-544.3,78.3-563.4,78.3z M-563.4,134.7c-12,0-21.7-9.7-21.7-21.7c0-12,9.7-21.7,21.7-21.7s21.7,9.7,21.7,21.7
			C-541.7,124.9-551.5,134.7-563.4,134.7z"/>
		<path class="st2" d="M-402.1,60.6c3.6,0,6.5-2.9,6.5-6.5V54c0-3.6-2.9-6.5-6.5-6.5c-3.6,0-6.5,2.9-6.5,6.5v0.2
			C-408.5,57.8-405.6,60.6-402.1,60.6z"/>
		<path class="st2" d="M-401.9,69.4c-3.6,0-6.5,2.9-6.5,6.5V132c0,3.6,2.9,6.5,6.5,6.5c3.6,0,6.5-2.9,6.5-6.5V75.8
			C-395.4,72.3-398.3,69.4-401.9,69.4z"/>
	</g>
</g>
<g>
	<g>
		<path d="M782.4,136.5V66.2c0-3.6-2.9-6.5-6.5-6.5c-3.6,0-6.5,2.9-6.5,6.5l0,22.7c0,7.5-1.8,7.9-4.3,0.9
			c-0.3-0.8-17.3-43.5-23.2-57.9c-1.4-3.4-5.1-4.6-8.2-4.1c-3.1,0.6-5.5,3.7-5.5,7.7v86v1.2c0,4.6-2.1,6.1-4,1l0,0l-29.5-73.1
			c-1.2-2.9-4.2-4.5-7.2-3.9c-3,0.6-5.2,3.2-5.2,6.3v82.9c0,3.6,2.9,6.5,6.5,6.5c3.6,0,6.5-2.9,6.5-6.5V94.9c0-3.1,2.1-3.1,3.2-0.7
			l30.7,80.9c2.3,5.1,6.7,5.4,8.9,4.6c2.9-1.1,4.8-4,4.8-8.3V78.3c0-3.4,1.9-3.8,3.1-0.5l24,63c1.1,2.9,4.1,4.6,7.2,4.1
			C780.2,144.3,782.4,141.7,782.4,136.5"/>
		<path d="M800.9,61.6c3.6,0,6.5-2.9,6.5-6.5V55c0-3.6-2.9-6.5-6.5-6.5c-3.6,0-6.5,2.9-6.5,6.5v0.2
			C794.5,58.7,797.4,61.6,800.9,61.6z"/>
	</g>
</g>
<g>
	<g>
		<path d="M1424.4,135.6V65.3c0-3.6-2.9-6.5-6.5-6.5s-6.5,2.9-6.5,6.5l0,22.7c0,7.5-1.8,7.9-4.3,0.9c-0.3-0.8-17.3-43.5-23.2-57.9
			c-1.4-3.4-5.1-4.6-8.2-4.1c-3.1,0.6-5.5,3.7-5.5,7.7v86v1.2c0,4.6-2.1,6.1-4,1l0,0l-29.5-73.1c-1.2-2.9-4.2-4.5-7.2-3.9
			c-3,0.6-5.2,3.2-5.2,6.3V135c0,3.6,2.9,6.5,6.5,6.5c3.6,0,6.5-2.9,6.5-6.5V93.9c0-3.1,2.1-3.1,3.2-0.7l30.7,80.9
			c2.3,5.1,6.7,5.4,8.9,4.6c2.9-1.1,4.8-4,4.8-8.3V77.3c0-3.4,1.9-3.8,3.1-0.5l24,63c1.1,2.9,4.1,4.6,7.2,4.1
			C1422.2,143.4,1424.4,140.7,1424.4,135.6"/>
		<path d="M1281.6,78.3c-19.1,0-34.6,15.5-34.6,34.6c0,19.1,15.5,34.6,34.6,34.6c19.1,0,34.6-15.5,34.6-34.6
			C1316.2,93.9,1300.7,78.3,1281.6,78.3z M1281.6,134.7c-12,0-21.7-9.7-21.7-21.7c0-12,9.7-21.7,21.7-21.7s21.7,9.7,21.7,21.7
			C1303.3,124.9,1293.5,134.7,1281.6,134.7z"/>
		<path d="M1442.9,60.6c3.6,0,6.5-2.9,6.5-6.5V54c0-3.6-2.9-6.5-6.5-6.5c-3.6,0-6.5,2.9-6.5,6.5v0.2
			C1436.5,57.8,1439.4,60.6,1442.9,60.6z"/>
		<path d="M1443.1,69.4c-3.6,0-6.5,2.9-6.5,6.5V132c0,3.6,2.9,6.5,6.5,6.5s6.5-2.9,6.5-6.5V75.8
			C1449.6,72.3,1446.7,69.4,1443.1,69.4z"/>
	</g>
</g>
<g>
	<g>
		<path d="M1945.4,139V68.7c0-3.6-2.9-6.5-6.5-6.5c-3.6,0-6.5,2.9-6.5,6.5l0,22.7c0,7.5-1.8,7.9-4.3,0.9
			c-0.3-0.8-17.3-43.5-23.2-57.9c-1.4-3.4-5.1-4.6-8.2-4.1c-3.1,0.6-5.5,3.7-5.5,7.7v86v1.2c0,4.6-2.1,6.1-4,1l0,0L1857.7,53
			c-1.2-2.9-4.2-4.5-7.2-3.9c-3,0.6-5.2,3.2-5.2,6.3v82.9c0,3.6,2.9,6.5,6.5,6.5c3.6,0,6.5-2.9,6.5-6.5V97.3c0-3.1,2.1-3.1,3.2-0.7
			l30.7,80.9c2.3,5.1,6.7,5.4,8.9,4.6c2.9-1.1,4.8-4,4.8-8.3V80.7c0-3.4,1.9-3.8,3.1-0.5l24,63c1.1,2.9,4.1,4.6,7.2,4.1
			C1943.1,146.8,1945.4,144.1,1945.4,139"/>
		<path d="M1963.9,64c3.6,0,6.5-2.9,6.5-6.5v-0.2c0-3.6-2.9-6.5-6.5-6.5c-3.6,0-6.5,2.9-6.5,6.5v0.2
			C1957.4,61.2,1960.3,64,1963.9,64z"/>
	</g>
</g>
<g>
	<g>
		<path d="M2567,133.8V74.6c0-3-2.4-5.4-5.4-5.4c-3,0-5.4,2.4-5.4,5.4l0,19.1c0,6.3-1.5,6.7-3.6,0.8c-0.2-0.7-14.6-36.6-19.5-48.8
			c-1.2-2.9-4.3-3.9-6.9-3.4c-2.6,0.5-4.6,3.1-4.6,6.5v72.4v1c0,3.9-1.8,5.2-3.4,0.8l0,0l-24.9-61.6c-1-2.4-3.5-3.8-6.1-3.3
			c-2.6,0.5-4.4,2.7-4.4,5.3v69.9c0,3,2.4,5.4,5.4,5.4c3,0,5.4-2.4,5.4-5.4V98.7c0-2.6,1.8-2.6,2.7-0.6l25.9,68.2
			c1.9,4.3,5.7,4.6,7.5,3.9c2.5-0.9,4-3.3,4-7V84.8c0-2.8,1.6-3.2,2.6-0.4l20.2,53.1c0.9,2.5,3.5,3.9,6.1,3.4
			C2565.1,140.4,2567,138.1,2567,133.8"/>
		<path d="M2582.6,70.7c3,0,5.4-2.4,5.4-5.4v-0.2c0-3-2.4-5.4-5.4-5.4c-3,0-5.4,2.4-5.4,5.4v0.2
			C2577.2,68.3,2579.6,70.7,2582.6,70.7z"/>
	</g>
</g>
<g>
	<path d="M1479.2,98.2c-1,1-2.5,1.7-4.8,1.7h-1.2c-4.2,0-6.8-2.6-6.8-6.4V81.3c0-3.8,2.7-6.4,6.8-6.4h1.2c2.1,0,3.5,0.6,4.5,1.4
		c0.7,0.6,1.2,1.2,1.6,2c0.1,0.2,0,0.4-0.2,0.5l-2,1c-0.2,0.1-0.3,0-0.5-0.2c-0.8-1.3-2.2-2.1-3.4-2.1h-1.2c-2.1,0-3.8,1.7-3.8,3.8
		v12.2c0,2,1.7,3.8,3.8,3.8h1.2c1.3,0,2.6-0.8,3.4-2.2c0.1-0.2,0.3-0.3,0.5-0.2l2,1c0.2,0.1,0.3,0.3,0.2,0.5
		C1480.2,97.1,1479.8,97.7,1479.2,98.2z"/>
	<path d="M1494.6,77.9h-4.5c-0.3,0-0.4,0.1-0.4,0.4v20.9c0,0.3-0.1,0.4-0.4,0.4h-2.3c-0.3,0-0.4-0.1-0.4-0.4V78.3
		c0-0.3-0.1-0.4-0.4-0.4h-4.5c-0.3,0-0.4-0.1-0.4-0.4v-1.9c0-0.3,0.1-0.4,0.4-0.4h12.9c0.3,0,0.4,0.1,0.4,0.4v1.9
		C1495,77.8,1494.9,77.9,1494.6,77.9z"/>
	<path d="M1512.4,99.5h-2.5c-0.2,0-0.3-0.1-0.3-0.3l-3.6-10.5c0-0.2-0.2-0.2-0.3-0.2h-4.4c-0.3,0-0.4,0.1-0.4,0.4v10.2
		c0,0.3-0.1,0.4-0.4,0.4h-2.2c-0.3,0-0.4-0.1-0.4-0.4V75.6c0-0.3,0.1-0.4,0.4-0.4h7.6c4.2,0,6.8,2.7,6.8,6.8v0.4
		c0,2-1.8,4.4-3.5,5.2c-0.2,0.1-0.3,0.2-0.2,0.4l3.8,11C1512.9,99.3,1512.8,99.5,1512.4,99.5z M1509.7,81.7c0-2-1.7-3.8-3.8-3.8
		h-4.6c-0.3,0-0.4,0.1-0.4,0.4v7.2c0,0.3,0.1,0.4,0.4,0.4h4.6c2.1,0,3.8-1.7,3.8-3.8V81.7z"/>
	<path d="M1530.2,99.5h-12.9c-0.3,0-0.4-0.1-0.4-0.4V75.6c0-0.3,0.1-0.4,0.4-0.4h2.2c0.3,0,0.4,0.1,0.4,0.4v20.9
		c0,0.3,0.1,0.4,0.4,0.4h9.9c0.3,0,0.4,0.1,0.4,0.4v1.9C1530.6,99.4,1530.5,99.5,1530.2,99.5z"/>
	<path d="M1485.5,130.7h-2.2c-0.3,0-0.4-0.1-0.4-0.4v-7.9c0-3.7,0.2-7,0.3-8.9l-0.2,0c-0.2,0.6-0.6,1.9-1,2.7l-4.9,10.8
		c-0.1,0.2-0.2,0.2-0.3,0.2h-1c-0.2,0-0.3-0.1-0.3-0.2l-4.8-10.8c-0.3-0.8-0.8-1.9-1-2.7l-0.2,0c0.2,2,0.3,5.2,0.3,8.9v7.9
		c0,0.3-0.1,0.4-0.4,0.4h-2.2c-0.3,0-0.4-0.1-0.4-0.4v-23.5c0-0.3,0.1-0.4,0.4-0.4h2.1c0.2,0,0.3,0.1,0.3,0.2l6.1,14.2
		c0.1,0.2,0.4,1.2,0.5,1.5h0.1c0.1-0.3,0.4-1.3,0.5-1.5l6.1-14.2c0.1-0.2,0.2-0.2,0.3-0.2h2.1c0.3,0,0.4,0.1,0.4,0.4v23.5
		C1485.9,130.6,1485.8,130.7,1485.5,130.7z"/>
	<path d="M1499.3,131.1h-1.2c-4.2,0-6.8-2.6-6.8-6.4v-17.8c0-0.3,0.1-0.4,0.4-0.4h2.3c0.3,0,0.4,0.1,0.4,0.4v17.8
		c0,2,1.7,3.8,3.8,3.8h1.2c2,0,3.8-1.7,3.8-3.8v-17.8c0-0.3,0.1-0.4,0.4-0.4h2.3c0.3,0,0.4,0.1,0.4,0.4v17.8
		C1506.2,128.4,1503.5,131.1,1499.3,131.1z"/>
	<path d="M1518.2,131.1h-1.7c-2,0-3.4-0.5-4.4-1.3c-0.7-0.6-1.3-1.3-1.7-2.1c-0.1-0.2-0.1-0.4,0.2-0.5l2-1c0.2-0.1,0.4,0,0.5,0.2
		c0.8,1.4,2.1,2.2,3.4,2.2h1.7c2.1,0,3.8-1.7,3.8-3.8c0-2.6-2.4-3.7-4.9-4.9c-3-1.3-6.3-2.9-6.3-7.3c0-3.7,2.7-6.4,6.8-6.4h0.6
		c2.3,0,3.8,0.7,4.9,1.7c0.5,0.5,0.9,1.1,1.3,1.7c0.1,0.2,0,0.4-0.2,0.5l-2,1c-0.2,0.1-0.3,0-0.5-0.2c-0.8-1.4-2.1-2.1-3.4-2.1h-0.6
		c-2.3,0-3.8,1.5-3.8,3.8c0,2.3,2.5,3.4,5.2,4.6c2.9,1.3,6,3,6,7.6C1525,128.4,1522.4,131.1,1518.2,131.1z"/>
	<path d="M1532.1,130.7h-2.2c-0.3,0-0.4-0.1-0.4-0.4v-23.5c0-0.3,0.1-0.4,0.4-0.4h2.2c0.3,0,0.4,0.1,0.4,0.4v23.5
		C1532.5,130.6,1532.4,130.7,1532.1,130.7z"/>
	<path d="M1550.3,129.4c-1,1-2.5,1.7-4.8,1.7h-1.2c-4.2,0-6.8-2.6-6.8-6.4v-12.2c0-3.8,2.7-6.4,6.8-6.4h1.2c2.1,0,3.5,0.6,4.5,1.4
		c0.7,0.6,1.2,1.2,1.6,2c0.1,0.2,0,0.4-0.2,0.5l-2,1c-0.2,0.1-0.3,0-0.5-0.2c-0.8-1.3-2.2-2.1-3.4-2.1h-1.2c-2.1,0-3.8,1.7-3.8,3.8
		v12.2c0,2,1.7,3.8,3.8,3.8h1.2c1.3,0,2.6-0.8,3.4-2.2c0.1-0.2,0.3-0.3,0.5-0.2l2,1c0.2,0.1,0.3,0.3,0.2,0.5
		C1551.3,128.3,1550.9,128.9,1550.3,129.4z"/>
</g>
<g>
	<path d="M1987.7,101.2c-1,1-2.5,1.7-4.8,1.7h-1.2c-4.2,0-6.8-2.6-6.8-6.4V84.3c0-3.8,2.7-6.4,6.8-6.4h1.2c2.1,0,3.5,0.6,4.5,1.4
		c0.7,0.6,1.2,1.2,1.6,2c0.1,0.2,0,0.4-0.2,0.5l-2,1c-0.2,0.1-0.3,0-0.5-0.2c-0.8-1.3-2.2-2.1-3.4-2.1h-1.2c-2.1,0-3.8,1.7-3.8,3.8
		v12.2c0,2,1.7,3.8,3.8,3.8h1.2c1.3,0,2.6-0.8,3.4-2.2c0.1-0.2,0.3-0.3,0.5-0.2l2,1c0.2,0.1,0.3,0.3,0.2,0.5
		C1988.7,100.1,1988.3,100.7,1987.7,101.2z"/>
	<path d="M2003.1,80.9h-4.5c-0.3,0-0.4,0.1-0.4,0.4v20.9c0,0.3-0.1,0.4-0.4,0.4h-2.3c-0.3,0-0.4-0.1-0.4-0.4V81.3
		c0-0.3-0.1-0.4-0.4-0.4h-4.5c-0.3,0-0.4-0.1-0.4-0.4v-1.9c0-0.3,0.1-0.4,0.4-0.4h12.9c0.3,0,0.4,0.1,0.4,0.4v1.9
		C2003.5,80.8,2003.4,80.9,2003.1,80.9z"/>
	<path d="M2021,102.5h-2.5c-0.2,0-0.3-0.1-0.3-0.3l-3.6-10.5c0-0.2-0.2-0.2-0.3-0.2h-4.4c-0.3,0-0.4,0.1-0.4,0.4v10.2
		c0,0.3-0.1,0.4-0.4,0.4h-2.2c-0.3,0-0.4-0.1-0.4-0.4V78.6c0-0.3,0.1-0.4,0.4-0.4h7.6c4.2,0,6.8,2.7,6.8,6.8v0.4
		c0,2-1.8,4.4-3.5,5.2c-0.2,0.1-0.3,0.2-0.2,0.4l3.8,11C2021.4,102.3,2021.3,102.5,2021,102.5z M2018.2,84.7c0-2-1.7-3.8-3.8-3.8
		h-4.6c-0.3,0-0.4,0.1-0.4,0.4v7.2c0,0.3,0.1,0.4,0.4,0.4h4.6c2.1,0,3.8-1.7,3.8-3.8V84.7z"/>
	<path d="M2038.8,102.5h-12.9c-0.3,0-0.4-0.1-0.4-0.4V78.6c0-0.3,0.1-0.4,0.4-0.4h2.2c0.3,0,0.4,0.1,0.4,0.4v20.9
		c0,0.3,0.1,0.4,0.4,0.4h9.9c0.3,0,0.4,0.1,0.4,0.4v1.9C2039.1,102.4,2039,102.5,2038.8,102.5z"/>
	<path d="M1994.1,133.7h-2.2c-0.3,0-0.4-0.1-0.4-0.4v-7.9c0-3.7,0.2-7,0.3-8.9l-0.2,0c-0.2,0.6-0.6,1.9-1,2.7l-4.9,10.8
		c-0.1,0.2-0.2,0.2-0.3,0.2h-1c-0.2,0-0.3-0.1-0.3-0.2l-4.8-10.8c-0.3-0.8-0.8-1.9-1-2.7l-0.2,0c0.2,2,0.3,5.2,0.3,8.9v7.9
		c0,0.3-0.1,0.4-0.4,0.4h-2.2c-0.3,0-0.4-0.1-0.4-0.4v-23.5c0-0.3,0.1-0.4,0.4-0.4h2.1c0.2,0,0.3,0.1,0.3,0.2l6.1,14.2
		c0.1,0.2,0.4,1.2,0.5,1.5h0.1c0.1-0.3,0.4-1.3,0.5-1.5l6.1-14.2c0.1-0.2,0.2-0.2,0.3-0.2h2.1c0.3,0,0.4,0.1,0.4,0.4v23.5
		C1994.5,133.6,1994.3,133.7,1994.1,133.7z"/>
	<path d="M2007.9,134.1h-1.2c-4.2,0-6.8-2.6-6.8-6.4v-17.8c0-0.3,0.1-0.4,0.4-0.4h2.3c0.3,0,0.4,0.1,0.4,0.4v17.8
		c0,2,1.7,3.8,3.8,3.8h1.2c2,0,3.8-1.7,3.8-3.8v-17.8c0-0.3,0.1-0.4,0.4-0.4h2.3c0.3,0,0.4,0.1,0.4,0.4v17.8
		C2014.7,131.4,2012,134.1,2007.9,134.1z"/>
	<path d="M2026.7,134.1h-1.7c-2,0-3.4-0.5-4.4-1.3c-0.7-0.6-1.3-1.3-1.7-2.1c-0.1-0.2-0.1-0.4,0.2-0.5l2-1c0.2-0.1,0.4,0,0.5,0.2
		c0.8,1.4,2.1,2.2,3.4,2.2h1.7c2.1,0,3.8-1.7,3.8-3.8c0-2.6-2.4-3.7-4.9-4.9c-3-1.3-6.3-2.9-6.3-7.3c0-3.7,2.7-6.4,6.8-6.4h0.6
		c2.3,0,3.8,0.7,4.9,1.7c0.5,0.5,0.9,1.1,1.3,1.7c0.1,0.2,0,0.4-0.2,0.5l-2,1c-0.2,0.1-0.3,0-0.5-0.2c-0.8-1.4-2.1-2.1-3.4-2.1h-0.6
		c-2.3,0-3.8,1.5-3.8,3.8c0,2.3,2.5,3.4,5.2,4.6c2.9,1.3,6,3,6,7.6C2033.6,131.4,2030.9,134.1,2026.7,134.1z"/>
	<path d="M2040.6,133.7h-2.2c-0.3,0-0.4-0.1-0.4-0.4v-23.5c0-0.3,0.1-0.4,0.4-0.4h2.2c0.3,0,0.4,0.1,0.4,0.4v23.5
		C2041,133.6,2040.9,133.7,2040.6,133.7z"/>
	<path d="M2058.8,132.4c-1,1-2.5,1.7-4.8,1.7h-1.2c-4.2,0-6.8-2.6-6.8-6.4v-12.2c0-3.8,2.7-6.4,6.8-6.4h1.2c2.1,0,3.5,0.6,4.5,1.4
		c0.7,0.6,1.2,1.2,1.6,2c0.1,0.2,0,0.4-0.2,0.5l-2,1c-0.2,0.1-0.3,0-0.5-0.2c-0.8-1.3-2.2-2.1-3.4-2.1h-1.2c-2.1,0-3.8,1.7-3.8,3.8
		v12.2c0,2,1.7,3.8,3.8,3.8h1.2c1.3,0,2.6-0.8,3.4-2.2c0.1-0.2,0.3-0.3,0.5-0.2l2,1c0.2,0.1,0.3,0.3,0.2,0.5
		C2059.8,131.3,2059.4,131.9,2058.8,132.4z"/>
</g>
</svg>
