<svg width="33" height="38" viewBox="0 0 33 38" version="1.1" xmlns="http://www.w3.org/2000/svg" xmlns:xlink="http://www.w3.org/1999/xlink">
<g id="Canvas" fill="none">
<g id="Apple_logo_black">
<path id="Shape" fill-rule="evenodd" clip-rule="evenodd" d="M 21.9231 6.05664C 23.3068 4.41992 24.0009 2.65161 24.0009 0.757568C 24.0009 0.506348 23.9891 0.253174 23.9611 0C 22.9972 0.0498047 21.9723 0.34082 20.8888 0.867188C 19.803 1.40161 18.9076 2.07129 18.2035 2.87695C 16.7933 4.46777 15.9993 6.41357 15.9993 8.23169C 15.9993 8.48315 16.0155 8.72217 16.0433 8.94946C 18.2335 9.12695 20.2533 8.00244 21.9231 6.05664ZM 29.2894 33.1729C 30.0774 32.0532 30.7574 30.8352 31.332 29.5122C 31.569 28.9512 31.7917 28.3667 32.0028 27.7566C 31.0295 27.3499 30.1548 26.7773 29.3715 26.0361C 27.6431 24.4397 26.7635 22.429 26.7378 20.0125C 26.7097 16.9104 28.1238 14.4922 30.9827 12.7656C 29.3855 10.5027 26.984 9.24683 23.7875 8.98975C 22.6079 8.88989 21.168 9.14331 19.4618 9.75513C 17.6576 10.415 16.5934 10.7461 16.2793 10.7461C 15.8593 10.7461 14.9012 10.4631 13.4092 9.90479C 11.913 9.34839 10.709 9.06543 9.79077 9.06543C 8.11279 9.09326 6.55469 9.52808 5.11255 10.3811C 3.67053 11.2344 2.51831 12.3967 1.65222 13.8701C 0.550171 15.7043 0 17.8933 0 20.4312C 0 22.6467 0.408081 24.9353 1.22205 27.2986C 1.98218 29.4866 2.95239 31.4058 4.13245 33.0608C 5.23242 34.6106 6.15051 35.7046 6.88464 36.3425C 8.03467 37.4087 9.18689 37.9158 10.3429 37.8667C 11.1029 37.8411 12.097 37.5815 13.3312 37.0837C 14.5634 36.5881 15.7153 36.3425 16.7894 36.3425C 17.8136 36.3425 18.9336 36.5881 20.1525 37.0837C 21.3673 37.5815 22.4109 37.8269 23.2762 37.8269C 24.4817 37.7991 25.6074 37.3057 26.6581 36.3425C 27.3358 35.7559 28.2153 34.6992 29.2894 33.1729Z" fill="white"/>
</g>
</g>
</svg>
