<?xml version="1.0" encoding="utf-8"?>
<!-- Generator: Adobe Illustrator 16.0.0, SVG Export Plug-In . SVG Version: 6.00 Build 0)  -->
<!DOCTYPE svg PUBLIC "-//W3C//DTD SVG 1.1//EN" "http://www.w3.org/Graphics/SVG/1.1/DTD/svg11.dtd">
<svg version="1.1" id="Capa_1" xmlns="http://www.w3.org/2000/svg" xmlns:xlink="http://www.w3.org/1999/xlink" x="0px" y="0px"
	 width="54.021px" height="54.021px" viewBox="287.641 410.944 54.021 54.021"
	 enable-background="new 287.641 410.944 54.021 54.021" xml:space="preserve">
<g>
	<path fill="#FFFFFF" d="M319.716,444.71c-0.929,0-1.688,0.759-1.688,1.688s0.76,1.688,1.688,1.688s1.688-0.76,1.688-1.688
		S320.645,444.71,319.716,444.71z"/>
	<circle fill="#FFFFFF" cx="309.587" cy="429.517" r="1.688"/>
	<path fill="#FFFFFF" d="M339.18,437.957l2.368-6.182c0.262-0.682,0.059-1.454-0.512-1.917l-5.138-4.167l-1.042-6.539
		c-0.113-0.723-0.681-1.287-1.403-1.401l-6.539-1.041l-4.165-5.142c-0.459-0.57-1.247-0.773-1.912-0.513l-6.186,2.374l-6.183-2.37
		c-0.685-0.264-1.451-0.054-1.914,0.513l-4.166,5.142l-6.539,1.04c-0.72,0.115-1.288,0.682-1.402,1.4l-1.039,6.54l-5.142,4.167
		c-0.567,0.459-0.773,1.231-0.513,1.913l2.37,6.182l-2.37,6.183c-0.264,0.681-0.054,1.453,0.513,1.912l5.142,4.163l1.039,6.541
		c0.115,0.721,0.679,1.29,1.402,1.403l6.539,1.039l4.166,5.139c0.463,0.575,1.236,0.778,1.918,0.515l6.179-2.366l6.181,2.368
		c0.197,0.074,0.4,0.111,0.606,0.111c0.496,0,0.983-0.219,1.311-0.628l4.165-5.139l6.539-1.039c0.723-0.113,1.29-0.683,1.403-1.403
		l1.042-6.541l5.138-4.163c0.57-0.461,0.773-1.231,0.512-1.912L339.18,437.957z M309.587,424.453c2.792,0,5.064,2.272,5.064,5.063
		c0,2.792-2.272,5.064-5.064,5.064s-5.064-2.272-5.064-5.064C304.523,426.726,306.795,424.453,309.587,424.453z M319.716,451.462
		c-2.793,0-5.064-2.273-5.064-5.064c0-2.793,2.271-5.064,5.064-5.064c2.791,0,5.064,2.271,5.064,5.064
		C324.781,449.188,322.507,451.462,319.716,451.462z M324.469,427.12l-16.881,23.633c-0.334,0.461-0.851,0.709-1.377,0.709
		c-0.342,0-0.682-0.103-0.979-0.313c-0.76-0.544-0.937-1.599-0.392-2.358l16.88-23.631c0.543-0.76,1.596-0.936,2.358-0.392
		C324.836,425.307,325.01,426.364,324.469,427.12z"/>
</g>
</svg>
