<?xml version="1.0" encoding="utf-8"?>
<!-- Generator: Adobe Illustrator 16.0.0, SVG Export Plug-In . SVG Version: 6.00 Build 0)  -->
<!DOCTYPE svg PUBLIC "-//W3C//DTD SVG 1.1//EN" "http://www.w3.org/Graphics/SVG/1.1/DTD/svg11.dtd">
<svg version="1.1" id="Layer_1" xmlns="http://www.w3.org/2000/svg" xmlns:xlink="http://www.w3.org/1999/xlink" x="0px" y="0px"
	 width="230px" height="38.334px" viewBox="35 5.833 230 38.334" enable-background="new 35 5.833 230 38.334" xml:space="preserve"
	>
<g id="Canvas">
	<g id="Apple_logo_black">
		<path id="Shape" fill="#FFFFFF" d="M58.707,15.125c1.062-1.255,1.593-2.61,1.593-4.062c0-0.193-0.009-0.388-0.03-0.581
			c-0.738,0.037-1.523,0.26-2.354,0.665c-0.833,0.409-1.519,0.921-2.061,1.539c-1.082,1.223-1.69,2.713-1.69,4.107
			c0,0.194,0.011,0.375,0.033,0.55C55.878,17.48,57.426,16.617,58.707,15.125z M64.354,35.915c0.604-0.86,1.127-1.791,1.568-2.807
			c0.181-0.432,0.35-0.879,0.514-1.345c-0.748-0.312-1.418-0.754-2.017-1.317c-1.325-1.229-1.999-2.766-2.021-4.622
			c-0.022-2.379,1.065-4.232,3.256-5.555c-1.225-1.734-3.065-2.698-5.517-2.895c-0.907-0.076-2.008,0.118-3.317,0.587
			c-1.383,0.506-2.199,0.759-2.441,0.759c-0.321,0-1.056-0.217-2.2-0.644c-1.147-0.427-2.068-0.643-2.775-0.643
			c-1.285,0.021-2.48,0.354-3.584,1.007c-1.106,0.656-1.99,1.545-2.653,2.676C42.32,22.523,41.9,24.2,41.9,26.147
			c0,1.695,0.312,3.451,0.935,5.266c0.582,1.677,1.327,3.145,2.233,4.417c0.842,1.188,1.546,2.029,2.109,2.517
			c0.88,0.815,1.765,1.203,2.651,1.168c0.583-0.018,1.344-0.218,2.291-0.6c0.944-0.382,1.827-0.568,2.651-0.568
			c0.785,0,1.642,0.187,2.577,0.568c0.932,0.382,1.733,0.567,2.396,0.567c0.923-0.021,1.788-0.398,2.592-1.136
			C62.857,37.896,63.531,37.085,64.354,35.915z"/>
	</g>
</g>
<g id="Canvas_1_">
	<g id="google_play">
		<g id="Group">
			<path id="Shape_1_" fill="#FFFFFF" d="M80.985,11.57c-0.17,0.143-0.409,0.44-0.525,0.659l-0.209,0.391v12.327v12.327l0.238,0.474
				c0.135,0.27,0.382,0.575,0.562,0.691c0.449,0.297,1.223,0.297,1.874-0.012c0.438-0.202,0.888-0.725,5.78-6.785
				c2.913-3.611,5.303-6.602,5.303-6.647c0-0.041-1.911-2.437-4.254-5.313c-2.338-2.885-4.738-5.839-5.321-6.574
				c-1.214-1.49-1.462-1.672-2.511-1.747C81.34,11.312,81.274,11.332,80.985,11.57z"/>
			<path id="Shape_2" fill="#FFFFFF" d="M86.146,13.509c0.218,0.314,8.616,10.71,8.638,10.691c0-0.01,0.687-0.85,1.507-1.863
				c0.831-1.022,1.52-1.902,1.548-1.968c0.03-0.066-2.006-1.299-5.188-3.161c-2.886-1.681-5.548-3.241-5.931-3.458
				C86.271,13.482,86.06,13.395,86.146,13.509z"/>
			<path id="Shape_3" fill="#FFFFFF" d="M97.784,22.854c-0.918,1.137-1.662,2.093-1.644,2.121c0.057,0.164,3.324,4.127,3.392,4.127
				c0.173,0,4.25-2.428,4.539-2.7c0.925-0.897,0.907-2.124-0.067-2.945c-0.365-0.314-4.33-2.665-4.472-2.665
				C99.482,20.791,98.7,21.716,97.784,22.854z"/>
			<path id="Shape_4" fill="#FFFFFF" d="M90.464,31.12c-2.36,2.914-4.337,5.358-4.385,5.437c-0.057,0.093,0.018,0.074,0.249-0.06
				c0.181-0.103,2.797-1.625,5.819-3.379c3.02-1.75,5.549-3.241,5.626-3.307c0.124-0.115-0.247-0.601-2.864-3.806
				C94.763,25.837,94.534,26.104,90.464,31.12z"/>
		</g>
	</g>
</g>
<g id="Canvas_2_">
	<path id="Facebok" fill="#FFFFFF" d="M128.178,35.523h4.239V24.91h2.958l0.317-3.536h-3.275v-2.029
		c0-0.842,0.169-1.169,0.978-1.169h2.297v-3.705h-2.937c-3.156,0-4.578,1.391-4.578,4.061v2.842h-2.205v3.6h2.205V35.523
		L128.178,35.523z"/>
</g>
<g id="Canvas_3_">
	<g id="Instagram">
		<path id="Shape_2_" fill="#FFFFFF" d="M165.138,15.281c1.046-0.057,1.377-0.057,4.031-0.057v0.008
			c2.651,0,2.985,0.007,4.023,0.059c0.811,0.014,1.616,0.168,2.376,0.451c0.649,0.246,1.238,0.633,1.726,1.131
			c0.5,0.485,0.884,1.075,1.127,1.728c0.284,0.757,0.438,1.56,0.453,2.373c0.062,1.041,0.062,1.373,0.062,4.027
			s-0.017,2.986-0.062,4.025c-0.014,0.812-0.169,1.611-0.453,2.368c-0.505,1.319-1.545,2.356-2.853,2.87
			c-0.76,0.279-1.565,0.433-2.376,0.452c-1.038,0.062-1.372,0.062-4.023,0.062c-2.654,0-2.985-0.018-4.031-0.062
			c-0.812-0.021-1.61-0.179-2.368-0.463c-0.652-0.243-1.242-0.628-1.73-1.127c-0.494-0.487-0.88-1.08-1.129-1.732
			c-0.285-0.761-0.439-1.566-0.453-2.379c-0.057-1.038-0.057-1.37-0.057-4.022c0-2.655,0.011-2.986,0.057-4.03
			c0.016-0.809,0.169-1.612,0.453-2.37c0.246-0.651,0.633-1.243,1.129-1.729c0.488-0.496,1.078-0.884,1.73-1.131
			C163.527,15.449,164.326,15.298,165.138,15.281z M173.11,17.055C172.071,17,171.775,17,169.169,17v-0.014
			c-2.607,0-2.919,0.007-3.95,0.053c-0.617,0.008-1.232,0.122-1.813,0.336c-0.423,0.158-0.809,0.408-1.127,0.731
			c-0.317,0.322-0.56,0.712-0.707,1.141c-0.218,0.582-0.329,1.193-0.337,1.811c-0.056,1.042-0.056,1.342-0.056,3.948
			c0,2.611,0,2.919,0.037,3.967c0.005,0.621,0.119,1.232,0.335,1.812c0.157,0.426,0.408,0.808,0.728,1.122
			c0.316,0.33,0.702,0.581,1.127,0.733c0.58,0.214,1.196,0.328,1.813,0.337c1.04,0.055,1.341,0.055,3.95,0.055
			c2.606,0,2.914-0.005,3.941-0.055c0.62-0.009,1.233-0.123,1.813-0.337c0.863-0.333,1.537-1.025,1.855-1.891
			c0.216-0.578,0.331-1.195,0.337-1.812c0.056-1.039,0.056-1.341,0.056-3.946c0-2.608-0.006-2.92-0.056-3.95
			c-0.006-0.618-0.12-1.232-0.337-1.809c-0.152-0.426-0.4-0.811-0.729-1.126c-0.32-0.318-0.703-0.561-1.127-0.715
			C174.344,17.178,173.73,17.064,173.11,17.055z"/>
		<path id="Shape_2_1_" fill="#FFFFFF" d="M164.15,25.006c0-2.769,2.246-5.015,5.019-5.015c1.327,0,2.605,0.529,3.547,1.468
			c0.939,0.941,1.465,2.218,1.465,3.547c0,2.77-2.246,5.016-5.012,5.016C166.396,30.022,164.15,27.776,164.15,25.006z
			 M165.913,25.006c0,1.802,1.457,3.259,3.256,3.259c0.859,0,1.687-0.345,2.298-0.957c0.612-0.611,0.957-1.438,0.957-2.302
			c0-1.797-1.457-3.255-3.255-3.255C167.37,21.751,165.913,23.209,165.913,25.006z"/>
		<path id="Shape_3_1_" fill="#FFFFFF" d="M175.551,19.792c0.002,0.475-0.277,0.905-0.721,1.089
			c-0.439,0.183-0.943,0.082-1.279-0.254c-0.338-0.336-0.44-0.841-0.259-1.281c0.185-0.438,0.612-0.726,1.088-0.726
			C175.027,18.62,175.549,19.144,175.551,19.792z"/>
	</g>
</g>
<g id="Canvas_5_">
	<path fill="#FFFFFF" d="M253.036,17.797c-1.909-1.909-4.502-2.98-7.205-2.979c-5.618,0-10.177,4.559-10.177,10.18
		c0,5.626,4.559,10.184,10.177,10.184c5.626,0,10.183-4.558,10.183-10.184C256.017,22.299,254.946,19.708,253.036,17.797z
		 M250.521,29.527c-0.087,0.149-0.225,0.254-0.392,0.291c-0.165,0.043-0.336,0.009-0.478-0.087
		c-2.388-1.478-5.394-1.778-8.959-0.967c-0.321,0.062-0.636-0.142-0.72-0.464c-0.076-0.324,0.105-0.648,0.42-0.751
		c3.865-0.867,7.225-0.514,9.869,1.123c0.153,0.07,0.27,0.206,0.318,0.371C250.63,29.209,250.608,29.385,250.521,29.527z
		 M251.737,26.729L251.737,26.729c-0.109,0.176-0.279,0.305-0.481,0.351c-0.2,0.048-0.414,0.019-0.588-0.093
		c-2.75-1.682-6.928-2.191-10.148-1.173c-0.273,0.114-0.588,0.062-0.809-0.131c-0.223-0.2-0.312-0.503-0.238-0.789
		c0.083-0.283,0.314-0.499,0.607-0.551c3.721-1.123,8.297-0.562,11.455,1.371c0.164,0.106,0.28,0.272,0.319,0.466
		C251.895,26.37,251.851,26.567,251.737,26.729z M251.843,23.88l-0.005,0.007c-3.246-1.936-8.703-2.138-11.809-1.172
		c-0.326,0.124-0.691,0.056-0.951-0.172c-0.256-0.23-0.369-0.583-0.288-0.92c0.078-0.336,0.345-0.603,0.68-0.685
		c3.613-1.074,9.57-0.871,13.335,1.373c0.459,0.27,0.617,0.856,0.356,1.323C252.838,24.017,252.284,24.119,251.843,23.88z"/>
</g>
<g>
	<path fill="#FFFFFF" d="M210.154,22.681c0.516-0.047,0.983-0.326,1.28-0.753v0.664h1.089v-6.02h-1.104v4.566
		c-0.135,0.169-0.438,0.45-0.652,0.45c-0.215,0-0.298-0.162-0.298-0.413v-4.607h-1.095v5.031
		C209.375,22.194,209.555,22.681,210.154,22.681z"/>
	<path fill="#FFFFFF" d="M205.221,21.086c0,1.063,0.549,1.609,1.634,1.609c0.431,0.025,0.848-0.138,1.151-0.441
		c0.307-0.309,0.468-0.732,0.443-1.168V18.14c0.009-0.433-0.152-0.85-0.455-1.155c-0.303-0.307-0.713-0.474-1.142-0.465
		c-0.439-0.031-0.868,0.128-1.183,0.437c-0.312,0.311-0.475,0.74-0.451,1.183v2.946H205.221z M206.36,18.234
		c0-0.328,0.149-0.573,0.458-0.573c0.311,0,0.49,0.239,0.49,0.573v2.796c0,0.331-0.164,0.57-0.47,0.57
		c-0.137-0.006-0.271-0.069-0.361-0.177c-0.093-0.11-0.134-0.25-0.119-0.393v-2.796H206.36z"/>
	<polygon fill="#FFFFFF" points="202.57,22.586 203.826,22.586 203.826,19.278 205.274,14.428 204.008,14.428 203.204,17.691 
		202.346,14.428 201.088,14.428 202.57,19.278 	"/>
	<path fill="#FFFFFF" d="M214.032,23.958h-13.061c-1.408,0.003-2.542,1.149-2.545,2.567v6.479c0.003,1.419,1.137,2.565,2.545,2.565
		h13.061c1.406,0,2.54-1.147,2.54-2.565v-6.479C216.573,25.107,215.439,23.96,214.032,23.958z M202.71,33.65h-1.189V27.01h-1.225
		v-1.129h3.644v1.129h-1.229V33.65L202.71,33.65z M206.94,33.65h-1.056v-0.647c-0.17,0.208-0.376,0.39-0.61,0.53
		c-0.569,0.328-1.35,0.324-1.35-0.824v-4.788h1.055v4.391c0,0.23,0.062,0.388,0.286,0.388s0.49-0.268,0.619-0.41v-4.368h1.056V33.65
		L206.94,33.65z M210.998,32.468c0,0.701-0.26,1.236-0.964,1.236c-0.395,0-0.771-0.188-1.001-0.515v0.439h-1.065v-7.748h1.065v2.5
		c0.217-0.312,0.563-0.509,0.941-0.537c0.771,0,1.023,0.663,1.023,1.436V32.468z M214.902,30.94h-2.02v1.079
		c0,0.412,0.04,0.802,0.466,0.802s0.469-0.308,0.469-0.802v-0.412h1.085v0.412c0,1.104-0.47,1.774-1.577,1.774
		c-1.011,0-1.525-0.741-1.525-1.774v-2.561c-0.034-0.445,0.123-0.878,0.429-1.204c0.305-0.319,0.73-0.493,1.169-0.48
		c1.015,0,1.505,0.651,1.505,1.685V30.94L214.902,30.94z"/>
	<path fill="#FFFFFF" d="M213.344,28.78c-0.392,0-0.47,0.274-0.47,0.672v0.576h0.93v-0.576
		C213.817,29.057,213.754,28.78,213.344,28.78z"/>
	<path fill="#FFFFFF" d="M209.255,28.81c-0.081,0.049-0.153,0.11-0.216,0.178v3.571c0.066,0.083,0.156,0.152,0.246,0.202
		c0.177,0.107,0.395,0.083,0.539-0.057c0.076-0.123,0.112-0.269,0.095-0.415v-2.942c0.012-0.157-0.026-0.311-0.115-0.441
		C209.668,28.746,209.438,28.709,209.255,28.81z"/>
</g>
</svg>
