<svg width="32" height="36" viewBox="0 0 32 36" version="1.1" xmlns="http://www.w3.org/2000/svg" xmlns:xlink="http://www.w3.org/1999/xlink">
<g id="Canvas" fill="none">
<g id="google play">
<g id="Group">
<path id="Shape" d="M 0.959563 35.332C 0.735216 35.1451 0.423604 34.7589 0.274161 34.472L 0 33.9611L 0 17.8849L 0 1.8087L 0.311613 1.18547C 0.486145 0.836409 0.81012 0.437894 1.04683 0.288087C 1.6326 -0.0980651 2.64198 -0.0980651 3.48955 0.30045C 4.06296 0.562248 4.64837 1.24765 11.0293 9.1485C 14.8301 13.8598 17.9455 17.7602 17.9455 17.8227C 17.9455 17.8726 15.453 21.0007 12.3998 24.7517C 9.34656 28.515 6.21843 32.366 5.45813 33.3256C 3.87534 35.2698 3.55136 35.5065 2.18056 35.6061C 1.42062 35.6687 1.33372 35.6436 0.959563 35.332Z" transform="translate(0.0211182 35.6338) scale(1 -1)" fill="white"/>
<path id="Shape_2" d="M 0.0245931 13.9455C 0.311117 13.5343 11.2656 -0.0246916 11.2906 3.37745e-05C 11.2906 0.0127601 12.188 1.1094 13.2596 2.43003C 14.3435 3.76338 15.2409 4.9102 15.2783 4.99747C 15.3158 5.08474 12.6611 6.69225 8.51122 9.12224C 4.7475 11.3155 1.27068 13.347 0.772172 13.6335C 0.186762 13.983 -0.0873984 14.095 0.0245931 13.9455Z" transform="translate(7.68579 16.7769) scale(1 -1)" fill="white"/>
<path id="Shape_3" d="M 2.14395 8.15029C 0.947675 6.66713 -0.0246141 5.42104 0.000474884 5.38359C 0.0753782 5.1716 4.33723 0 4.4245 0C 4.64885 0 9.97026 3.16558 10.344 3.52664C 11.553 4.69819 11.528 6.29334 10.2568 7.36525C 9.78336 7.7765 4.61139 10.8421 4.4245 10.8421C 4.36232 10.8421 3.34058 9.63344 2.14395 8.15029Z" transform="translate(20.7452 23.1697) scale(1 -1)" fill="white"/>
<path id="Shape_4" d="M 5.74412 7.16899C 2.66617 3.36819 0.0863695 0.177528 0.0238288 0.0778992C -0.0510746 -0.0468186 0.0489178 -0.0217296 0.347804 0.152803C 0.584513 0.289883 3.99916 2.27155 7.93741 4.56447C 11.8753 6.84502 15.1779 8.78923 15.2776 8.8765C 15.4397 9.02594 14.9536 9.66153 11.5389 13.8365C 11.3521 14.0608 11.0532 13.7118 5.74412 7.16899Z" transform="translate(7.59924 32.9685) scale(1 -1)" fill="white"/>
</g>
</g>
</g>
</svg>
