<?xml version="1.0" encoding="utf-8"?>
<!-- Generator: Adobe Illustrator 16.0.0, SVG Export Plug-In . SVG Version: 6.00 Build 0)  -->
<!DOCTYPE svg PUBLIC "-//W3C//DTD SVG 1.1//EN" "http://www.w3.org/Graphics/SVG/1.1/DTD/svg11.dtd">
<svg version="1.1" id="Layer_1" xmlns="http://www.w3.org/2000/svg" xmlns:xlink="http://www.w3.org/1999/xlink" x="0px" y="0px"
	 width="150px" height="50px" viewBox="0 0 150 50" enable-background="new 0 0 150 50" xml:space="preserve">
<path fill="#E9194F" d="M131.364,5.908c-0.78-0.781-2.048-0.781-2.828,0l-22.627,22.627c-0.781,0.781-0.781,2.048,0,2.828
	l2.828,2.829c0.781,0.781,2.048,0.781,2.829,0l0.707-0.707c1.172-1.172,3.071-1.172,4.242,0c1.172,1.171,1.172,3.071,0,4.243
	l-0.707,0.707c-0.781,0.78-0.781,2.047,0,2.828l2.829,2.828c0.78,0.781,2.047,0.781,2.828,0l22.627-22.627
	c0.781-0.781,0.781-2.047,0-2.828l-2.828-2.829c-0.781-0.781-2.047-0.781-2.828,0l-1.414,1.414c-1.172,1.172-3.071,1.172-4.242,0
	c-1.172-1.171-1.172-3.071,0-4.243l1.414-1.414c0.781-0.781,0.781-2.047,0-2.829L131.364,5.908z M139.142,17.929
	c0.391-0.39,1.023-0.39,1.414,0l1.414,1.415c0.391,0.391,0.391,1.023,0,1.414l-21.213,21.213c-0.391,0.391-1.024,0.391-1.414,0
	l-1.415-1.414c-0.39-0.391-0.39-1.023,0-1.414c1.953-1.953,1.953-5.119,0-7.071c-1.952-1.953-5.118-1.952-7.07,0
	c-0.391,0.39-1.024,0.39-1.415-0.001l-1.414-1.414c-0.391-0.391-0.391-1.023,0-1.414l21.214-21.213c0.391-0.391,1.023-0.391,1.414,0
	l1.414,1.415c0.391,0.39,0.391,1.023,0,1.414l-0.707,0.707c-1.952,1.953-1.952,5.119,0,7.071c1.952,1.953,5.118,1.953,7.071,0
	L139.142,17.929z"/>
<path fill="#E9194F" d="M122.878,20.05c-0.391,0.391-1.023,0.391-1.414,0s-0.391-1.024,0-1.415c0.391-0.39,1.023-0.39,1.414,0
	C123.269,19.026,123.269,19.66,122.878,20.05z"/>
<path fill="#E9194F" d="M125.707,22.879c-0.391,0.39-1.023,0.39-1.414,0c-0.391-0.391-0.391-1.024,0-1.415
	c0.391-0.39,1.023-0.39,1.414,0C126.097,21.855,126.097,22.488,125.707,22.879z"/>
<path fill="#E9194F" d="M128.535,25.707c-0.391,0.391-1.023,0.391-1.414,0s-0.391-1.023,0-1.414s1.023-0.391,1.414,0
	S128.925,25.316,128.535,25.707z"/>
<path fill="#E9194F" d="M131.363,28.535c-0.391,0.391-1.023,0.391-1.414,0s-0.391-1.023,0-1.414s1.023-0.391,1.414,0
	S131.753,28.145,131.363,28.535z"/>
<g>
	<defs>
		<filter id="Adobe_OpacityMaskFilter" filterUnits="userSpaceOnUse" x="17" y="15.213" width="16" height="19.573">
			<feColorMatrix  type="matrix" values="1 0 0 0 0  0 1 0 0 0  0 0 1 0 0  0 0 0 1 0"/>
		</filter>
	</defs>
	<mask maskUnits="userSpaceOnUse" x="17" y="15.213" width="16" height="19.573" id="mask0_1_">
		<path fill="#FFFFFF" filter="url(#Adobe_OpacityMaskFilter)" d="M13,13.213h24v24H13V13.213z"/>
	</mask>
	<g mask="url(#mask0_1_)">
		<path fill="#FFFFFF" d="M25,17.213c-3.311,0-6,2.693-6,6.024c0,0.563,0.212,1.316,0.64,2.222c0.427,0.906,1.006,1.837,1.667,2.779
			c1.302,1.857,2.809,3.563,3.692,4.52l-0.025,0.034c0.008-0.003,0.017-0.005,0.025-0.005c0.009,0,0.018,0.002,0.025,0.005
			L25,32.758c0.883-0.956,2.391-2.662,3.692-4.52c0.661-0.942,1.24-1.873,1.667-2.779C30.787,24.554,31,23.801,31,23.238
			C31,19.907,28.311,17.213,25,17.213z M23.571,34.159c-0.892-0.963-2.512-2.795-3.901-4.771c-0.693-0.988-1.359-2.065-1.838-3.072
			C17.354,25.304,17,24.235,17,23.238c0-4.429,3.579-8.024,8-8.024c4.422,0,8,3.596,8,8.024c0,0.997-0.354,2.066-0.832,3.077
			c-0.479,1.007-1.145,2.084-1.838,3.072c-1.389,1.977-3.01,3.809-3.9,4.771C25.654,34.997,24.346,34.997,23.571,34.159z"/>
		<path fill="#FFFFFF" d="M27,23.213c0,1.104-0.896,2-2,2s-2-0.896-2-2s0.896-2,2-2S27,22.109,27,23.213z"/>
	</g>
</g>
<g>
	<defs>
		<filter id="Adobe_OpacityMaskFilter_1_" filterUnits="userSpaceOnUse" x="65" y="15" width="20" height="20">
			<feColorMatrix  type="matrix" values="1 0 0 0 0  0 1 0 0 0  0 0 1 0 0  0 0 0 1 0"/>
		</filter>
	</defs>
	<mask maskUnits="userSpaceOnUse" x="65" y="15" width="20" height="20" id="mask0_2_">
		<path fill="#FFFFFF" filter="url(#Adobe_OpacityMaskFilter_1_)" d="M63,13h24v24H63V13z"/>
	</mask>
	<g mask="url(#mask0_2_)">
		<path fill="#FFFFFF" d="M75,15c-5.523,0-10,4.477-10,10c0,5.523,4.477,10,10,10c5.523,0,10-4.477,10-10C85,19.477,80.523,15,75,15
			z M75,33c-4.418,0-8-3.582-8-8c0-4.418,3.582-8,8-8c4.418,0,8,3.582,8,8C83,29.418,79.418,33,75,33z"/>
		<path fill="#FFFFFF" d="M74,20c0-0.552,0.448-1,1-1c0.553,0,1,0.448,1,1v5c0,0.553-0.447,1-1,1c-0.552,0-1-0.447-1-1V20z"/>
		<path fill="#FFFFFF" d="M78.299,26c0.479,0.276,0.643,0.888,0.366,1.366c-0.276,0.478-0.888,0.642-1.366,0.366l-2.793-1.613
			c-0.479-0.275-0.643-0.888-0.366-1.366c0.276-0.479,0.888-0.642,1.366-0.366L78.299,26z"/>
	</g>
</g>
</svg>
