<svg width="34" height="34" viewBox="0 0 34 34" fill="none" xmlns="http://www.w3.org/2000/svg">
<path fill-rule="evenodd" clip-rule="evenodd" d="M23.6182 4.52521C28.4259 9.33311 28.7944 16.8992 24.7237 22.13L33.0462 30.4525C33.697 31.1033 33.697 32.1587 33.0462 32.8095C32.3954 33.4603 31.3402 33.4603 30.6894 32.8095L22.3667 24.487C17.136 28.5578 9.56989 28.1893 4.76193 23.3815C-0.445068 18.1743 -0.445068 9.73222 4.76193 4.52521C9.96896 -0.681747 18.4112 -0.681747 23.6182 4.52521ZM21.261 21.0243C25.1664 17.1192 25.1664 10.7875 21.261 6.88225C17.3558 2.97702 11.0242 2.97702 7.11893 6.88225C3.21368 10.7875 3.21368 17.1192 7.11893 21.0243C11.0242 24.9297 17.3558 24.9297 21.261 21.0243Z" fill="white"/>
</svg>
