<?xml version="1.0" encoding="utf-8"?>
<!-- Generator: Adobe Illustrator 16.0.0, SVG Export Plug-In . SVG Version: 6.00 Build 0)  -->
<!DOCTYPE svg PUBLIC "-//W3C//DTD SVG 1.1//EN" "http://www.w3.org/Graphics/SVG/1.1/DTD/svg11.dtd">
<svg version="1.1" id="Layer_1" xmlns="http://www.w3.org/2000/svg" xmlns:xlink="http://www.w3.org/1999/xlink" x="0px" y="0px"
	 width="301px" height="51px" viewBox="-1 -0.948 301 51" enable-background="new -1 -0.948 301 51" xml:space="preserve">
<g id="Canvas">
	<g id="Icon_Automatizacao">
		<g id="Rectangle">
			<g id="path0_stroke-link">
				<g id="path0_stroke">
					<path fill="#E9194F" d="M193.74,7.858h-30.885c-1.383,0-2.504,1.12-2.504,2.504v5.843c0,0.461-0.374,0.835-0.835,0.835
						c-0.46,0-0.834-0.374-0.834-0.835v-5.843c0-2.305,1.868-4.174,4.173-4.174h30.885c2.306,0,4.174,1.869,4.174,4.174v18.363
						c0,2.306-1.868,4.174-4.174,4.174h-5.008c-0.463,0-0.835-0.373-0.835-0.835c0-0.461,0.372-0.834,0.835-0.834h5.008
						c1.382,0,2.504-1.122,2.504-2.505V10.362C196.244,8.979,195.122,7.858,193.74,7.858z"/>
				</g>
			</g>
		</g>
		<g id="Rectangle_2">
			<g id="path1_stroke-link">
				<g id="path1_stroke">
					<path fill="#E9194F" d="M184.559,17.875h-30.885c-1.383,0-2.504,1.12-2.504,2.504v18.364c0,1.382,1.121,2.504,2.504,2.504
						h30.885c1.382,0,2.504-1.122,2.504-2.504V20.379C187.063,18.995,185.941,17.875,184.559,17.875z M153.674,16.205h30.885
						c2.306,0,4.174,1.869,4.174,4.174v18.364c0,2.305-1.868,4.173-4.174,4.173h-30.885c-2.305,0-4.174-1.868-4.174-4.173V20.379
						C149.5,18.074,151.369,16.205,153.674,16.205z"/>
				</g>
			</g>
		</g>
		<g id="Rectangle_2_1_">
			<g id="path2_fill-link">
				<g id="path2_fill">
					<path fill="#E9194F" d="M177.881,37.073c0-0.461,0.372-0.835,0.835-0.835h5.008c0.462,0,0.835,0.374,0.835,0.835
						c0,0.462-0.373,0.835-0.835,0.835h-5.008C178.253,37.908,177.881,37.535,177.881,37.073z"/>
				</g>
			</g>
		</g>
		<g id="Rectangle_2.1">
			<g id="path3_fill-link">
				<g id="path3_fill">
					<path fill="#E9194F" d="M171.203,37.073c0-0.461,0.374-0.835,0.835-0.835h3.339c0.461,0,0.834,0.374,0.834,0.835
						c0,0.462-0.373,0.835-0.834,0.835h-3.339C171.577,37.908,171.203,37.535,171.203,37.073z"/>
				</g>
			</g>
		</g>
	</g>
</g>
<g id="Canvas_1_">
	<g id="Icon_Gestao">
		<g id="Vector">
			<g id="path0_stroke-link_1_">
				<g id="path0_stroke_1_">
					<path fill="#E9194F" d="M34.258,20.941c0.311-0.34,0.287-0.869-0.054-1.178c-0.341-0.312-0.869-0.287-1.179,0.053
						L20.622,33.419l-8.986-7.424c-0.185-0.154-0.427-0.22-0.664-0.182c-0.237,0.039-0.447,0.178-0.575,0.381L-0.872,44.141
						c-0.245,0.391-0.127,0.905,0.264,1.15c0.39,0.246,0.905,0.128,1.151-0.263l10.764-17.141l8.866,7.324
						c0.343,0.282,0.849,0.248,1.148-0.082L34.258,20.941z M20.704,34.569l-0.616-0.562l0.535-0.587l0.613,0.505L20.704,34.569z
						 M11.307,27.888l-0.734-0.605l0.532-0.644l0.708,0.443L11.307,27.888z"/>
				</g>
			</g>
		</g>
		<g id="Rectangle_1_">
			<g id="path1_stroke-link_1_">
				<g id="path1_stroke_1_">
					<path fill="#E9194F" d="M31.555,18.292c-0.462,0-0.835,0.373-0.835,0.834s0.373,0.835,0.835,0.835h2.504v2.504
						c0,0.462,0.373,0.835,0.835,0.835c0.461,0,0.834-0.373,0.834-0.835v-3.339c0-0.461-0.374-0.834-0.834-0.834H31.555z
						 M34.894,19.126h-0.835v0.835h0.835V19.126z"/>
				</g>
			</g>
		</g>
		<g id="Vector_2">
			<g id="path2_stroke-link">
				<g id="path2_stroke">
					<path fill="#E9194F" d="M0.671,4.101c0-0.46-0.374-0.834-0.835-0.834s-0.834,0.374-0.834,0.834v40.067
						c0,0.461,0.374,0.834,0.834,0.834s0.835-0.373,0.835-0.834V4.101z"/>
				</g>
			</g>
		</g>
		<g id="Vector_2.1">
			<g id="path2_stroke-link_2">
				<g id="path2_stroke_2">
					<path fill="#E9194F" d="M-0.164,44.168c-0.461,0-0.834,0.373-0.834,0.834c0,0.462,0.374,0.835,0.834,0.835h40.067
						c0.461,0,0.834-0.373,0.834-0.835c0-0.461-0.374-0.834-0.834-0.834H-0.164z"/>
				</g>
			</g>
		</g>
	</g>
</g>
<g id="Canvas_2_">
	<g id="Icon_Promos">
		<g id="Rectangle_2_">
			<g id="path0_stroke-link_2_">
				<g id="path0_stroke_2_">
					<path fill="#E9194F" d="M123.707,10.362c0.461,0,0.835-0.374,0.835-0.835c0-0.46-0.374-0.835-0.835-0.835h-16.694
						c-4.15,0-7.512,3.363-7.512,7.513v20.033c0,4.149,3.362,7.513,7.512,7.513h20.033c4.149,0,7.513-3.363,7.513-7.513V21.214
						c0-0.462-0.374-0.835-0.835-0.835c-0.462,0-0.834,0.373-0.834,0.835v15.024c0,3.228-2.616,5.844-5.843,5.844h-20.033
						c-3.227,0-5.843-2.616-5.843-5.844V16.205c0-3.227,2.616-5.843,5.843-5.843H123.707z"/>
				</g>
			</g>
		</g>
		<g id="Group_2">
			<g id="Ellipse">
				<g id="path1_fill-link">
					<g id="path1_fill">
						<path fill="#E9194F" d="M139.567,12.031c0,3.688-2.99,6.678-6.678,6.678c-3.688,0-6.678-2.989-6.678-6.678
							c0-3.688,2.99-6.678,6.678-6.678C136.576,5.354,139.567,8.344,139.567,12.031z"/>
					</g>
				</g>
			</g>
			<g id="Group">
				<g id="Rectangle_2_2_">
					<g id="path2_fill-link_1_">
						<g id="path2_fill_1_">
							<path fill="#FFFFFF" d="M135.283,9.046c0.164-0.165,0.433-0.165,0.599,0c0.165,0.165,0.165,0.434,0,0.599l-5.388,5.388
								c-0.167,0.165-0.435,0.165-0.599,0c-0.166-0.165-0.166-0.433,0-0.599L135.283,9.046z"/>
						</g>
					</g>
				</g>
				<g id="Ellipse_2">
					<g id="path3_stroke-link">
						<g id="path3_stroke">
							<path fill="#FFFFFF" d="M129.967,10.101c0-0.373,0.292-0.656,0.626-0.656c0.333,0,0.626,0.281,0.626,0.656
								c0,0.373-0.293,0.656-0.626,0.656C130.259,10.757,129.967,10.473,129.967,10.101z M132.054,10.101
								c0,0.812-0.644,1.49-1.46,1.49c-0.818,0-1.461-0.679-1.461-1.49s0.643-1.491,1.461-1.491
								C131.41,8.609,132.054,9.288,132.054,10.101z"/>
						</g>
					</g>
				</g>
				<g id="Ellipse_3">
					<g id="path3_stroke-link_2">
						<g id="path3_stroke_2">
							<path fill="#FFFFFF" d="M134.558,13.963c0-0.373,0.292-0.656,0.626-0.656c0.333,0,0.626,0.283,0.626,0.656
								c0,0.374-0.292,0.656-0.626,0.656C134.85,14.619,134.558,14.337,134.558,13.963z M136.645,13.963
								c0,0.812-0.644,1.49-1.46,1.49c-0.818,0-1.461-0.678-1.461-1.49s0.643-1.49,1.461-1.49
								C136.001,12.473,136.645,13.151,136.645,13.963z"/>
						</g>
					</g>
				</g>
			</g>
		</g>
	</g>
</g>
<g id="Canvas_3_">
	<g id="Icon_Promoters">
		<g id="Group_1_">
			<g id="Ellipse_1_">
				<g id="path0_stroke-link_3_">
					<g id="path0_stroke_3_">
						<path fill="#E9194F" d="M206.831,20.378c0-3.918,3.178-7.095,7.095-7.095c3.918,0,7.095,3.177,7.095,7.095
							s-3.177,7.095-7.095,7.095C210.009,27.474,206.831,24.296,206.831,20.378z M222.691,20.378c0,4.84-3.923,8.765-8.765,8.765
							c-4.84,0-8.765-3.924-8.765-8.765s3.924-8.764,8.765-8.764C218.767,11.614,222.691,15.538,222.691,20.378z"/>
					</g>
				</g>
			</g>
			<g id="Ellipse_2_1_">
				<g id="path1_stroke-link_2_">
					<g id="path1_stroke_2_">
						<path fill="#E9194F" d="M201.546,41.664c0-6.837,5.543-12.381,12.38-12.381c6.838,0,12.382,5.544,12.382,12.381
							c0,0.462,0.373,0.835,0.834,0.835s0.835-0.373,0.835-0.835c0-7.76-6.29-14.05-14.052-14.05c-7.76,0-14.05,6.291-14.05,14.05
							c0,0.462,0.373,0.835,0.834,0.835C201.171,42.499,201.546,42.125,201.546,41.664z"/>
					</g>
				</g>
			</g>
			<g id="Ellipse_3_1_">
				<g id="path0_stroke-link_2">
					<g id="path0_stroke_2">
						<path fill="#E9194F" d="M227.978,20.378c0-3.918,3.177-7.095,7.095-7.095c3.919,0,7.096,3.177,7.096,7.095
							s-3.177,7.095-7.096,7.095C231.155,27.474,227.978,24.296,227.978,20.378z M243.837,20.378c0,4.84-3.923,8.765-8.765,8.765
							c-4.84,0-8.764-3.924-8.764-8.765s3.924-8.764,8.764-8.764C239.914,11.614,243.837,15.538,243.837,20.378z"/>
					</g>
				</g>
			</g>
			<g id="Ellipse_4">
				<g id="path2_stroke-link_1_">
					<g id="path2_stroke_1_">
						<path fill="#E9194F" d="M235.073,29.283c6.839,0,12.383,5.544,12.383,12.381c0,0.462,0.372,0.835,0.834,0.835
							s0.835-0.373,0.835-0.835c0-7.76-6.29-14.05-14.052-14.05c-4.53,0-8.561,2.145-11.128,5.472
							c-0.282,0.366-0.214,0.889,0.152,1.17c0.364,0.282,0.888,0.215,1.17-0.149C227.531,31.171,231.082,29.283,235.073,29.283z"/>
					</g>
				</g>
			</g>
			<circle fill="#FFFFFF" cx="213.926" cy="20.378" r="6.865"/>
			<circle fill="#FFFFFF" cx="235.073" cy="20.378" r="6.865"/>
		</g>
		<g id="Rectangle_3_">
			<g id="path3_fill-link_1_">
				<g id="path3_fill_1_">
					<path fill="#E9194F" d="M204.885,8.49c0-0.461,0.373-0.835,0.834-0.835c0.46,0,0.835,0.374,0.835,0.835v5.008
						c0,0.461-0.375,0.834-0.835,0.834c-0.461,0-0.834-0.373-0.834-0.834V8.49z"/>
				</g>
			</g>
		</g>
		<g id="Rectangle_2_4_">
			<g id="path4_stroke-link">
				<g id="path4_stroke">
					<path fill="#E9194F" d="M204.611,7.44c0.651-0.652,1.709-0.652,2.361,0l1.985,1.986c0.326,0.326,0.326,0.854,0,1.18
						c-0.326,0.327-0.854,0.327-1.18,0l-1.986-1.985l-1.986,1.985c-0.326,0.327-0.854,0.327-1.18,0c-0.327-0.326-0.327-0.854,0-1.18
						L204.611,7.44z"/>
				</g>
			</g>
		</g>
		<g id="Rectangle_2_3_">
			<g id="path3_fill-link_2">
				<g id="path3_fill_2">
					<path fill="#E9194F" d="M245.094,12.449c0,0.46-0.374,0.835-0.835,0.835c-0.462,0-0.834-0.375-0.834-0.835V7.44
						c0-0.46,0.372-0.834,0.834-0.834c0.461,0,0.835,0.374,0.835,0.834V12.449z"/>
				</g>
			</g>
		</g>
		<g id="Rectangle_2.1_1_">
			<g id="path4_stroke-link_2">
				<g id="path4_stroke_2">
					<path fill="#E9194F" d="M242.201,10.333c-0.326-0.326-0.854-0.326-1.18,0c-0.327,0.327-0.327,0.855,0,1.181l1.985,1.985
						c0.651,0.652,1.709,0.652,2.361,0l1.985-1.985c0.326-0.326,0.326-0.854,0-1.181c-0.327-0.326-0.854-0.326-1.181,0l-1.985,1.986
						L242.201,10.333z"/>
				</g>
			</g>
		</g>
	</g>
</g>
<g id="Canvas_4_">
	<g id="Icon_SemFilas">
		<g id="Ellipse_2_">
			<g id="path0_stroke-link_4_">
				<g id="path0_stroke_4_">
					<path fill="#E9194F" d="M63.82,9.11c-0.462,0-0.835,0.374-0.835,0.835s0.373,0.834,0.835,0.834
						c3.918,0,7.095,3.178,7.095,7.096s-3.177,7.096-7.095,7.096s-7.096-3.178-7.096-7.096c0-0.461-0.372-0.835-0.834-0.835
						s-0.835,0.374-0.835,0.835c0,4.84,3.924,8.765,8.765,8.765s8.765-3.925,8.765-8.765S68.66,9.11,63.82,9.11z"/>
				</g>
			</g>
		</g>
		<g id="Ellipse_2_2_">
			<g id="path1_stroke-link_3_">
				<g id="path1_stroke_3_">
					<path fill="#E9194F" d="M51.438,39.16c0-6.838,5.545-12.381,12.382-12.381c6.839,0,12.383,5.543,12.381,12.381
						c0,0.462,0.375,0.835,0.836,0.835s0.834-0.373,0.834-0.835c0.002-7.76-6.29-14.051-14.051-14.051S49.769,31.4,49.769,39.16
						c0,0.462,0.374,0.835,0.834,0.835C51.065,39.995,51.438,39.622,51.438,39.16z"/>
				</g>
			</g>
		</g>
		<g id="Ellipse_3_2_">
			<g id="path2_stroke-link_2_">
				<g id="path2_stroke_2_">
					<path fill="#E9194F" d="M70.072,12.273c1.202-0.938,2.713-1.494,4.355-1.494c3.918,0,7.096,3.178,7.096,7.096
						s-3.178,7.096-7.096,7.096c-1.85,0-3.533-0.708-4.797-1.867l-1.129,1.229c1.559,1.431,3.641,2.307,5.926,2.307
						c4.842,0,8.766-3.925,8.766-8.765S79.269,9.11,74.427,9.11c-2.027,0-3.896,0.689-5.38,1.846L70.072,12.273z"/>
				</g>
			</g>
		</g>
		<g id="Ellipse_4_1_">
			<g id="path3_stroke-link_1_">
				<g id="path3_stroke_1_">
					<path fill="#E9194F" d="M74.427,26.779c6.838,0,12.381,5.543,12.381,12.381c0,0.462,0.375,0.835,0.834,0.835
						c0.463,0,0.836-0.373,0.836-0.835c0-7.76-6.291-14.051-14.051-14.051c-2.009,0-3.923,0.422-5.652,1.184
						c-0.422,0.186-0.614,0.678-0.429,1.1s0.678,0.615,1.1,0.429C70.969,27.151,72.653,26.779,74.427,26.779z"/>
				</g>
			</g>
		</g>
		<g id="Ellipse_5">
			<g id="path2_stroke-link_2_1_">
				<g id="path2_stroke_2_1_">
					<path fill="#E9194F" d="M80.825,12.273c1.201-0.938,2.713-1.494,4.355-1.494c3.918,0,7.096,3.178,7.096,7.096
						s-3.178,7.096-7.096,7.096c-1.85,0-3.533-0.708-4.797-1.867l-1.129,1.229c1.559,1.431,3.641,2.307,5.926,2.307
						c4.84,0,8.764-3.925,8.764-8.765S90.021,9.11,85.181,9.11c-2.027,0-3.896,0.689-5.381,1.846L80.825,12.273z"/>
				</g>
			</g>
		</g>
		<g id="Ellipse_6">
			<g id="path3_stroke-link_2_1_">
				<g id="path3_stroke_2_1_">
					<path fill="#E9194F" d="M85.181,26.779c6.838,0,12.381,5.543,12.381,12.381c0,0.462,0.373,0.835,0.836,0.835
						c0.461,0,0.834-0.373,0.834-0.835c0-7.76-6.291-14.051-14.051-14.051c-2.01,0-3.922,0.422-5.652,1.184
						c-0.424,0.186-0.615,0.678-0.428,1.1c0.184,0.422,0.676,0.615,1.098,0.429C81.722,27.151,83.407,26.779,85.181,26.779z"/>
				</g>
			</g>
		</g>
		<g id="Union">
			<g id="path4_fill-link">
				<g id="path4_fill">
					<path fill="#E9194F" d="M61.127,9.497c-0.326-0.325-0.854-0.325-1.181,0l-1.771,1.772l-1.771-1.772
						c-0.326-0.325-0.854-0.325-1.181,0c-0.326,0.327-0.326,0.854,0,1.181l1.771,1.771l-1.771,1.771
						c-0.326,0.326-0.326,0.854,0,1.18s0.854,0.326,1.18,0l1.771-1.771l1.771,1.771c0.326,0.326,0.854,0.326,1.181,0
						s0.326-0.854,0-1.18l-1.771-1.771l1.771-1.771C61.452,10.351,61.452,9.824,61.127,9.497z"/>
				</g>
			</g>
		</g>
	</g>
</g>
<g id="Icon_Seguranca">
	<g id="Group_2_">
		<g id="Rectangle_4_">
			<g id="path0_stroke-link_5_">
				<g id="path0_stroke_5_">
					<path fill="#E9194F" d="M272.037,22.883h-18.363c-1.384,0-2.504,1.12-2.504,2.504v15.024c0,1.383,1.12,2.504,2.504,2.504
						h18.363c1.382,0,2.505-1.121,2.505-2.504V25.387C274.542,24.003,273.419,22.883,272.037,22.883z M253.674,21.214h18.363
						c2.306,0,4.174,1.869,4.174,4.173v15.024c0,2.307-1.868,4.174-4.174,4.174h-18.363c-2.306,0-4.174-1.867-4.174-4.174V25.387
						C249.5,23.083,251.368,21.214,253.674,21.214z"/>
				</g>
			</g>
		</g>
		<g id="Rectangle_2_5_">
			<g id="path1_stroke-link_4_">
				<g id="path1_stroke_4_">
					<path fill="#E9194F" d="M262.856,6.188c4.581,0,8.348,3.857,8.348,8.681v6.345c0,0.46,0.372,0.834,0.834,0.834
						s0.835-0.374,0.835-0.834v-6.345c0-5.688-4.458-10.35-10.017-10.35c-5.561,0-10.017,4.661-10.017,10.35v6.345
						c0,0.46,0.373,0.834,0.835,0.834c0.46,0,0.834-0.374,0.834-0.834v-6.345C254.508,10.046,258.274,6.188,262.856,6.188z"/>
				</g>
			</g>
		</g>
		<g id="Rectangle_3">
			<g id="path2_stroke-link_3_">
				<g id="path2_stroke_3_">
					<path fill="#E9194F" d="M262.856,9.527c2.722,0,5.008,2.351,5.008,5.353v7.168h1.67V14.88c0-3.832-2.946-7.021-6.678-7.021
						c-3.733,0-6.678,3.189-6.678,7.021v7.168h1.67V14.88C257.848,11.878,260.133,9.527,262.856,9.527z"/>
				</g>
			</g>
		</g>
	</g>
	<path fill="#E9194F" d="M262.856,25.387c-2.764,0-5.008,2.245-5.008,5.009c0,1.853,1.01,3.473,2.504,4.34v-0.518h0.834
		l-0.333,0.768c-0.176-0.074-0.342-0.158-0.501-0.25v3.172c0,1.387,1.118,2.504,2.504,2.504c1.385,0,2.504-1.117,2.504-2.504v-3.172
		c-0.158,0.092-0.326,0.176-0.501,0.25l-0.333-0.768h0.834v0.518c1.493-0.867,2.504-2.487,2.504-4.34
		C267.864,27.632,265.618,25.387,262.856,25.387z M264.191,33.458c-0.3,0.135-0.5,0.436-0.5,0.76v3.689
		c0,0.459-0.376,0.836-0.835,0.836c-0.46,0-0.835-0.377-0.835-0.836v-3.689c0-0.326-0.2-0.625-0.502-0.76
		c-1.176-0.518-2.002-1.693-2.002-3.062c0-1.846,1.493-3.34,3.339-3.34c1.845,0,3.339,1.494,3.339,3.34
		C266.195,31.765,265.368,32.94,264.191,33.458z"/>
</g>
</svg>
