<?xml version="1.0" encoding="utf-8"?>
<!-- Generator: Adobe Illustrator 16.0.0, SVG Export Plug-In . SVG Version: 6.00 Build 0)  -->
<!DOCTYPE svg PUBLIC "-//W3C//DTD SVG 1.1//EN" "http://www.w3.org/Graphics/SVG/1.1/DTD/svg11.dtd">
<svg version="1.1" id="Layer_1" xmlns="http://www.w3.org/2000/svg" xmlns:xlink="http://www.w3.org/1999/xlink" x="0px" y="0px"
	 width="24px" height="20px" viewBox="-0.25 2 24 20" enable-background="new -0.25 2 24 20" xml:space="preserve">
<path fill="#FFFFFF" d="M23.438,11.274l-9.5-9c-0.4-0.38-1.033-0.363-1.414,0.039c-0.379,0.401-0.362,1.034,0.039,1.414L21.296,12
	l-8.733,8.273c-0.401,0.381-0.418,1.014-0.039,1.414c0.381,0.401,1.014,0.418,1.414,0.039l9.5-9
	c0.199-0.189,0.312-0.452,0.312-0.727S23.637,11.463,23.438,11.274z"/>
<path fill="#FFFFFF" d="M0.062,12.726l9.5,9c0.4,0.38,1.033,0.363,1.414-0.038c0.379-0.401,0.362-1.034-0.039-1.414L2.204,12
	l8.733-8.273c0.401-0.381,0.418-1.014,0.039-1.414c-0.381-0.401-1.014-0.418-1.414-0.039l-9.5,9C-0.137,11.463-0.25,11.726-0.25,12
	S-0.137,12.537,0.062,12.726z"/>
</svg>
