<?xml version="1.0" encoding="utf-8"?>
<!-- Generator: Adobe Illustrator 16.0.0, SVG Export Plug-In . SVG Version: 6.00 Build 0)  -->
<!DOCTYPE svg PUBLIC "-//W3C//DTD SVG 1.1//EN" "http://www.w3.org/Graphics/SVG/1.1/DTD/svg11.dtd">
<svg version="1.1" id="Layer_1" xmlns="http://www.w3.org/2000/svg" xmlns:xlink="http://www.w3.org/1999/xlink" x="0px" y="0px"
	 width="401px" height="201px" viewBox="0 0 401 201" enable-background="new 0 0 401 201" xml:space="preserve">
<g>
	<g>
		<path fill="#E9194F" d="M117.098,39.548l-12.009,0.782c-1.291,0.083-2.276,1.188-2.214,2.479c0.228,4.734-3.436,8.836-8.166,9.145
			c-4.729,0.308-8.893-3.285-9.281-8.009c-0.106-1.29-1.226-2.256-2.518-2.172l-12.009,0.782c-2.075,0.135-3.973,1.07-5.344,2.632
			c-1.372,1.563-2.052,3.565-1.917,5.64l5.448,83.685c0.133,2.054,1.052,3.934,2.586,5.302l-0.59,10.963
			c-0.23,4.286,3.069,7.96,7.354,8.19l12.017,0.647c1.292,0.07,2.401-0.909,2.493-2.2c0.335-4.728,4.458-8.367,9.191-8.113
			c4.733,0.255,8.441,4.316,8.267,9.054c-0.048,1.292,0.95,2.385,2.241,2.454l12.018,0.648c4.286,0.23,7.96-3.068,8.19-7.354
			l3.591-66.695l0.918-17.045c0.23-4.286-3.068-7.96-7.354-8.191l-3.653-0.196l-0.987-15.166c-0.135-2.075-1.07-3.973-2.632-5.345
			C121.175,40.094,119.172,39.413,117.098,39.548z M121.9,66.484l4.768,0.257l3.088,0.166c1.675,0.09,2.964,1.526,2.875,3.201
			l-0.791,14.679l-4.011-0.216l-0.428-0.023c-1.308-0.07-2.424,0.932-2.495,2.24c-0.071,1.308,0.933,2.424,2.24,2.495l0.992,0.053
			l3.446,0.186l-1.555,28.867l-0.943,17.52l-0.966,17.94c-0.09,1.675-1.526,2.964-3.201,2.874l-9.889-0.533
			c-0.367-2.687-1.536-5.2-3.399-7.243c-2.4-2.632-5.68-4.187-9.237-4.379c-3.557-0.191-6.985,1.003-9.654,3.362
			c-2.072,1.832-3.504,4.205-4.157,6.836l-9.89-0.532c-1.675-0.09-2.964-1.527-2.874-3.202l0.499-9.261l0.255-4.738l2.71-50.329
			l28.827,1.552c1.307,0.07,2.424-0.933,2.495-2.24c0.07-1.308-0.933-2.425-2.24-2.495L79.538,81.97l0.791-14.678
			c0.09-1.675,1.526-2.965,3.202-2.875l9.89,0.532c0.366,2.687,1.535,5.2,3.398,7.244c2.399,2.632,5.68,4.187,9.237,4.378
			s6.986-1.002,9.655-3.361c2.072-1.832,3.504-4.205,4.156-6.837L121.9,66.484L121.9,66.484z M119.611,45.029
			c0.61,0.536,0.976,1.277,1.029,2.088l0.951,14.602l-3.597-0.193c-1.292-0.07-2.4,0.909-2.492,2.2
			c-0.334,4.728-4.458,8.367-9.191,8.112s-8.441-4.316-8.267-9.053c0.047-1.293-0.95-2.385-2.242-2.455l-12.018-0.647
			c-4.286-0.23-7.96,3.068-8.191,7.354l-0.918,17.045l-1.864,34.626L68.372,50.52c-0.053-0.811,0.214-1.594,0.75-2.205
			c0.536-0.611,1.277-0.976,2.088-1.029l9.883-0.644c0.682,2.625,2.141,4.981,4.233,6.79c2.695,2.328,6.136,3.484,9.691,3.252
			s6.817-1.823,9.188-4.481c1.841-2.064,2.981-4.59,3.317-7.281l9.884-0.644C118.217,44.227,119,44.493,119.611,45.029z"/>
		<path fill="#E9194F" d="M116.967,84.167c-0.145,0.051-0.287,0.117-0.418,0.196c-0.135,0.078-0.261,0.171-0.375,0.274
			c-0.116,0.103-0.221,0.221-0.313,0.344c-0.095,0.125-0.173,0.259-0.24,0.398c-0.067,0.139-0.123,0.286-0.162,0.435
			c-0.075,0.302-0.093,0.617-0.049,0.926c0.022,0.153,0.062,0.302,0.113,0.45c0.052,0.145,0.115,0.286,0.196,0.418
			c0.079,0.135,0.171,0.261,0.274,0.376c0.104,0.117,0.219,0.221,0.344,0.315c0.124,0.092,0.257,0.173,0.396,0.24
			c0.141,0.067,0.288,0.12,0.438,0.158c0.149,0.039,0.305,0.062,0.458,0.07c0.154,0.008,0.311,0.002,0.464-0.02
			s0.305-0.06,0.45-0.111c0.148-0.052,0.289-0.118,0.421-0.196c0.135-0.08,0.261-0.171,0.376-0.276
			c0.114-0.103,0.22-0.219,0.313-0.344c0.092-0.123,0.173-0.256,0.239-0.395c0.067-0.142,0.123-0.286,0.16-0.436
			c0.039-0.152,0.063-0.306,0.072-0.462c0.008-0.153,0-0.308-0.022-0.464c-0.021-0.153-0.06-0.305-0.111-0.45
			c-0.051-0.146-0.118-0.287-0.196-0.421c-0.079-0.132-0.171-0.261-0.274-0.376c-0.103-0.114-0.218-0.22-0.343-0.312
			c-0.124-0.092-0.257-0.173-0.398-0.24c-0.138-0.067-0.286-0.12-0.435-0.158c-0.15-0.04-0.305-0.064-0.46-0.072
			c-0.154-0.009-0.311,0-0.464,0.022C117.267,84.079,117.115,84.116,116.967,84.167z"/>
	</g>
	<g>
		<path fill="#E8194F" d="M112.347,124.291l0.688-12.774c0.036-0.654-0.463-1.209-1.117-1.244c-0.654-0.036-1.209,0.463-1.245,1.117
			l-0.223,4.125c-0.073,1.363-0.404,1.417-0.79,0.121c-0.046-0.148-2.717-8.073-3.648-10.748c-0.222-0.632-0.882-0.886-1.45-0.825
			c-0.569,0.079-1.036,0.618-1.075,1.345l-0.842,15.628l-0.011,0.217c-0.045,0.836-0.442,1.088-0.737,0.144l0,0l-4.645-13.572
			c-0.19-0.539-0.719-0.859-1.271-0.779c-0.551,0.08-0.977,0.53-1.007,1.093l-0.811,15.064c-0.036,0.654,0.463,1.209,1.117,1.245
			s1.21-0.463,1.245-1.117l0.401-7.469c0.03-0.562,0.412-0.542,0.589-0.096l4.787,15.001c0.369,0.949,1.166,1.047,1.573,0.922
			c0.537-0.171,0.911-0.68,0.953-1.461l0.911-16.899c0.033-0.617,0.383-0.672,0.568-0.061l3.744,11.683
			c0.171,0.537,0.7,0.876,1.269,0.815C111.871,125.687,112.297,125.218,112.347,124.291"/>
		<path fill="#E8194F" d="M116.441,110.862c0.654,0.035,1.21-0.463,1.245-1.118l0.001-0.037c0.035-0.653-0.463-1.209-1.117-1.244
			c-0.654-0.035-1.21,0.464-1.245,1.118l-0.001,0.037C115.308,110.273,115.788,110.827,116.441,110.862z"/>
	</g>
</g>
<g>
	<g>
		<g>
			<path fill="#E9194F" d="M332.188,80.32c-0.357-0.357-0.854-0.562-1.358-0.562s-1,0.206-1.357,0.562
				c-0.358,0.357-0.563,0.854-0.563,1.358c0,0.505,0.205,1.001,0.563,1.358c0.356,0.357,0.853,0.563,1.357,0.563
				s1.001-0.206,1.358-0.563c0.356-0.357,0.562-0.853,0.562-1.358C332.751,81.173,332.545,80.677,332.188,80.32z"/>
		</g>
	</g>
	<g>
		<g>
			<path fill="#E9194F" d="M330.83,76.012c1.061,0,1.921-0.86,1.921-1.921V57.094c0-3.177-2.585-5.762-5.763-5.762h-69.91
				c-3.177,0-5.762,2.584-5.762,5.762v86.812c0,3.178,2.585,5.762,5.762,5.762h69.911c3.177,0,5.762-2.584,5.762-5.762v-8.625
				c0-1.061-0.86-1.921-1.921-1.921s-1.92,0.86-1.92,1.921v8.625c0,1.06-0.862,1.921-1.922,1.921h-69.91
				c-1.059,0-1.921-0.862-1.921-1.921V57.094c0-1.059,0.862-1.921,1.921-1.921h69.911c1.059,0,1.921,0.862,1.921,1.921v16.998
				C328.909,75.152,329.77,76.012,330.83,76.012z"/>
		</g>
	</g>
	<g>
		<g>
			<path fill="#E9194F" d="M347.995,128.58l-9.907-9.907c1.706-3.046,2.682-6.554,2.682-10.286c0-11.643-9.473-21.115-21.115-21.115
				c-0.117,0-0.232,0.002-0.348,0.004V76.708c0-1.061-0.86-1.92-1.921-1.92h-11.225V64.417c0-1.061-0.86-1.921-1.92-1.921h-13.146
				c-1.061,0-1.92,0.86-1.92,1.921V75.94h-11.226c-1.061,0-1.92,0.86-1.92,1.921v10.371h-9.348c-1.062,0-1.921,0.86-1.921,1.921
				v10.372c0,1.06,0.859,1.92,1.921,1.92h32.71c-0.554,1.886-0.853,3.879-0.853,5.941c0,11.643,9.472,21.115,21.114,21.115
				c3.732,0,7.241-0.975,10.286-2.681l9.843,9.842c1.159,1.16,2.667,1.745,4.168,1.745c1.4,0,2.796-0.51,3.896-1.535
				c1.156-1.077,1.808-2.539,1.836-4.116C349.711,131.18,349.111,129.697,347.995,128.58z M276.027,98.604h-7.426v-6.529h7.428
				v6.529H276.027z M289.174,98.604h-9.305v-8.45V79.782h9.305V98.604z M293.015,98.604V77.861V66.337h9.305v10.372v6.954v2.625
				c0,1.061,0.86,1.921,1.921,1.921s1.921-0.86,1.921-1.921v-2.625v-5.033h9.304v9.061c-6.31,1.275-11.607,5.374-14.517,10.914
				H293.015z M319.653,125.661c-9.523,0-17.272-7.749-17.272-17.274c0-9.524,7.749-17.273,17.272-17.273
				c9.525,0,17.274,7.749,17.274,17.273S329.179,125.661,319.653,125.661z M345.229,134.062c-0.747,0.694-1.971,0.643-2.729-0.115
				l-9.342-9.341c0.985-0.822,1.894-1.73,2.716-2.716l9.406,9.405c0.372,0.373,0.572,0.867,0.563,1.393
				C345.833,133.215,345.614,133.702,345.229,134.062z"/>
		</g>
	</g>
	<g>
		<g>
			<path fill="#E9194F" d="M324.654,98.566c-0.924-0.521-2.096-0.196-2.616,0.729l-10.327,18.292
				c-0.521,0.924-0.196,2.095,0.728,2.616c0.298,0.17,0.623,0.25,0.943,0.25c0.669,0,1.32-0.352,1.674-0.978l10.326-18.292
				C325.903,100.259,325.577,99.088,324.654,98.566z"/>
		</g>
	</g>
	<g>
		<g>
			<path fill="#E9194F" d="M326.365,110.026c-3.178,0-5.762,2.586-5.762,5.762s2.584,5.762,5.762,5.762
				c3.177,0,5.762-2.586,5.762-5.762S329.542,110.026,326.365,110.026z M326.365,117.709c-1.061,0-1.921-0.862-1.921-1.92
				c0-1.059,0.86-1.921,1.921-1.921c1.059,0,1.92,0.862,1.92,1.921C328.285,116.847,327.424,117.709,326.365,117.709z"/>
		</g>
	</g>
	<g>
		<g>
			<path fill="#E9194F" d="M312.943,95.223c-3.178,0-5.763,2.585-5.763,5.762c0,3.177,2.585,5.762,5.763,5.762
				s5.762-2.585,5.762-5.762C318.705,97.808,316.121,95.223,312.943,95.223z M312.943,102.905c-1.059,0-1.92-0.861-1.92-1.92
				c0-1.059,0.861-1.921,1.92-1.921s1.92,0.862,1.92,1.921C314.863,102.044,314.002,102.905,312.943,102.905z"/>
		</g>
	</g>
	<g>
		<g>
			<path fill="#E9194F" d="M316.784,135.456h-53.177c-1.06,0-1.92,0.86-1.92,1.921c0,1.061,0.86,1.921,1.92,1.921h53.177
				c1.061,0,1.921-0.86,1.921-1.921C318.705,136.316,317.845,135.456,316.784,135.456z"/>
		</g>
	</g>
	<g>
		<g>
			<path fill="#E9194F" d="M292.034,124.7h-11.91c-1.06,0-1.92,0.86-1.92,1.921c0,1.06,0.86,1.92,1.92,1.92h11.91
				c1.061,0,1.92-0.86,1.92-1.92C293.954,125.56,293.095,124.7,292.034,124.7z"/>
		</g>
	</g>
	<g>
		<g>
			<path fill="#E9194F" d="M300.435,125.264c-0.357-0.358-0.853-0.563-1.358-0.563c-0.505,0-1,0.205-1.357,0.563
				c-0.359,0.356-0.563,0.852-0.563,1.358c0,0.505,0.204,1,0.563,1.357c0.357,0.357,0.852,0.563,1.357,0.563
				s1.001-0.206,1.358-0.563c0.356-0.357,0.562-0.852,0.562-1.357C300.997,126.116,300.792,125.62,300.435,125.264z"/>
		</g>
	</g>
	<g>
		<g>
			<path fill="#E9194F" d="M292.034,113.944h-11.91c-1.06,0-1.92,0.86-1.92,1.921c0,1.06,0.86,1.92,1.92,1.92h11.91
				c1.061,0,1.92-0.86,1.92-1.92C293.954,114.805,293.095,113.944,292.034,113.944z"/>
		</g>
	</g>
	<g>
		<g>
			<path fill="#E9194F" d="M267.834,118.84c-1.271,0-2.305-0.859-2.305-1.914c0-1.056,1.033-1.916,2.305-1.916
				s2.305,0.86,2.305,1.916c0,1.06,0.86,1.92,1.92,1.92c1.061,0,1.921-0.86,1.921-1.92c0-2.547-1.776-4.71-4.228-5.467
				c-0.02-1.043-0.87-1.883-1.918-1.883c-1.049,0-1.9,0.84-1.919,1.883c-2.452,0.757-4.228,2.92-4.228,5.467
				c0,3.172,2.757,5.756,6.146,5.756c1.271,0,2.305,0.858,2.305,1.914c0,1.054-1.033,1.915-2.305,1.915s-2.305-0.86-2.305-1.915
				c0-1.061-0.86-1.921-1.922-1.921c-1.06,0-1.92,0.86-1.92,1.921c0,2.545,1.774,4.708,4.226,5.466v0.11
				c0,1.061,0.86,1.921,1.921,1.921s1.921-0.86,1.921-1.921v-0.11c2.45-0.758,4.225-2.921,4.225-5.466
				C273.979,121.422,271.223,118.84,267.834,118.84z"/>
		</g>
	</g>
</g>
</svg>
